{
.appVersion = "3343";
.formatVersion = 3;
customParameters = (
{
name = panose;
value = (
0,
0,
0,
0,
0,
0,
0,
0,
0,
0
);
},
{
name = unicodeRanges;
value = (
0,
1,
2,
3,
4,
5,
6,
7,
9,
29,
31,
32,
33,
35,
36,
37,
38,
42,
45,
47,
60,
62
);
},
{
name = fsType;
value = (
);
},
{
name = glyphOrder;
value = (
.notdef,
CR,
space,
A,
Aacute,
Abreve,
uni01CD,
Acircumflex,
Adieresis,
Agrave,
Amacron,
Aogonek,
Aring,
Atilde,
AE,
AEacute,
B,
C,
Cacute,
Ccaron,
Ccedilla,
Cdotaccent,
D,
Dcaron,
Dcroat,
Eth,
E,
Eacute,
Ebreve,
Ecaron,
Ecircumflex,
Edieresis,
Edotaccent,
Egrave,
Emacron,
Eogonek,
uni018E,
uni1EBC,
uni018F,
F,
G,
Gbreve,
uni0122,
Gdotaccent,
H,
Hbar,
I,
IJ,
Iacute,
Ibreve,
Icircumflex,
Idieresis,
Idotaccent,
Igrave,
Imacron,
Iogonek,
Itilde,
J,
uni004A0301,
K,
uni0136,
L,
Lacute,
Lcaron,
uni013B,
Ldot,
Lslash,
M,
N,
Nacute,
Ncaron,
uni0145,
Ntilde,
Eng,
O,
Oacute,
Obreve,
Ocircumflex,
Odieresis,
Ograve,
Ohungarumlaut,
Omacron,
Oslash,
Otilde,
OE,
P,
Thorn,
Q,
R,
Racute,
Rcaron,
uni0156,
S,
Sacute,
Scaron,
Scedilla,
uni0218,
uni1E9E,
T,
Tcaron,
uni0162,
uni021A,
U,
Uacute,
Ubreve,
Ucircumflex,
Udieresis,
Ugrave,
Uhungarumlaut,
Umacron,
Uogonek,
Uring,
Utilde,
V,
W,
Wacute,
Wcircumflex,
Wdieresis,
Wgrave,
X,
Y,
Yacute,
Ycircumflex,
Ydieresis,
Ygrave,
uni1EF8,
Z,
Zacute,
Zcaron,
Zdotaccent,
uniA78B,
a,
aacute,
abreve,
uni01CE,
acircumflex,
adieresis,
agrave,
amacron,
aogonek,
aring,
atilde,
ae,
aeacute,
b,
c,
cacute,
ccaron,
ccedilla,
cdotaccent,
d,
dcaron,
dcroat,
eth,
e,
eacute,
ebreve,
ecaron,
ecircumflex,
edieresis,
edotaccent,
egrave,
emacron,
eogonek,
uni1EBD,
uni0259,
f,
g,
gbreve,
uni0123,
gdotaccent,
h,
hbar,
i,
dotlessi,
iacute,
ibreve,
icircumflex,
idieresis,
i.loclTRK,
igrave,
imacron,
iogonek,
itilde,
ij,
j,
uni0237,
uni006A0301,
k,
uni0137,
l,
lacute,
lcaron,
uni013C,
ldot,
lslash,
m,
n,
nacute,
ncaron,
uni0146,
ntilde,
eng,
o,
oacute,
obreve,
ocircumflex,
odieresis,
ograve,
ohungarumlaut,
omacron,
oslash,
otilde,
oe,
p,
thorn,
q,
r,
racute,
rcaron,

glyphs = (
{
glyphname = .notdef;
layers = (
{
layerId = m01;
shapes = (
{
closed = 1;
nodes = (
(14,0,l),
(415,0,l),
(539,700,l),
(138,700,l)
);
},
{
closed = 1;
nodes = (
(94,57,l),
(198,643,l),
(459,643,l),
(355,57,l)
);
}
);
userData = {
assembly = "NPUSHB[ ]	/* 39 values pushed */
4 1 1 0 2 3 1 2 103 0 3 0 0 3 87 0 3 3 0 95 0 0 3 0 79 0 0 7 6 5 4 0 3 0 3 17 5 6 23
CALL[ ]	/* CallFunction */";
};
width = 517;
}
);
note = .notdef;
},
{
glyphname = A;
kernLeft = A;
kernRight = A;
layers = (
{
anchors = (
{
name = bottom;
pos = (297,0);
},
{
name = ogonek;
pos = (625,0);
},
{
name = top;
pos = (421,700);
}
);
layerId = m01;
shapes = (
{
closed = 1;
nodes = (
(104,0,l),
(189,162,l),
(462,162,l),
(490,0,l),
(625,0,l),
(493,700,l),
(348,700,l),
(-31,0,l)
);
},
{
closed = 1;
nodes = (
(395,556,l),
(446,260,l),
(240,260,l)
);
}
);
userData = {
assembly = "NPUSHB[ ]	/* 40 values pushed */
9 1 4 0 1 76 5 1 4 0 2 1 4 2 104 0 0 0 33 77 3 1 1 1 34 1 78 8 8 8 10 8 10 17 17 17 16 6 8 26
CALL[ ]	/* CallFunction */";
};
width = 681;
}
);
note = A;
unicode = 65;
},
{
glyphname = Aogonek;
kernLeft = A;
layers = (
{
anchors = (
{
name = bottom;
pos = (297,0);
},
{
name = ogonek;
pos = (625,0);
},
{
name = top;
pos = (421,700);
}
);
layerId = m01;
shapes = (
{
closed = 1;
nodes = (
(104,0,l),
(189,162,l),
(462,162,l),
(489,8,l),
(435,-22,o),
(390,-88,o),
(390,-126,qs),
(390,-168,o),
(454,-210,o),
(506,-210,qs),
(549,-210,o),
(596,-196,q),
(609,-120,l),
(567,-135,o),
(535,-135,qs),
(514,-135,o),
(490,-117,o),
(490,-102,qs),
(490,-81,o),
(525,-46,o),
(569,-26,qs),
(625,0,l),
(493,700,l),
(348,700,l),
(-31,0,l)
);
},
{
closed = 1;
nodes = (
(395,556,l),
(446,260,l),
(240,260,l)
);
}
);
userData = {
assembly = "NPUSHB[ ]	/* 19 values pushed */
26 1 5 0 20 1 4 3 11 1 1 4 3 76 2 1 4 1 75
MPPEM[ ]	/* MeasurePixelPerEm */
PUSHB[ ]	/* 1 value pushed */
50
LT[ ]	/* LessThan */
IF[ ]	/* If */
NPUSHB[ ]	/* 30 values pushed */
6 1 5 0 3 4 5 3 104 0 0 0 33 77 0 4 4 34 77 0 1 1 2 97 0 2 2 38 2 78
ELSE[ ]	/* Else */
NPUSHB[ ]	/* 27 values pushed */
6 1 5 0 3 4 5 3 104 0 1 0 2 1 2 101 0 0 0 33 77 0 4 4 34 4 78
EIF[ ]	/* EndIf */
NPUSHB[ ]	/* 14 values pushed */
25 25 25 27 25 27 17 22 35 39 16 7 8 27
CALL[ ]	/* CallFunction */";
};
width = 681;
}
);
note = Aogonek;
unicode = 260;
},
{
glyphname = AE;
kernLeft = AE;
layers = (
{
anchors = (
{
name = bottom;
pos = (419,0);
},
{
name = top;
pos = (683,700);
}
);
layerId = m01;
shapes = (
{
closed = 1;
nodes = (
(108,0,l),
(208,138,l),
(457,138,l),
(432,0,l),
(831,0,l),
(849,101,l),
(579,101,l),
(615,306,l),
(856,306,l),
(873,405,l),
(631,405,l),
(666,599,l),
(937,599,l),
(955,700,l),
(472,700,l),
(-31,0,l)
);
},
{
closed = 1;
nodes = (
(539,602,l),
(474,237,l),
(278,237,l)
);
}
);
userData = {
assembly = "NPUSHB[ ]	/* 62 values pushed */
17 1 1 0 1 76 0 2 0 3 8 2 3 103 9 1 8 0 6 4 8 6 103 0 1 1 0 95 0 0 0 33 77 0 4 4 5 95 7 1 5 5 34 5 78 16 16 16 18 16 18 17 17 17 17 17 17 17 16 10 8 30
CALL[ ]	/* CallFunction */";
};
width = 925;
}
);
note = AE;
unicode = 198;
},
{
glyphname = B;
kernRight = B;
layers = (
{
layerId = m01;
shapes = (
{
closed = 1;
nodes = (
(305,0,ls),
(382,0,o),
(504,57,o),
(573,156,o),
(573,217,qs),
(573,269,o),
(513,358,o),
(467,375,q),
(532,399,o),
(599,492,o),
(599,547,qs),
(599,615,o),
(498,700,o),
(403,700,qs),
(138,700,l),
(14,0,l)
);
},
{
closed = 1;
nodes = (
(162,109,l),
(197,311,l),
(346,311,ls),
(395,311,o),
(444,264,o),
(444,225,qs),
(444,170,o),
(378,109,o),
(313,109,qs)
);
},
{
closed = 1;
nodes = (
(216,420,l),
(246,591,l),
(370,591,ls),
(418,591,o),
(464,550,o),
(464,516,qs),
(464,420,o),
(342,420,qs)
);
}
);
userData = {
assembly = "NPUSHB[ ]	/* 57 values pushed */
7 1 2 5 1 76 7 1 5 0 2 3 5 2 103 0 4 4 0 95 0 0 0 33 77 6 1 3 3 1 95 0 1 1 34 1 78 25 25 16 16 25 32 25 31 30 28 16 24 16 23 37 43 32 8 8 25
CALL[ ]	/* CallFunction */";
};
width = 618;
}
);
note = B;
unicode = 66;
},
{
glyphname = C;
kernLeft = C;
kernRight = B;
layers = (
{
anchors = (
{
name = bottom;
pos = (316,0);
},
{
name = top;
pos = (440,700);
}
);
layerId = m01;
shapes = (
{
closed = 1;
nodes = (
(456,-12,o),
(639,109,o),
(679,218,q),
(537,218,l),
(513,162,o),
(420,103,o),
(352,103,qs),
(270,103,o),
(179,198,o),
(179,283,qs),
(179,358,o),
(237,502,o),
(353,596,o),
(437,596,qs),
(505,596,o),
(580,532,o),
(582,474,q),
(724,474,l),
(723,587,o),
(583,712,o),
(457,712,qs),
(340,712,o),
(153,594,o),
(47,391,o),
(47,269,qs),
(47,195,o),
(106,68,o),
(233,-12,o),
(331,-12,qs)
);
}
);
userData = {
assembly = "NPUSHB[ ]	/* 51 values pushed */
0 1 2 4 2 1 4 128 0 4 3 2 4 3 126 0 2 2 0 97 0 0 0 39 77 0 3 3 5 97 6 1 5 5 40 5 78 0 0 0 28 0 27 18 37 34 18 38 7 8 27
CALL[ ]	/* CallFunction */";
};
width = 719;
}
);
note = C;
unicode = 67;
},
{
glyphname = Ccedilla;
kernLeft = C;
kernRight = Cacute;
layers = (
{
anchors = (
{
name = bottom;
pos = (269,-263);
},
{
name = top;
pos = (440,700);
}
);
layerId = m01;
shapes = (
{
closed = 1;
nodes = (
(308,-263,ls),
(369,-263,o),
(459,-195,o),
(459,-134,qs),
(459,-92,o),
(395,-48,o),
(346,-50,q),
(353,-12,l),
(470,-6,o),
(641,114,o),
(679,218,q),
(537,218,l),
(513,162,o),
(420,103,o),
(352,103,qs),
(270,103,o),
(179,198,o),
(179,283,qs),
(179,358,o),
(237,502,o),
(353,596,o),
(437,596,qs),
(505,596,o),
(580,532,o),
(582,474,q),
(724,474,l),
(723,587,o),
(583,712,o),
(457,712,qs),
(340,712,o),
(153,594,o),
(47,391,o),
(47,269,qs),
(47,203,o),
(94,86,o),
(196,3,o),
(274,-8,q),
(254,-118,l),
(315,-118,ls),
(363,-118,o),
(363,-147,qs),
(362,-168,o),
(328,-189,o),
(302,-189,qs),
(190,-189,l),
(177,-263,l)
);
}
);
userData = {
assembly = "NPUSHB[ ]	/* 71 values pushed */
8 1 7 5 1 76 0 3 4 6 4 3 6 128 0 6 5 4 6 5 126 0 8 0 1 0 8 1 105 0 0 0 9 0 9 99 0 4 4 2 97 0 2 2 39 77 0 5 5 7 97 0 7 7 40 7 78 45 43 17 18 18 37 34 18 40 35 32 10 8 31
CALL[ ]	/* CallFunction */";
};
width = 719;
}
);
note = Ccedilla;
unicode = 199;
},
{
glyphname = D;
kernRight = B;
layers = (
{
anchors = (
{
name = bottom;
pos = (304,0);
},
{
name = top;
pos = (428,700);
}
);
layerId = m01;
shapes = (
{
closed = 1;
nodes = (
(138,700,l),
(15,0,l),
(254,0,ls),
(364,0,o),
(560,90,o),
(683,277,o),
(683,415,qs),
(683,550,o),
(531,700,o),
(377,700,qs)
);
},
{
closed = 1;
nodes = (
(162,110,l),
(247,591,l),
(352,591,ls),
(454,591,o),
(551,498,o),
(551,404,qs),
(551,323,o),
(493,191,o),
(366,110,o),
(267,110,qs)
);
}
);
userData = {
assembly = "NPUSHB[ ]	/* 41 values pushed */
0 2 2 1 95 4 1 1 1 33 77 5 1 3 3 0 95 0 0 0 34 0 78 10 10 0 0 10 19 10 18 17 15 0 9 0 8 37 6 8 23
CALL[ ]	/* CallFunction */";
};
width = 696;
}
);
note = D;
unicode = 68;
},
{
glyphname = Dcroat;
kernRight = B;
layers = (
{
layerId = m01;
shapes = (
{
closed = 1;
nodes = (
(21,0,l),
(261,0,ls),
(389,0,o),
(487,53,qs),
(584,106,o),
(689,293,o),
(689,415,qs),
(689,550,o),
(537,700,o),
(384,700,qs),
(144,700,l),
(93,405,l),
(18,405,l),
(-1,295,l),
(73,295,l)
);
},
{
closed = 1;
nodes = (
(169,110,l),
(201,295,l),
(378,295,l),
(397,405,l),
(221,405,l),
(254,591,l),
(359,591,ls),
(460,591,o),
(558,498,o),
(558,404,qs),
(558,314,o),
(525,248,qs),
(491,181,o),
(363,110,o),
(274,110,qs)
);
}
);
userData = {
assembly = "NPUSHB[ ]	/* 57 values pushed */
5 1 0 6 8 2 3 7 0 3 103 0 4 4 1 95 0 1 1 33 77 9 1 7 7 2 95 0 2 2 34 2 78 15 15 0 0 15 29 15 28 27 26 25 24 23 21 0 14 0 14 38 33 17 10 8 25
CALL[ ]	/* CallFunction */";
};
width = 703;
}
);
note = Dcroat;
unicode = 272;
},
{
glyphname = Eth;
kernRight = B;
layers = (
{
layerId = m01;
shapes = (
{
closed = 1;
nodes = (
(21,0,l),
(261,0,ls),
(389,0,o),
(487,53,qs),
(584,106,o),
(689,293,o),
(689,415,qs),
(689,550,o),
(537,700,o),
(384,700,qs),
(144,700,l),
(93,405,l),
(18,405,l),
(-1,295,l),
(73,295,l)
);
},
{
closed = 1;
nodes = (
(169,110,l),
(201,295,l),
(378,295,l),
(397,405,l),
(221,405,l),
(254,591,l),
(359,591,ls),
(460,591,o),
(558,498,o),
(558,404,qs),
(558,314,o),
(525,248,qs),
(491,181,o),
(363,110,o),
(274,110,qs)
);
}
);
userData = {
assembly = "NPUSHB[ ]	/* 57 values pushed */
5 1 0 6 8 2 3 7 0 3 103 0 4 4 1 95 0 1 1 33 77 9 1 7 7 2 95 0 2 2 34 2 78 15 15 0 0 15 29 15 28 27 26 25 24 23 21 0 14 0 14 38 33 17 10 8 25
CALL[ ]	/* CallFunction */";
};
width = 703;
}
);
note = Eth;
unicode = 208;
},
{
glyphname = E;
kernRight = E;
layers = (
{
anchors = (
{
name = bottom;
pos = (229,0);
},
{
name = ogonek;
pos = (453,0);
},
{
name = top;
pos = (353,700);
}
);
layerId = m01;
shapes = (
{
closed = 1;
nodes = (
(453,0,l),
(473,109,l),
(162,109,l),
(198,315,l),
(463,315,l),
(482,424,l),
(217,424,l),
(246,591,l),
(557,591,l),
(577,700,l),
(138,700,l),
(14,0,l)
);
}
);
userData = {
assembly = "NPUSHB[ ]	/* 38 values pushed */
0 2 0 3 4 2 3 103 0 1 1 0 95 0 0 0 33 77 0 4 4 5 95 0 5 5 34 5 78 17 17 17 17 17 16 6 8 28
CALL[ ]	/* CallFunction */";
};
width = 545;
}
);
note = E;
unicode = 69;
},
{
glyphname = Eogonek;
layers = (
{
anchors = (
{
name = bottom;
pos = (229,0);
},
{
name = ogonek;
pos = (453,0);
},
{
name = top;
pos = (353,700);
}
);
layerId = m01;
shapes = (
{
closed = 1;
nodes = (
(303,0,l),
(257,-28,o),
(218,-90,o),
(218,-126,qs),
(218,-168,o),
(282,-210,o),
(334,-210,qs),
(377,-210,o),
(424,-196,q),
(437,-120,l),
(395,-135,o),
(363,-135,qs),
(342,-135,o),
(318,-117,o),
(318,-102,qs),
(318,-81,o),
(353,-46,o),
(397,-26,qs),
(453,0,l),
(473,109,l),
(162,109,l),
(198,315,l),
(463,315,l),
(482,424,l),
(217,424,l),
(246,591,l),
(557,591,l),
(577,700,l),
(138,700,l),
(14,0,l)
);
}
);
userData = {
assembly = "PUSHB[ ]	/* 6 values pushed */
19 1 5 7 1 76
MPPEM[ ]	/* MeasurePixelPerEm */
PUSHB[ ]	/* 1 value pushed */
50
LT[ ]	/* LessThan */
IF[ ]	/* If */
NPUSHB[ ]	/* 39 values pushed */
0 2 0 3 4 2 3 103 0 1 1 0 95 0 0 0 33 77 0 4 4 7 95 0 7 7 34 77 0 5 5 6 97 0 6 6 38 6 78
ELSE[ ]	/* Else */
NPUSHB[ ]	/* 36 values pushed */
0 2 0 3 4 2 3 103 0 5 0 6 5 6 101 0 1 1 0 95 0 0 0 33 77 0 4 4 7 95 0 7 7 34 7 78
EIF[ ]	/* EndIf */
NPUSHB[ ]	/* 11 values pushed */
21 35 39 17 17 17 17 16 8 8 30
CALL[ ]	/* CallFunction */";
};
width = 545;
}
);
note = Eogonek;
unicode = 280;
},
{
glyphname = uni018E;
layers = (
{
layerId = m01;
shapes = (
{
closed = 1;
nodes = (
(452,0,l),
(576,700,l),
(127,700,l),
(107,591,l),
(428,591,l),
(399,424,l),
(124,424,l),
(105,315,l),
(380,315,l),
(344,109,l),
(23,109,l),
(3,0,l)
);
}
);
userData = {
assembly = "NPUSHB[ ]	/* 38 values pushed */
0 2 0 1 0 2 1 103 0 3 3 4 95 0 4 4 33 77 0 0 0 5 95 0 5 5 34 5 78 17 17 17 17 17 16 6 8 28
CALL[ ]	/* CallFunction */";
};
width = 554;
}
);
note = uni018E;
unicode = (398,477);
},
{
glyphname = uni018F;
kernLeft = uni018F;
kernRight = B;
layers = (
{
layerId = m01;
shapes = (
{
closed = 1;
nodes = (
(444,-12,o),
(633,109,o),
(736,314,o),
(736,433,qs),
(736,506,o),
(673,633,o),
(544,712,o),
(449,712,qs),
(379,712,o),
(238,663,o),
(118,556,o),
(83,474,q),
(223,474,l),
(252,531,o),
(364,596,o),
(431,596,qs),
(510,596,o),
(602,503,o),
(602,424,qs),
(602,402,o),
(600,388,q),
(63,388,l),
(43,322,o),
(43,261,qs),
(43,183,o),
(111,59,o),
(238,-12,o),
(323,-12,qs)
);
},
{
closed = 1;
nodes = (
(263,105,o),
(173,186,o),
(173,258,qs),
(173,278,o),
(176,296,q),
(585,296,l),
(574,246,o),
(507,159,o),
(404,105,o),
(340,105,qs)
);
}
);
userData = {
assembly = "NPUSHB[ ]	/* 60 values pushed */
0 2 1 0 1 2 0 128 0 0 0 5 6 0 5 103 0 1 1 3 97 0 3 3 39 77 8 1 6 6 4 97 7 1 4 4 40 4 78 28 28 0 0 28 37 28 36 32 31 0 27 0 26 35 18 36 21 9 8 26
CALL[ ]	/* CallFunction */";
};
width = 747;
}
);
note = uni018F;
unicode = 399;
},
{
glyphname = F;
kernRight = F;
layers = (
{
layerId = m01;
shapes = (
{
closed = 1;
nodes = (
(142,0,l),
(196,307,l),
(470,307,l),
(490,416,l),
(216,416,l),
(246,591,l),
(559,591,l),
(579,700,l),
(138,700,l),
(14,0,l)
);
}
);
userData = {
assembly = "NPUSHB[ ]	/* 32 values pushed */
0 2 0 3 4 2 3 103 0 1 1 0 95 0 0 0 33 77 0 4 4 34 4 78 17 17 17 17 16 5 8 27
CALL[ ]	/* CallFunction */";
};
width = 525;
}
);
note = F;
unicode = 70;
},
{
glyphname = G;
kernLeft = C;
kernRight = G;
layers = (
{
anchors = (
{
name = bottom;
pos = (335,0);
},
{
name = top;
pos = (459,700);
}
);
layerId = m01;
shapes = (
{
closed = 1;
nodes = (
(401,-12,o),
(511,40,o),
(555,92,q),
(551,0,l),
(667,0,l),
(734,378,l),
(379,378,l),
(359,270,l),
(583,270,l),
(556,191,o),
(442,102,o),
(355,102,qs),
(273,102,o),
(181,203,o),
(181,291,qs),
(181,368,o),
(239,507,o),
(360,594,o),
(449,594,qs),
(515,594,o),
(591,539,o),
(598,490,q),
(741,490,l),
(736,594,o),
(590,712,o),
(467,712,qs),
(348,712,o),
(158,603,o),
(49,407,o),
(49,281,qs),
(49,205,o),
(108,72,o),
(232,-12,o),
(323,-12,qs)
);
}
);
userData = {
assembly = "PUSHB[ ]	/* 6 values pushed */
30 1 6 3 1 76
MPPEM[ ]	/* MeasurePixelPerEm */
PUSHB[ ]	/* 1 value pushed */
21
LT[ ]	/* LessThan */
IF[ ]	/* If */
NPUSHB[ ]	/* 39 values pushed */
0 1 2 5 2 1 5 128 0 5 0 4 3 5 4 103 0 2 2 0 97 0 0 0 39 77 0 3 3 6 97 8 7 2 6 6 34 6 78
ELSE[ ]	/* Else */
NPUSHB[ ]	/* 43 values pushed */
0 1 2 5 2 1 5 128 0 5 0 4 3 5 4 103 0 2 2 0 97 0 0 0 39 77 0 6 6 34 77 0 3 3 7 97 8 1 7 7 40 7 78
EIF[ ]	/* EndIf */
NPUSHB[ ]	/* 16 values pushed */
0 0 0 33 0 32 17 17 18 37 34 18 38 9 8 29
CALL[ ]	/* CallFunction */";
};
width = 757;
}
);
note = G;
unicode = 71;
},
{
glyphname = H;
layers = (
{
layerId = m01;
shapes = (
{
closed = 1;
nodes = (
(142,0,l),
(198,316,l),
(512,316,l),
(456,0,l),
(584,0,l),
(708,700,l),
(580,700,l),
(531,425,l),
(217,425,l),
(266,700,l),
(138,700,l),
(14,0,l)
);
}
);
userData = {
assembly = "NPUSHB[ ]	/* 30 values pushed */
0 1 0 4 3 1 4 104 2 1 0 0 33 77 5 1 3 3 34 3 78 17 17 17 17 17 16 6 8 28
CALL[ ]	/* CallFunction */";
};
width = 686;
}
);
note = H;
unicode = 72;
},
{
glyphname = Hbar;
layers = (
{
layerId = m01;
shapes = (
{
closed = 1;
nodes = (
(142,0,l),
(198,316,l),
(512,316,l),
(456,0,l),
(584,0,l),
(671,493,l),
(711,493,l),
(730,602,l),
(690,602,l),
(708,700,l),
(580,700,l),
(562,602,l),
(248,602,l),
(266,700,l),
(138,700,l),
(120,602,l),
(79,602,l),
(60,493,l),
(101,493,l),
(14,0,l)
);
},
{
closed = 1;
nodes = (
(229,493,l),
(543,493,l),
(531,425,l),
(217,425,l)
);
}
);
userData = {
assembly = "NPUSHB[ ]	/* 56 values pushed */
5 3 2 1 10 6 2 0 11 1 0 104 12 1 11 0 8 7 11 8 103 4 1 2 2 33 77 9 1 7 7 34 7 78 20 20 20 23 20 23 22 21 19 18 17 17 17 17 17 17 17 17 16 13 8 31
CALL[ ]	/* CallFunction */";
};
width = 685;
}
);
note = Hbar;
unicode = 294;
},
{
glyphname = I;
layers = (
{
anchors = (
{
name = bottom;
pos = (78,0);
},
{
name = ogonek;
pos = (142,0);
},
{
name = top;
pos = (202,700);
}
);
layerId = m01;
shapes = (
{
closed = 1;
nodes = (
(142,0,l),
(266,700,l),
(138,700,l),
(14,0,l)
);
}
);
userData = {
assembly = "NPUSHB[ ]	/* 16 values pushed */
0 0 0 33 77 0 1 1 34 1 78 17 16 2 8 24
CALL[ ]	/* CallFunction */";
};
width = 244;
}
);
note = I;
unicode = 73;
},
{
glyphname = Iogonek;
layers = (
{
anchors = (
{
name = bottom;
pos = (78,0);
},
{
name = ogonek;
pos = (142,0);
},
{
name = top;
pos = (202,700);
}
);
layerId = m01;
shapes = (
{
closed = 1;
nodes = (
(66,-210,o),
(113,-196,q),
(126,-120,l),
(84,-135,o),
(52,-135,qs),
(31,-135,o),
(7,-117,o),
(7,-102,qs),
(7,-81,o),
(42,-46,o),
(86,-26,qs),
(142,0,l),
(266,700,l),
(138,700,l),
(16,14,l),
(-43,-18,o),
(-93,-85,o),
(-93,-126,qs),
(-93,-168,o),
(-29,-210,o),
(23,-210,qs)
);
}
);
userData = {
assembly = "PUSHB[ ]	/* 6 values pushed */
17 1 1 0 1 76
MPPEM[ ]	/* MeasurePixelPerEm */
PUSHB[ ]	/* 1 value pushed */
50
LT[ ]	/* LessThan */
IF[ ]	/* If */
NPUSHB[ ]	/* 17 values pushed */
0 0 0 33 77 0 1 1 2 97 3 1 2 2 38 2 78
ELSE[ ]	/* Else */
NPUSHB[ ]	/* 14 values pushed */
0 1 3 1 2 1 2 101 0 0 0 33 0 78
EIF[ ]	/* EndIf */
NPUSHB[ ]	/* 11 values pushed */
0 0 0 20 0 19 39 22 4 8 24
CALL[ ]	/* CallFunction */";
};
width = 244;
}
);
note = Iogonek;
unicode = 302;
},
{
glyphname = J;
kernLeft = J;
kernRight = J;
layers = (
{
anchors = (
{
name = bottom;
pos = (207,0);
},
{
name = top;
pos = (457,700);
}
);
layerId = m01;
shapes = (
{
closed = 1;
nodes = (
(284,-12,o),
(418,98,o),
(435,196,qs),
(523,700,l),
(395,700,l),
(307,196,ls),
(299,153,o),
(247,102,o),
(206,102,qs),
(169,102,o),
(133,141,o),
(133,176,qs),
(133,192,o),
(136,208,q),
(8,208,l),
(3,178,o),
(3,157,qs),
(3,77,o),
(102,-12,o),
(188,-12,qs)
);
}
);
userData = {
assembly = "MPPEM[ ]	/* MeasurePixelPerEm */
PUSHB[ ]	/* 1 value pushed */
11
LT[ ]	/* LessThan */
IF[ ]	/* If */
NPUSHB[ ]	/* 24 values pushed */
0 0 2 1 1 0 114 0 2 2 33 77 0 1 1 3 98 4 1 3 3 40 3 78
ELSE[ ]	/* Else */
NPUSHB[ ]	/* 25 values pushed */
0 0 2 1 2 0 1 128 0 2 2 33 77 0 1 1 3 98 4 1 3 3 40 3 78
EIF[ ]	/* EndIf */
NPUSHB[ ]	/* 12 values pushed */
0 0 0 19 0 18 19 36 20 5 8 25
CALL[ ]	/* CallFunction */";
};
width = 502;
}
);
note = J;
unicode = 74;
},
{
glyphname = K;
kernRight = K;
layers = (
{
anchors = (
{
name = bottom;
pos = (270,0);
},
{
name = ogonek;
pos = (142,0);
},
{
name = top;
pos = (394,700);
}
);
layerId = m01;
shapes = (
{
closed = 1;
nodes = (
(142,0,l),
(200,330,l),
(417,0,l),
(581,0,l),
(330,356,l),
(678,700,l),
(513,700,l),
(211,388,l),
(266,700,l),
(138,700,l),
(14,0,l)
);
}
);
userData = {
assembly = "NPUSHB[ ]	/* 28 values pushed */
8 5 2 3 2 0 1 76 1 1 0 0 33 77 3 1 2 2 34 2 78 18 18 18 16 4 8 26
CALL[ ]	/* CallFunction */";
};
width = 627;
}
);
note = K;
unicode = 75;
},
{
glyphname = L;
kernRight = L;
layers = (
{
anchors = (
{
name = bottom;
pos = (218,0);
},
{
name = top;
pos = (248,700);
},
{
name = topright;
pos = (335,700);
}
);
layerId = m01;
shapes = (
{
closed = 1;
nodes = (
(444,0,l),
(464,109,l),
(162,109,l),
(266,700,l),
(138,700,l),
(14,0,l)
);
}
);
userData = {
assembly = "NPUSHB[ ]	/* 22 values pushed */
0 0 0 33 77 0 1 1 2 96 0 2 2 34 2 78 17 17 16 3 8 25
CALL[ ]	/* CallFunction */";
};
width = 524;
}
);
note = L;
unicode = 76;
},
{
glyphname = Ldot;
kernRight = L;
layers = (
{
layerId = m01;
shapes = (
{
closed = 1;
nodes = (
(444,0,l),
(464,109,l),
(162,109,l),
(266,700,l),
(138,700,l),
(14,0,l)
);
},
{
closed = 1;
nodes = (
(428,267,o),
(476,316,o),
(476,350,qs),
(476,385,o),
(428,433,o),
(393,433,qs),
(358,433,o),
(310,385,o),
(310,350,qs),
(310,315,o),
(358,267,o),
(393,267,qs)
);
}
);
userData = {
assembly = "NPUSHB[ ]	/* 38 values pushed */
0 3 5 1 4 1 3 4 105 0 0 0 33 77 0 1 1 2 96 0 2 2 34 2 78 6 6 6 17 6 16 37 17 17 16 6 8 26
CALL[ ]	/* CallFunction */";
};
width = 524;
}
);
note = Ldot;
unicode = 319;
},
{
glyphname = Lslash;
kernRight = L;
layers = (
{
layerId = m01;
shapes = (
{
closed = 1;
nodes = (
(468,0,l),
(488,109,l),
(186,109,l),
(224,327,l),
(334,361,l),
(355,484,l),
(246,449,l),
(290,700,l),
(162,700,l),
(110,406,l),
(34,382,l),
(12,260,l),
(88,284,l),
(38,0,l)
);
}
);
userData = {
assembly = "NPUSHB[ ]	/* 30 values pushed */
7 6 1 3 1 0 1 76 0 0 0 33 77 0 1 1 2 96 0 2 2 34 2 78 17 21 20 3 8 25
CALL[ ]	/* CallFunction */";
};
width = 548;
}
);
note = Lslash;
unicode = 321;
},
{
glyphname = M;
layers = (
{
layerId = m01;
shapes = (
{
closed = 1;
nodes = (
(142,0,l),
(226,472,l),
(329,89,l),
(430,89,l),
(669,472,l),
(585,0,l),
(713,0,l),
(837,700,l),
(685,700,l),
(409,248,l),
(290,700,l),
(138,700,l),
(14,0,l)
);
}
);
userData = {
assembly = "NPUSHB[ ]	/* 37 values pushed */
10 7 2 3 3 0 1 76 0 3 0 2 0 3 2 128 1 1 0 0 33 77 4 1 2 2 34 2 78 18 18 17 18 16 5 8 27
CALL[ ]	/* CallFunction */";
};
width = 815;
}
);
note = M;
unicode = 77;
},
{
glyphname = N;
kernRight = N;
layers = (
{
anchors = (
{
name = bottom;
pos = (307,0);
},
{
name = top;
pos = (431,700);
}
);
layerId = m01;
shapes = (
{
closed = 1;
nodes = (
(142,0,l),
(228,488,l),
(471,0,l),
(599,0,l),
(723,700,l),
(595,700,l),
(508,211,l),
(266,700,l),
(138,700,l),
(14,0,l)
);
}
);
userData = {
assembly = "NPUSHB[ ]	/* 27 values pushed */
7 2 2 2 0 1 76 1 1 0 0 33 77 3 1 2 2 34 2 78 18 17 18 16 4 8 26
CALL[ ]	/* CallFunction */";
};
width = 701;
}
);
note = N;
unicode = 78;
},
{
glyphname = Eng;
layers = (
{
anchors = (
{
name = bottom;
pos = (307,0);
},
{
name = top;
pos = (431,700);
}
);
layerId = m01;
shapes = (
{
closed = 1;
nodes = (
(142,0,l),
(228,488,l),
(472,0,l),
(462,-54,ls),
(456,-85,o),
(423,-111,o),
(391,-111,qs),
(364,-111,l),
(345,-220,l),
(392,-220,ls),
(561,-220,o),
(590,-54,qs),
(723,700,l),
(595,700,l),
(509,211,l),
(266,700,l),
(138,700,l),
(15,0,l)
);
}
);
userData = {
assembly = "NPUSHB[ ]	/* 42 values pushed */
15 2 2 4 0 1 76 14 1 4 1 75 1 1 0 0 33 77 0 4 4 34 77 0 3 3 2 97 0 2 2 38 2 78 21 33 34 18 16 5 8 27
CALL[ ]	/* CallFunction */";
};
width = 701;
}
);
note = Eng;
unicode = 330;
},
{
glyphname = O;
kernLeft = C;
kernRight = B;
layers = (
{
anchors = (
{
name = bottom;
pos = (348,0);
},
{
name = ogonek;
pos = (433,10);
},
{
name = top;
pos = (472,700);
},
{
name = topright;
pos = (854,700);
}
);
layerId = m01;
shapes = (
{
closed = 1;
nodes = (
(466,-12,o),
(659,101,o),
(771,295,o),
(771,411,qs),
(771,489,o),
(702,627,o),
(566,712,o),
(469,712,qs),
(354,712,o),
(162,599,o),
(49,405,o),
(49,290,qs),
(49,209,o),
(121,71,o),
(258,-12,o),
(351,-12,qs)
);
},
{
closed = 1;
nodes = (
(281,104,o),
(181,211,o),
(181,301,qs),
(181,381,o),
(254,517,o),
(379,597,o),
(454,597,qs),
(540,597,o),
(639,491,o),
(639,400,qs),
(639,319,o),
(566,183,o),
(441,104,o),
(367,104,qs)
);
}
);
userData = {
assembly = "NPUSHB[ ]	/* 41 values pushed */
0 2 2 0 97 0 0 0 39 77 5 1 3 3 1 97 4 1 1 1 40 1 78 16 16 0 0 16 29 16 28 23 21 0 15 0 14 38 6 8 23
CALL[ ]	/* CallFunction */";
};
width = 784;
}
);
note = O;
unicode = 79;
},
{
glyphname = Oslash;
kernLeft = Oslash;
layers = (
{
layerId = m01;
shapes = (
{
closed = 1;
nodes = (
(461,-12,o),
(654,101,o),
(766,295,o),
(766,411,qs),
(766,517,o),
(711,592,q),
(824,700,l),
(702,700,l),
(652,652,l),
(615,681,o),
(519,712,o),
(464,712,qs),
(350,712,o),
(158,600,o),
(45,407,o),
(45,290,qs),
(45,190,o),
(95,115,q),
(-23,0,l),
(99,0,l),
(153,52,l),
(235,-12,o),
(346,-12,qs)
);
},
{
closed = 1;
nodes = (
(293,103,o),
(244,141,q),
(615,498,l),
(634,457,o),
(634,400,qs),
(634,319,o),
(561,183,o),
(436,103,o),
(362,103,qs)
);
},
{
closed = 1;
nodes = (
(193,209,l),
(177,248,o),
(177,301,qs),
(177,381,o),
(249,517,o),
(374,597,o),
(449,597,qs),
(515,597,o),
(561,565,q)
);
}
);
userData = {
assembly = "MPPEM[ ]	/* MeasurePixelPerEm */
PUSHB[ ]	/* 1 value pushed */
21
LT[ ]	/* LessThan */
IF[ ]	/* If */
NPUSHB[ ]	/* 19 values pushed */
13 1 5 1 40 39 29 28 16 4 6 4 5 1 1 0 4 3 76
ELSE[ ]	/* Else */
NPUSHB[ ]	/* 19 values pushed */
13 1 5 2 40 39 29 28 16 4 6 4 5 1 1 0 4 3 76
EIF[ ]	/* EndIf */
MPPEM[ ]	/* MeasurePixelPerEm */
PUSHB[ ]	/* 1 value pushed */
21
LT[ ]	/* LessThan */
IF[ ]	/* If */
NPUSHB[ ]	/* 25 values pushed */
0 5 5 1 97 2 1 1 1 39 77 7 1 4 4 0 97 6 3 2 0 0 34 0 78
ELSE[ ]	/* Else */
NPUSHB[ ]	/* 33 values pushed */
0 2 2 33 77 0 5 5 1 97 0 1 1 39 77 0 0 0 34 77 7 1 4 4 3 97 6 1 3 3 40 3 78
EIF[ ]	/* EndIf */
NPUSHB[ ]	/* 20 values pushed */
23 23 0 0 34 32 23 31 23 30 0 22 0 21 19 38 18 8 8 25
CALL[ ]	/* CallFunction */";
};
width = 766;
}
);
note = Oslash;
unicode = 216;
},
{
glyphname = OE;
kernLeft = C;
layers = (
{
anchors = (
{
name = bottom;
pos = (507,0);
},
{
name = top;
pos = (631,700);
}
);
layerId = m01;
shapes = (
{
closed = 1;
nodes = (
(401,-12,o),
(537,45,o),
(584,96,q),
(567,0,l),
(1006,0,l),
(1026,109,l),
(715,109,l),
(751,315,l),
(1016,315,l),
(1035,424,l),
(770,424,l),
(799,591,l),
(1110,591,l),
(1130,700,l),
(691,700,l),
(673,600,l),
(643,652,o),
(522,712,o),
(449,712,qs),
(342,712,o),
(158,600,o),
(50,408,o),
(50,296,qs),
(50,221,o),
(111,80,o),
(239,-12,o),
(333,-12,qs)
);
},
{
closed = 1;
nodes = (
(309,103,o),
(227,156,o),
(183,248,o),
(183,305,qs),
(183,382,o),
(254,517,o),
(375,597,o),
(446,597,qs),
(529,597,o),
(633,493,o),
(633,405,qs),
(633,324,o),
(561,186,o),
(437,103,o),
(363,103,qs)
);
}
);
userData = {
assembly = "MPPEM[ ]	/* MeasurePixelPerEm */
PUSHB[ ]	/* 1 value pushed */
21
LT[ ]	/* LessThan */
IF[ ]	/* If */
NPUSHB[ ]	/* 10 values pushed */
10 1 2 0 23 1 6 5 2 76
ELSE[ ]	/* Else */
MPPEM[ ]	/* MeasurePixelPerEm */
PUSHB[ ]	/* 1 value pushed */
39
LT[ ]	/* LessThan */
IF[ ]	/* If */
NPUSHB[ ]	/* 10 values pushed */
10 1 2 1 23 1 6 5 2 76
ELSE[ ]	/* Else */
NPUSHB[ ]	/* 10 values pushed */
10 1 8 1 23 1 6 9 2 76
EIF[ ]	/* EndIf */
EIF[ ]	/* EndIf */
MPPEM[ ]	/* MeasurePixelPerEm */
PUSHB[ ]	/* 1 value pushed */
21
LT[ ]	/* LessThan */
IF[ ]	/* If */
NPUSHB[ ]	/* 35 values pushed */
0 3 0 4 5 3 4 103 8 1 2 2 0 97 1 1 0 0 39 77 11 9 2 5 5 6 97 10 7 2 6 6 34 6 78
ELSE[ ]	/* Else */
MPPEM[ ]	/* MeasurePixelPerEm */
PUSHB[ ]	/* 1 value pushed */
39
LT[ ]	/* LessThan */
IF[ ]	/* If */
NPUSHB[ ]	/* 56 values pushed */
0 3 0 4 5 3 4 103 8 1 2 2 0 97 0 0 0 39 77 8 1 2 2 1 95 0 1 1 33 77 11 9 2 5 5 6 95 0 6 6 34 77 11 9 2 5 5 7 97 10 1 7 7 40 7 78
ELSE[ ]	/* Else */
NPUSHB[ ]	/* 51 values pushed */
0 3 0 4 5 3 4 103 0 8 8 0 97 0 0 0 39 77 0 2 2 1 95 0 1 1 33 77 0 5 5 6 95 0 6 6 34 77 11 1 9 9 7 97 10 1 7 7 40 7 78
EIF[ ]	/* EndIf */
EIF[ ]	/* EndIf */
NPUSHB[ ]	/* 24 values pushed */
27 27 0 0 27 41 27 40 34 32 0 26 0 25 17 17 17 17 17 19 38 12 8 29
CALL[ ]	/* CallFunction */";
};
width = 1101;
}
);
note = OE;
unicode = 338;
},
{
glyphname = P;
kernRight = P;
layers = (
{
layerId = m01;
shapes = (
{
closed = 1;
nodes = (
(142,0,l),
(191,279,l),
(322,279,ls),
(410,279,o),
(541,339,o),
(612,447,o),
(612,518,qs),
(612,572,o),
(559,655,o),
(461,700,o),
(397,700,qs),
(138,700,l),
(14,0,l)
);
},
{
closed = 1;
nodes = (
(211,388,l),
(246,591,l),
(374,591,ls),
(424,591,o),
(480,544,o),
(480,502,qs),
(480,446,o),
(408,388,o),
(339,388,qs)
);
}
);
userData = {
assembly = "NPUSHB[ ]	/* 38 values pushed */
5 1 4 0 1 2 4 1 103 0 3 3 0 95 0 0 0 33 77 0 2 2 34 2 78 13 13 13 21 13 20 37 17 38 32 6 8 26
CALL[ ]	/* CallFunction */";
};
width = 589;
}
);
note = P;
unicode = 80;
},
{
glyphname = Thorn;
kernRight = Thorn;
layers = (
{
layerId = m01;
shapes = (
{
closed = 1;
nodes = (
(143,0,l),
(167,136,l),
(298,136,ls),
(380,136,o),
(512,193,o),
(588,304,o),
(588,382,qs),
(588,469,o),
(469,565,o),
(373,565,qs),
(242,565,l),
(266,700,l),
(138,700,l),
(15,0,l)
);
},
{
closed = 1;
nodes = (
(185,239,l),
(224,460,l),
(348,460,ls),
(456,460,o),
(456,377,qs),
(456,312,o),
(378,239,o),
(309,239,qs)
);
}
);
userData = {
assembly = "NPUSHB[ ]	/* 42 values pushed */
0 1 0 4 5 1 4 104 6 1 5 0 2 3 5 2 103 0 0 0 33 77 0 3 3 34 3 78 14 14 14 21 14 20 36 17 37 33 16 7 8 27
CALL[ ]	/* CallFunction */";
};
width = 590;
}
);
note = Thorn;
unicode = 222;
},
{
glyphname = Q;
kernLeft = C;
kernRight = Q;
layers = (
{
layerId = m01;
shapes = (
{
closed = 1;
nodes = (
(473,-12,o),
(576,53,q),
(631,-12,l),
(731,76,l),
(675,140,l),
(721,196,o),
(771,335,o),
(771,411,qs),
(771,489,o),
(702,627,o),
(566,712,o),
(469,712,qs),
(354,712,o),
(162,599,o),
(49,405,o),
(49,290,qs),
(49,209,o),
(121,71,o),
(258,-12,o),
(351,-12,qs)
);
},
{
closed = 1;
nodes = (
(181,381,o),
(254,517,o),
(379,597,o),
(454,597,qs),
(540,597,o),
(639,491,o),
(639,400,qs),
(639,309,o),
(593,234,q),
(512,331,l),
(412,243,l),
(500,140,l),
(436,103,o),
(367,103,qs),
(281,103,o),
(181,211,o),
(181,301,qs)
);
}
);
userData = {
assembly = "NPUSHB[ ]	/* 55 values pushed */
27 26 25 24 14 5 2 3 17 15 2 1 2 2 76 16 1 1 73 0 3 3 0 97 0 0 0 39 77 0 2 2 1 97 4 1 1 1 40 1 78 0 0 33 31 23 21 0 19 0 18 38 5 8 23
CALL[ ]	/* CallFunction */";
};
width = 796;
}
);
note = Q;
unicode = 81;
},
{
glyphname = R;
kernRight = R;
layers = (
{
anchors = (
{
name = bottom;
pos = (255,0);
},
{
name = top;
pos = (379,700);
}
);
layerId = m01;
shapes = (
{
closed = 1;
nodes = (
(142,0,l),
(194,295,l),
(272,295,l),
(392,0,l),
(543,0,l),
(404,316,l),
(497,338,o),
(589,450,o),
(589,527,qs),
(589,605,o),
(477,700,o),
(381,700,qs),
(138,700,l),
(14,0,l)
);
},
{
closed = 1;
nodes = (
(214,404,l),
(246,591,l),
(358,591,ls),
(410,591,o),
(457,544,o),
(457,509,qs),
(457,456,o),
(394,404,o),
(326,404,qs)
);
}
);
userData = {
assembly = "NPUSHB[ ]	/* 46 values pushed */
7 1 2 5 1 76 6 1 5 0 2 1 5 2 103 0 4 4 0 95 0 0 0 33 77 3 1 1 1 34 1 78 14 14 14 22 14 21 37 17 17 22 32 7 8 27
CALL[ ]	/* CallFunction */";
};
width = 597;
}
);
note = R;
unicode = 82;
},
{
glyphname = S;
kernLeft = S;
kernRight = S;
layers = (
{
anchors = (
{
name = bottom;
pos = (248,0);
},
{
name = top;
pos = (372,700);
}
);
layerId = m01;
shapes = (
{
closed = 1;
nodes = (
(341,-12,o),
(468,45,o),
(539,150,o),
(539,219,qs),
(539,285,o),
(455,375,o),
(382,401,qs),
(325,422,o),
(271,445,o),
(253,462,qs),
(233,480,o),
(233,511,qs),
(233,552,o),
(293,604,o),
(343,604,qs),
(387,604,o),
(437,559,o),
(437,527,qs),
(437,516,o),
(436,510,q),
(573,510,l),
(575,541,l),
(575,619,o),
(460,712,o),
(364,712,qs),
(286,712,o),
(163,656,o),
(95,554,o),
(95,488,qs),
(95,431,o),
(165,347,o),
(231,323,qs),
(254,315,ls),
(313,294,o),
(368,268,o),
(400,231,o),
(400,202,qs),
(400,154,o),
(333,95,o),
(276,95,qs),
(225,95,o),
(163,148,o),
(163,191,q),
(164,201,o),
(164,211,q),
(28,211,l),
(25,193,o),
(25,172,qs),
(25,87,o),
(153,-12,o),
(260,-12,qs)
);
}
);
userData = {
assembly = "PUSHB[ ]	/* 6 values pushed */
7 1 1 0 1 76
MPPEM[ ]	/* MeasurePixelPerEm */
PUSHB[ ]	/* 1 value pushed */
11
LT[ ]	/* LessThan */
IF[ ]	/* If */
NPUSHB[ ]	/* 35 values pushed */
0 3 4 0 4 3 114 0 0 1 1 0 112 0 4 4 2 97 0 2 2 39 77 0 1 1 5 98 6 1 5 5 40 5 78
ELSE[ ]	/* Else */
MPPEM[ ]	/* MeasurePixelPerEm */
PUSHB[ ]	/* 1 value pushed */
13
LT[ ]	/* LessThan */
IF[ ]	/* If */
NPUSHB[ ]	/* 36 values pushed */
0 3 4 0 4 3 114 0 0 1 4 0 1 126 0 4 4 2 97 0 2 2 39 77 0 1 1 5 98 6 1 5 5 40 5 78
ELSE[ ]	/* Else */
NPUSHB[ ]	/* 37 values pushed */
0 3 4 0 4 3 0 128 0 0 1 4 0 1 126 0 4 4 2 97 0 2 2 39 77 0 1 1 5 98 6 1 5 5 40 5 78
EIF[ ]	/* EndIf */
EIF[ ]	/* EndIf */
NPUSHB[ ]	/* 14 values pushed */
0 0 0 50 0 49 36 19 45 36 20 7 8 27
CALL[ ]	/* CallFunction */";
};
width = 584;
}
);
note = S;
unicode = 83;
},
{
glyphname = Scedilla;
kernLeft = S;
kernRight = S;
layers = (
{
anchors = (
{
name = bottom;
pos = (201,-263);
},
{
name = top;
pos = (372,700);
}
);
layerId = m01;
shapes = (
{
closed = 1;
nodes = (
(240,-263,ls),
(301,-263,o),
(391,-195,o),
(391,-134,qs),
(391,-92,o),
(327,-48,o),
(278,-50,q),
(285,-11,l),
(360,-7,o),
(475,53,o),
(539,154,o),
(539,219,qs),
(539,285,o),
(455,375,o),
(382,401,qs),
(325,422,o),
(271,445,o),
(253,462,qs),
(233,480,o),
(233,511,qs),
(233,552,o),
(293,604,o),
(343,604,qs),
(387,604,o),
(437,559,o),
(437,527,qs),
(437,516,o),
(436,510,q),
(573,510,l),
(575,541,l),
(575,619,o),
(460,712,o),
(364,712,qs),
(286,712,o),
(163,656,o),
(95,554,o),
(95,488,qs),
(95,431,o),
(165,347,o),
(231,323,qs),
(254,315,ls),
(313,294,o),
(368,268,o),
(400,231,o),
(400,202,qs),
(400,154,o),
(333,95,o),
(276,95,qs),
(225,95,o),
(163,148,o),
(163,191,q),
(164,201,o),
(164,211,q),
(28,211,l),
(25,193,o),
(25,172,qs),
(25,99,o),
(121,4,o),
(206,-8,q),
(186,-118,l),
(247,-118,ls),
(295,-118,o),
(295,-147,qs),
(294,-168,o),
(260,-189,o),
(234,-189,qs),
(122,-189,l),
(109,-263,l)
);
}
);
userData = {
assembly = "NPUSHB[ ]	/* 10 values pushed */
16 1 3 2 8 1 7 3 2 76
MPPEM[ ]	/* MeasurePixelPerEm */
PUSHB[ ]	/* 1 value pushed */
13
LT[ ]	/* LessThan */
IF[ ]	/* If */
NPUSHB[ ]	/* 50 values pushed */
0 5 6 2 6 5 114 0 2 3 6 2 3 126 0 8 0 1 0 8 1 105 0 0 0 9 0 9 100 0 6 6 4 97 0 4 4 39 77 0 3 3 7 97 0 7 7 40 7 78
ELSE[ ]	/* Else */
NPUSHB[ ]	/* 51 values pushed */
0 5 6 2 6 5 2 128 0 2 3 6 2 3 126 0 8 0 1 0 8 1 105 0 0 0 9 0 9 100 0 6 6 4 97 0 4 4 39 77 0 3 3 7 97 0 7 7 40 7 78
EIF[ ]	/* EndIf */
NPUSHB[ ]	/* 14 values pushed */
67 65 17 29 36 19 45 36 22 35 32 10 8 31
CALL[ ]	/* CallFunction */";
};
width = 584;
}
);
note = Scedilla;
unicode = 350;
},
{
glyphname = uni1E9E;
layers = (
{
layerId = m01;
shapes = (
{
closed = 1;
nodes = (
(477,-10,o),
(582,39,o),
(639,126,o),
(639,180,qs),
(639,233,o),
(586,297,o),
(525,321,qs),
(473,339,o),
(433,365,o),
(433,382,qs),
(433,399,o),
(461,424,o),
(492,445,qs),
(522,463,o),
(537,475,qs),
(593,518,o),
(593,580,qs),
(593,622,o),
(541,692,o),
(445,732,o),
(381,732,qs),
(255,732,o),
(107,607,o),
(89,509,qs),
(-1,0,l),
(127,0,l),
(215,499,ls),
(239,625,o),
(363,625,qs),
(410,625,o),
(461,590,o),
(461,559,qs),
(461,531,o),
(422,491,o),
(381,464,qs),
(357,447,ls),
(330,428,o),
(301,384,o),
(301,355,qs),
(301,316,o),
(362,262,o),
(432,238,qs),
(476,221,o),
(511,188,o),
(511,165,qs),
(511,128,o),
(461,85,o),
(420,85,qs),
(379,85,o),
(337,133,o),
(340,175,q),
(219,175,l),
(213,90,o),
(314,-10,o),
(409,-10,qs)
);
}
);
userData = {
assembly = "MPPEM[ ]	/* MeasurePixelPerEm */
PUSHB[ ]	/* 1 value pushed */
15
LT[ ]	/* LessThan */
IF[ ]	/* If */
NPUSHB[ ]	/* 30 values pushed */
0 0 2 1 1 0 114 0 2 2 4 97 0 4 4 41 77 0 1 1 3 98 6 5 2 3 3 34 3 78
ELSE[ ]	/* Else */
MPPEM[ ]	/* MeasurePixelPerEm */
PUSHB[ ]	/* 1 value pushed */
25
LT[ ]	/* LessThan */
IF[ ]	/* If */
NPUSHB[ ]	/* 31 values pushed */
0 0 2 1 2 0 1 128 0 2 2 4 97 0 4 4 41 77 0 1 1 3 98 6 5 2 3 3 34 3 78
ELSE[ ]	/* Else */
MPPEM[ ]	/* MeasurePixelPerEm */
PUSHB[ ]	/* 1 value pushed */
29
LT[ ]	/* LessThan */
IF[ ]	/* If */
NPUSHB[ ]	/* 35 values pushed */
0 0 2 1 2 0 1 128 0 2 2 4 97 0 4 4 41 77 0 3 3 34 77 0 1 1 5 98 6 1 5 5 40 5 78
ELSE[ ]	/* Else */
NPUSHB[ ]	/* 33 values pushed */
0 0 2 1 2 0 1 128 0 4 0 2 0 4 2 105 0 3 3 34 77 0 1 1 5 98 6 1 5 5 40 5 78
EIF[ ]	/* EndIf */
EIF[ ]	/* EndIf */
EIF[ ]	/* EndIf */
NPUSHB[ ]	/* 17 values pushed */
0 0 0 54 0 53 34 32 29 28 26 24 34 18 7 8 24
CALL[ ]	/* CallFunction */";
};
width = 670;
}
);
note = uni1E9E;
unicode = 7838;
},
{
glyphname = T;
kernLeft = T;
kernRight = T;
layers = (
{
anchors = (
{
name = bottom;
pos = (241,0);
},
{
name = top;
pos = (365,700);
}
);
layerId = m01;
shapes = (
{
closed = 1;
nodes = (
(305,0,l),
(409,591,l),
(614,591,l),
(634,700,l),
(97,700,l),
(77,591,l),
(281,591,l),
(177,0,l)
);
}
);
userData = {
assembly = "NPUSHB[ ]	/* 24 values pushed */
2 1 0 0 1 95 0 1 1 33 77 0 3 3 34 3 78 17 17 17 16 4 8 26
CALL[ ]	/* CallFunction */";
};
width = 570;
}
);
note = T;
unicode = 84;
},
{
glyphname = uni0162;
kernLeft = T;
kernRight = T;
layers = (
{
anchors = (
{
name = bottom;
pos = (194,-263);
},
{
name = top;
pos = (365,700);
}
);
layerId = m01;
shapes = (
{
closed = 1;
nodes = (
(200,0,l),
(179,-118,l),
(240,-118,ls),
(288,-118,o),
(288,-147,qs),
(287,-168,o),
(253,-189,o),
(227,-189,qs),
(115,-189,l),
(102,-263,l),
(233,-263,ls),
(294,-263,o),
(384,-195,o),
(384,-134,qs),
(384,-92,o),
(320,-48,o),
(271,-50,q),
(280,0,l),
(305,0,l),
(409,591,l),
(614,591,l),
(634,700,l),
(97,700,l),
(77,591,l),
(281,591,l),
(177,0,l)
);
}
);
userData = {
assembly = "NPUSHB[ ]	/* 45 values pushed */
0 4 0 7 6 4 7 105 0 6 0 5 6 5 99 2 1 0 0 1 95 0 1 1 33 77 8 1 3 3 34 3 78 17 35 33 36 17 17 17 17 16 9 8 31
CALL[ ]	/* CallFunction */";
};
width = 570;
}
);
note = uni0162;
unicode = 354;
},
{
glyphname = U;
kernLeft = U;
kernRight = U;
layers = (
{
anchors = (
{
name = bottom;
pos = (289,0);
},
{
name = ogonek;
pos = (405,10);
},
{
name = top;
pos = (413,700);
},
{
name = topright;
pos = (736,700);
}
);
layerId = m01;
shapes = (
{
closed = 1;
nodes = (
(352,-12,o),
(488,43,o),
(590,168,o),
(608,268,qs),
(684,700,l),
(556,700,l),
(479,268,ls),
(465,188,o),
(373,106,o),
(302,106,qs),
(242,106,o),
(177,165,o),
(177,223,qs),
(177,241,o),
(182,268,qs),
(258,700,l),
(130,700,l),
(54,268,ls),
(48,232,o),
(48,201,qs),
(48,100,o),
(170,-12,o),
(279,-12,qs)
);
}
);
userData = {
assembly = "NPUSHB[ ]	/* 30 values pushed */
2 1 0 0 33 77 0 1 1 3 98 4 1 3 3 40 3 78 0 0 0 22 0 21 19 37 21 5 8 25
CALL[ ]	/* CallFunction */";
};
width = 666;
}
);
note = U;
unicode = 85;
},
{
glyphname = Uogonek;
kernLeft = U;
kernRight = U;
layers = (
{
anchors = (
{
name = bottom;
pos = (289,0);
},
{
name = ogonek;
pos = (405,10);
},
{
name = top;
pos = (413,700);
},
{
name = topright;
pos = (736,700);
}
);
layerId = m01;
shapes = (
{
closed = 1;
nodes = (
(329,-200,o),
(376,-186,q),
(389,-110,l),
(347,-125,o),
(315,-125,qs),
(294,-125,o),
(270,-107,o),
(270,-92,qs),
(270,-71,o),
(305,-36,o),
(349,-16,qs),
(401,8,l),
(479,35,o),
(589,163,o),
(608,268,qs),
(684,700,l),
(556,700,l),
(479,268,ls),
(465,188,o),
(373,106,o),
(302,106,qs),
(242,106,o),
(177,165,o),
(177,223,qs),
(177,241,o),
(182,268,qs),
(258,700,l),
(130,700,l),
(54,268,ls),
(48,232,o),
(48,201,qs),
(48,113,o),
(142,4,o),
(228,-9,q),
(170,-54,o),
(170,-116,qs),
(170,-158,o),
(234,-200,o),
(286,-200,qs)
);
}
);
userData = {
assembly = "PUSHB[ ]	/* 7 values pushed */
35 4 2 3 1 1 76
MPPEM[ ]	/* MeasurePixelPerEm */
PUSHB[ ]	/* 1 value pushed */
25
LT[ ]	/* LessThan */
IF[ ]	/* If */
NPUSHB[ ]	/* 26 values pushed */
0 1 0 3 0 1 3 128 2 1 0 0 33 77 0 3 3 4 98 5 1 4 4 38 4 78
ELSE[ ]	/* Else */
NPUSHB[ ]	/* 23 values pushed */
0 1 0 3 0 1 3 128 0 3 5 1 4 3 4 102 2 1 0 0 33 0 78
EIF[ ]	/* EndIf */
NPUSHB[ ]	/* 13 values pushed */
0 0 0 38 0 37 42 19 37 26 6 8 26
CALL[ ]	/* CallFunction */";
};
width = 666;
}
);
note = Uogonek;
unicode = 370;
},
{
glyphname = V;
kernLeft = V;
kernRight = V;
layers = (
{
layerId = m01;
shapes = (
{
closed = 1;
nodes = (
(217,0,l),
(374,0,l),
(754,700,l),
(617,700,l),
(319,132,l),
(222,700,l),
(85,700,l)
);
}
);
userData = {
assembly = "NPUSHB[ ]	/* 30 values pushed */
1 1 1 0 1 76 3 2 2 0 0 33 77 0 1 1 34 1 78 0 0 0 6 0 6 17 18 4 8 24
CALL[ ]	/* CallFunction */";
};
width = 679;
}
);
note = V;
unicode = 86;
},
{
glyphname = W;
kernLeft = W;
kernRight = W;
layers = (
{
anchors = (
{
name = bottom;
pos = (456,0);
},
{
name = top;
pos = (576,700);
}
);
layerId = m01;
shapes = (
{
closed = 1;
nodes = (
(544,509,l),
(589,0,l),
(750,0,l),
(1062,700,l),
(923,700,l),
(694,146,l),
(653,700,l),
(508,700,l),
(265,148,l),
(233,700,l),
(96,700,l),
(155,0,l),
(316,0,l)
);
}
);
userData = {
assembly = "NPUSHB[ ]	/* 36 values pushed */
11 6 3 3 3 0 1 76 2 1 2 0 0 33 77 5 4 2 3 3 34 3 78 0 0 0 12 0 12 17 18 18 17 6 8 26
CALL[ ]	/* CallFunction */";
};
width = 999;
}
);
note = W;
unicode = 87;
},
{
glyphname = X;
kernLeft = X;
kernRight = X;
layers = (
{
layerId = m01;
shapes = (
{
closed = 1;
nodes = (
(116,0,l),
(312,264,l),
(422,0,l),
(567,0,l),
(407,381,l),
(651,700,l),
(506,700,l),
(357,497,l),
(272,700,l),
(127,700,l),
(260,381,l),
(-29,0,l)
);
}
);
userData = {
assembly = "NPUSHB[ ]	/* 28 values pushed */
9 6 3 3 2 0 1 76 1 1 0 0 33 77 3 1 2 2 34 2 78 18 18 18 17 4 8 26
CALL[ ]	/* CallFunction */";
};
width = 629;
}
);
note = X;
unicode = 88;
},
{
glyphname = Y;
kernLeft = Y;
kernRight = Y;
layers = (
{
anchors = (
{
name = bottom;
pos = (256,0);
},
{
name = top;
pos = (380,700);
}
);
layerId = m01;
shapes = (
{
closed = 1;
nodes = (
(313,0,l),
(363,281,l),
(671,700,l),
(528,700,l),
(322,409,l),
(219,700,l),
(74,700,l),
(235,281,l),
(185,0,l)
);
}
);
userData = {
assembly = "NPUSHB[ ]	/* 24 values pushed */
3 1 2 0 1 76 1 1 0 0 33 77 0 2 2 34 2 78 18 18 17 3 8 25
CALL[ ]	/* CallFunction */";
};
width = 599;
}
);
note = Y;
unicode = 89;
},
{
glyphname = Z;
kernRight = Z;
layers = (
{
anchors = (
{
name = bottom;
pos = (229,0);
},
{
name = top;
pos = (353,700);
}
);
layerId = m01;
shapes = (
{
closed = 1;
nodes = (
(458,0,l),
(477,107,l),
(152,107,l),
(563,602,l),
(580,700,l),
(113,700,l),
(94,593,l),
(413,593,l),
(4,98,l),
(-14,0,l)
);
}
);
userData = {
assembly = "NPUSHB[ ]	/* 28 values pushed */
0 0 0 1 95 0 1 1 33 77 0 2 2 3 95 0 3 3 34 3 78 17 18 17 17 4 8 26
CALL[ ]	/* CallFunction */";
};
width = 546;
}
);
note = Z;
unicode = 90;
},
{
glyphname = uniA78B;
layers = (
{
layerId = m01;
shapes = (
{
closed = 1;
nodes = (
(165,210,l),
(267,700,l),
(130,700,l),
(57,210,l)
);
}
);
userData = {
assembly = "NPUSHB[ ]	/* 16 values pushed */
0 1 1 0 95 0 0 0 33 1 78 17 16 2 8 24
CALL[ ]	/* CallFunction */";
};
width = 237;
}
);
note = uniA78B;
unicode = 42891;
},
{
glyphname = a;
kernLeft = a;
kernRight = a;
layers = (
{
anchors = (
{
name = bottom;
pos = (230,0);
},
{
name = ogonek;
pos = (488,0);
},
{
name = top;
pos = (318,496);
}
);
layerId = m01;
shapes = (
{
closed = 1;
nodes = (
(171,90,o),
(136,114,o),
(136,137,qs),
(136,173,o),
(193,213,o),
(234,213,qs),
(344,213,l),
(331,158,o),
(250,90,o),
(200,90,qs)
);
},
{
closed = 1;
nodes = (
(5,60,o),
(90,-12,o),
(151,-12,qs),
(209,-12,o),
(292,29,o),
(325,66,q),
(322,0,l),
(435,0,l),
(487,292,ls),
(492,322,o),
(492,342,qs),
(492,421,o),
(396,508,o),
(306,508,qs),
(216,508,o),
(84,417,o),
(53,333,q),
(178,333,l),
(193,365,o),
(249,400,o),
(285,400,qs),
(364,400,o),
(364,323,qs),
(364,315,o),
(362,295,q),
(240,295,ls),
(175,295,o),
(68,254,o),
(5,173,o),
(5,117,qs)
);
}
);
userData = {
assembly = "PUSHB[ ]	/* 6 values pushed */
33 1 6 1 1 76
MPPEM[ ]	/* MeasurePixelPerEm */
PUSHB[ ]	/* 1 value pushed */
21
LT[ ]	/* LessThan */
IF[ ]	/* If */
NPUSHB[ ]	/* 39 values pushed */
0 4 3 2 3 4 2 128 0 2 0 0 1 2 0 103 0 3 3 5 97 0 5 5 42 77 8 1 1 1 6 97 7 1 6 6 34 6 78
ELSE[ ]	/* Else */
NPUSHB[ ]	/* 43 values pushed */
0 4 3 2 3 4 2 128 0 2 0 0 1 2 0 103 0 3 3 5 97 0 5 5 42 77 0 6 6 34 77 8 1 1 1 7 97 0 7 7 40 7 78
EIF[ ]	/* EndIf */
NPUSHB[ ]	/* 22 values pushed */
0 0 37 35 32 31 26 24 22 21 19 17 14 12 0 9 0 8 34 9 8 23
CALL[ ]	/* CallFunction */";
};
width = 516;
}
);
note = a;
unicode = 97;
},
{
glyphname = aogonek;
kernLeft = a;
kernRight = aacute;
layers = (
{
anchors = (
{
name = bottom;
pos = (230,0);
},
{
name = ogonek;
pos = (488,0);
},
{
name = top;
pos = (318,496);
}
);
layerId = m01;
shapes = (
{
closed = 1;
nodes = (
(171,90,o),
(136,114,o),
(136,137,qs),
(136,173,o),
(193,213,o),
(234,213,qs),
(344,213,l),
(331,158,o),
(250,90,o),
(200,90,qs)
);
},
{
closed = 1;
nodes = (
(412,-210,o),
(459,-196,q),
(472,-120,l),
(430,-135,o),
(398,-135,qs),
(377,-135,o),
(353,-117,o),
(353,-102,qs),
(353,-81,o),
(388,-46,o),
(432,-26,qs),
(488,0,l),
(470,60,l),
(444,50,l),
(487,292,ls),
(492,322,o),
(492,342,qs),
(492,421,o),
(396,508,o),
(306,508,qs),
(216,508,o),
(84,417,o),
(53,333,q),
(178,333,l),
(193,365,o),
(249,400,o),
(285,400,qs),
(364,400,o),
(364,323,qs),
(364,315,o),
(362,295,q),
(240,295,ls),
(175,295,o),
(68,254,o),
(5,173,o),
(5,117,qs),
(5,60,o),
(90,-12,o),
(151,-12,qs),
(209,-12,o),
(292,29,o),
(325,66,q),
(322,0,l),
(338,0,l),
(292,-28,o),
(253,-90,o),
(253,-126,qs),
(253,-168,o),
(317,-210,o),
(369,-210,qs)
);
}
);
userData = {
assembly = "MPPEM[ ]	/* MeasurePixelPerEm */
PUSHB[ ]	/* 1 value pushed */
21
LT[ ]	/* LessThan */
IF[ ]	/* If */
NPUSHB[ ]	/* 17 values pushed */
46 45 17 3 2 1 56 1 8 2 2 76 47 1 2 1 75
ELSE[ ]	/* Else */
NPUSHB[ ]	/* 17 values pushed */
46 45 17 3 2 1 56 1 8 3 2 76 47 1 2 1 75
EIF[ ]	/* EndIf */
MPPEM[ ]	/* MeasurePixelPerEm */
PUSHB[ ]	/* 1 value pushed */
21
LT[ ]	/* LessThan */
IF[ ]	/* If */
NPUSHB[ ]	/* 50 values pushed */
0 6 5 4 5 6 4 128 0 4 0 0 1 4 0 103 0 5 5 7 97 0 7 7 42 77 10 1 1 1 2 97 3 1 2 2 34 77 0 8 8 9 97 11 1 9 9 38 9 78
ELSE[ ]	/* Else */
MPPEM[ ]	/* MeasurePixelPerEm */
PUSHB[ ]	/* 1 value pushed */
50
LT[ ]	/* LessThan */
IF[ ]	/* If */
NPUSHB[ ]	/* 54 values pushed */
0 6 5 4 5 6 4 128 0 4 0 0 1 4 0 103 0 5 5 7 97 0 7 7 42 77 0 2 2 34 77 10 1 1 1 3 97 0 3 3 40 77 0 8 8 9 97 11 1 9 9 38 9 78
ELSE[ ]	/* Else */
NPUSHB[ ]	/* 51 values pushed */
0 6 5 4 5 6 4 128 0 4 0 0 1 4 0 103 0 8 11 1 9 8 9 101 0 5 5 7 97 0 7 7 42 77 0 2 2 34 77 10 1 1 1 3 97 0 3 3 40 3 78
EIF[ ]	/* EndIf */
EIF[ ]	/* EndIf */
NPUSHB[ ]	/* 30 values pushed */
10 10 0 0 10 59 10 58 55 53 40 38 36 35 33 31 28 26 21 19 16 15 0 9 0 8 34 12 8 23
CALL[ ]	/* CallFunction */";
};
width = 516;
}
);
note = aogonek;
unicode = 261;
},
{
glyphname = ae;
kernLeft = a;
kernRight = ae;
layers = (
{
anchors = (
{
name = bottom;
pos = (410,0);
},
{
name = top;
pos = (498,496);
}
);
layerId = m01;
shapes = (
{
closed = 1;
nodes = (
(247,-12,o),
(365,43,o),
(405,91,q),
(430,42,o),
(528,-12,o),
(593,-12,qs),
(670,-12,o),
(818,73,o),
(858,156,q),
(728,156,l),
(708,127,o),
(648,93,o),
(610,93,qs),
(561,93,o),
(502,150,o),
(502,200,qs),
(502,211,o),
(503,217,q),
(879,217,l),
(894,264,o),
(894,311,qs),
(894,368,o),
(845,457,o),
(750,508,o),
(685,508,qs),
(575,508,o),
(492,438,q),
(446,508,o),
(325,508,qs),
(272,508,o),
(165,471,o),
(81,391,o),
(64,331,q),
(189,331,l),
(201,366,o),
(266,404,o),
(307,404,qs),
(345,404,o),
(391,366,o),
(391,329,qs),
(391,309,o),
(387,293,q),
(247,293,ls),
(186,293,o),
(76,256,o),
(5,176,o),
(5,116,qs),
(5,57,o),
(97,-12,o),
(180,-12,qs)
);
},
{
closed = 1;
nodes = (
(181,88,o),
(144,115,o),
(144,140,qs),
(144,175,o),
(200,213,o),
(247,213,qs),
(366,213,l),
(364,201,ls),
(356,153,o),
(267,88,o),
(214,88,qs)
);
},
{
closed = 1;
nodes = (
(520,297,l),
(538,349,o),
(618,404,o),
(667,404,qs),
(713,404,o),
(767,352,o),
(767,308,qs),
(766,297,l)
);
}
);
userData = {
assembly = "MPPEM[ ]	/* MeasurePixelPerEm */
PUSHB[ ]	/* 1 value pushed */
46
LT[ ]	/* LessThan */
IF[ ]	/* If */
NPUSHB[ ]	/* 14 values pushed */
22 1 1 3 61 1 0 2 46 1 8 6 3 76
ELSE[ ]	/* Else */
NPUSHB[ ]	/* 14 values pushed */
22 1 1 3 61 1 0 2 46 1 11 6 3 76
EIF[ ]	/* EndIf */
MPPEM[ ]	/* MeasurePixelPerEm */
PUSHB[ ]	/* 1 value pushed */
46
LT[ ]	/* LessThan */
IF[ ]	/* If */
NPUSHB[ ]	/* 53 values pushed */
0 2 1 0 1 2 0 128 0 7 5 6 5 7 6 128 13 1 0 10 1 5 7 0 5 103 12 1 1 1 3 97 4 1 3 3 42 77 15 11 2 6 6 8 97 14 9 2 8 8 40 8 78
ELSE[ ]	/* Else */
NPUSHB[ ]	/* 64 values pushed */
0 2 1 0 1 2 0 128 0 7 5 6 5 7 6 128 13 1 0 10 1 5 7 0 5 103 12 1 1 1 3 97 4 1 3 3 42 77 0 6 6 8 97 14 9 2 8 8 40 77 15 1 11 11 8 97 14 9 2 8 8 40 8 78
EIF[ ]	/* EndIf */
NPUSHB[ ]	/* 30 values pushed */
50 50 0 0 68 67 65 63 50 60 50 59 55 53 0 49 0 48 34 18 36 21 34 35 18 36 37 16 8 31
CALL[ ]	/* CallFunction */";
};
width = 907;
}
);
note = ae;
unicode = 230;
},
{
glyphname = b;
kernLeft = b;
kernRight = b;
layers = (
{
layerId = m01;
shapes = (
{
closed = 1;
nodes = (
(373,-12,o),
(504,70,o),
(580,210,o),
(580,294,qs),
(580,348,o),
(536,446,o),
(445,508,o),
(378,508,qs),
(273,508,o),
(205,433,q),
(252,700,l),
(124,700,l),
(1,0,l),
(114,0,l),
(140,68,l),
(160,33,o),
(241,-12,o),
(293,-12,qs)
);
},
{
closed = 1;
nodes = (
(233,100,o),
(167,168,o),
(167,220,qs),
(167,263,o),
(204,344,o),
(277,396,o),
(328,396,qs),
(382,396,o),
(447,326,o),
(447,272,qs),
(447,225,o),
(406,146,o),
(333,100,o),
(286,100,qs)
);
}
);
userData = {
assembly = "NPUSHB[ ]	/* 10 values pushed */
7 1 4 2 2 1 0 5 2 76
MPPEM[ ]	/* MeasurePixelPerEm */
PUSHB[ ]	/* 1 value pushed */
21
LT[ ]	/* LessThan */
IF[ ]	/* If */
NPUSHB[ ]	/* 29 values pushed */
0 1 1 33 77 0 4 4 2 97 0 2 2 42 77 7 1 5 5 0 98 6 3 2 0 0 34 0 78
ELSE[ ]	/* Else */
NPUSHB[ ]	/* 33 values pushed */
0 1 1 33 77 0 4 4 2 97 0 2 2 42 77 0 0 0 34 77 7 1 5 5 3 98 6 1 3 3 40 3 78
EIF[ ]	/* EndIf */
NPUSHB[ ]	/* 20 values pushed */
18 18 0 0 18 31 18 30 25 23 0 17 0 16 34 17 19 8 8 25
CALL[ ]	/* CallFunction */";
};
width = 603;
}
);
note = b;
unicode = 98;
},
{
glyphname = c;
kernLeft = c;
kernRight = c;
layers = (
{
anchors = (
{
name = bottom;
pos = (235,0);
},
{
name = top;
pos = (323,496);
}
);
layerId = m01;
shapes = (
{
closed = 1;
nodes = (
(329,-12,o),
(484,85,o),
(519,180,q),
(385,180,l),
(370,141,o),
(302,97,o),
(260,97,qs),
(214,97,o),
(156,160,o),
(156,213,qs),
(156,257,o),
(192,343,o),
(263,399,o),
(313,399,qs),
(355,399,o),
(408,355,o),
(408,316,q),
(543,316,l),
(543,405,o),
(429,508,o),
(332,508,qs),
(246,508,o),
(105,427,o),
(24,286,o),
(24,201,qs),
(24,140,o),
(75,43,o),
(173,-12,o),
(241,-12,qs)
);
}
);
userData = {
assembly = "MPPEM[ ]	/* MeasurePixelPerEm */
PUSHB[ ]	/* 1 value pushed */
15
LT[ ]	/* LessThan */
IF[ ]	/* If */
NPUSHB[ ]	/* 36 values pushed */
0 1 2 4 2 1 114 0 4 3 2 4 3 126 0 2 2 0 97 0 0 0 42 77 0 3 3 5 97 6 1 5 5 40 5 78
ELSE[ ]	/* Else */
NPUSHB[ ]	/* 37 values pushed */
0 1 2 4 2 1 4 128 0 4 3 2 4 3 126 0 2 2 0 97 0 0 0 42 77 0 3 3 5 97 6 1 5 5 40 5 78
EIF[ ]	/* EndIf */
NPUSHB[ ]	/* 14 values pushed */
0 0 0 28 0 27 18 37 34 18 38 7 8 27
CALL[ ]	/* CallFunction */";
};
width = 558;
}
);
note = c;
unicode = 99;
},
{
glyphname = ccedilla;
kernLeft = c;
layers = (
{
anchors = (
{
name = bottom;
pos = (188,-263);
},
{
name = top;
pos = (323,496);
}
);
layerId = m01;
shapes = (
{
closed = 1;
nodes = (
(225,-263,ls),
(286,-263,o),
(376,-195,o),
(376,-134,qs),
(376,-92,o),
(312,-48,o),
(263,-50,q),
(270,-11,l),
(351,-3,o),
(487,93,o),
(519,180,q),
(385,180,l),
(370,141,o),
(302,97,o),
(260,97,qs),
(214,97,o),
(156,160,o),
(156,213,qs),
(156,257,o),
(192,343,o),
(263,399,o),
(313,399,qs),
(355,399,o),
(408,355,o),
(408,316,q),
(543,316,l),
(543,405,o),
(429,508,o),
(332,508,qs),
(246,508,o),
(105,427,o),
(24,286,o),
(24,201,qs),
(24,120,o),
(112,7,o),
(191,-8,q),
(171,-118,l),
(232,-118,ls),
(280,-118,o),
(280,-147,qs),
(279,-168,o),
(245,-189,o),
(219,-189,qs),
(107,-189,l),
(94,-263,l)
);
}
);
userData = {
assembly = "PUSHB[ ]	/* 6 values pushed */
8 1 7 5 1 76
MPPEM[ ]	/* MeasurePixelPerEm */
PUSHB[ ]	/* 1 value pushed */
9
LT[ ]	/* LessThan */
IF[ ]	/* If */
NPUSHB[ ]	/* 46 values pushed */
0 3 4 6 4 3 114 0 6 5 4 6 5 126 0 5 7 7 5 112 0 7 0 1 0 7 1 106 0 0 0 8 0 8 99 0 4 4 2 97 0 2 2 42 4 78
ELSE[ ]	/* Else */
MPPEM[ ]	/* MeasurePixelPerEm */
PUSHB[ ]	/* 1 value pushed */
15
LT[ ]	/* LessThan */
IF[ ]	/* If */
NPUSHB[ ]	/* 47 values pushed */
0 3 4 6 4 3 114 0 6 5 4 6 5 126 0 5 7 4 5 7 126 0 7 0 1 0 7 1 106 0 0 0 8 0 8 99 0 4 4 2 97 0 2 2 42 4 78
ELSE[ ]	/* Else */
NPUSHB[ ]	/* 48 values pushed */
0 3 4 6 4 3 6 128 0 6 5 4 6 5 126 0 5 7 4 5 7 126 0 7 0 1 0 7 1 106 0 0 0 8 0 8 99 0 4 4 2 97 0 2 2 42 4 78
EIF[ ]	/* EndIf */
EIF[ ]	/* EndIf */
NPUSHB[ ]	/* 12 values pushed */
36 20 18 37 34 18 39 35 32 9 8 31
CALL[ ]	/* CallFunction */";
};
width = 558;
}
);
note = ccedilla;
unicode = 231;
},
{
glyphname = d;
kernLeft = c;
layers = (
{
anchors = (
{
name = bottom;
pos = (258,0);
},
{
name = top;
pos = (433,992);
},
{
name = topright;
pos = (725,992);
}
);
layerId = m01;
shapes = (
{
closed = 1;
nodes = (
(328,-12,o),
(398,71,q),
(400,0,l),
(515,0,l),
(638,700,l),
(510,700,l),
(462,428,l),
(419,508,o),
(305,508,qs),
(233,508,o),
(104,434,o),
(25,297,o),
(25,208,qs),
(25,152,o),
(67,52,o),
(157,-12,o),
(223,-12,qs)
);
},
{
closed = 1;
nodes = (
(219,100,o),
(157,170,o),
(157,223,qs),
(157,263,o),
(193,343,o),
(266,396,o),
(319,396,qs),
(372,396,o),
(435,332,o),
(435,280,qs),
(435,237,o),
(397,154,o),
(323,100,o),
(272,100,qs)
);
}
);
userData = {
assembly = "NPUSHB[ ]	/* 10 values pushed */
9 1 4 0 14 1 2 5 2 76
MPPEM[ ]	/* MeasurePixelPerEm */
PUSHB[ ]	/* 1 value pushed */
21
LT[ ]	/* LessThan */
IF[ ]	/* If */
NPUSHB[ ]	/* 29 values pushed */
0 1 1 33 77 0 4 4 0 97 0 0 0 42 77 7 1 5 5 2 97 6 3 2 2 2 34 2 78
ELSE[ ]	/* Else */
NPUSHB[ ]	/* 33 values pushed */
0 1 1 33 77 0 4 4 0 97 0 0 0 42 77 0 2 2 34 77 7 1 5 5 3 97 6 1 3 3 40 3 78
EIF[ ]	/* EndIf */
NPUSHB[ ]	/* 20 values pushed */
17 17 0 0 17 30 17 29 24 22 0 16 0 15 17 18 38 8 8 25
CALL[ ]	/* CallFunction */";
};
width = 605;
}
);
note = d;
unicode = 100;
},
{
glyphname = dcroat;
kernLeft = c;
layers = (
{
layerId = m01;
shapes = (
{
closed = 1;
nodes = (
(328,-12,o),
(398,71,q),
(400,0,l),
(514,0,l),
(613,558,l),
(659,558,l),
(675,648,l),
(629,648,l),
(638,700,l),
(510,700,l),
(501,648,l),
(352,648,l),
(336,558,l),
(485,558,l),
(462,428,l),
(419,508,o),
(305,508,qs),
(233,508,o),
(104,434,o),
(25,297,o),
(25,208,qs),
(25,152,o),
(67,52,o),
(157,-12,o),
(223,-12,qs)
);
},
{
closed = 1;
nodes = (
(157,263,o),
(193,343,o),
(266,396,o),
(319,396,qs),
(372,396,o),
(435,332,o),
(435,280,qs),
(435,237,o),
(397,154,o),
(323,100,o),
(272,100,qs),
(219,100,o),
(157,170,o),
(157,223,qs)
);
}
);
userData = {
assembly = "NPUSHB[ ]	/* 10 values pushed */
9 1 9 0 22 1 6 8 2 76
MPPEM[ ]	/* MeasurePixelPerEm */
PUSHB[ ]	/* 1 value pushed */
21
LT[ ]	/* LessThan */
IF[ ]	/* If */
NPUSHB[ ]	/* 38 values pushed */
4 1 2 5 1 1 0 2 1 104 0 3 3 33 77 0 9 9 0 97 0 0 0 42 77 0 8 8 6 97 10 7 2 6 6 34 6 78
ELSE[ ]	/* Else */
NPUSHB[ ]	/* 42 values pushed */
4 1 2 5 1 1 0 2 1 104 0 3 3 33 77 0 9 9 0 97 0 0 0 42 77 0 6 6 34 77 0 8 8 7 97 10 1 7 7 40 7 78
EIF[ ]	/* EndIf */
NPUSHB[ ]	/* 20 values pushed */
0 0 35 33 28 26 0 24 0 23 17 17 17 17 17 18 38 11 8 29
CALL[ ]	/* CallFunction */";
};
width = 603;
}
);
note = dcroat;
unicode = 273;
},
{
glyphname = eth;
kernLeft = c;
layers = (
{
layerId = m01;
shapes = (
{
closed = 1;
nodes = (
(348,-12,o),
(494,76,o),
(583,248,o),
(583,367,qs),
(583,429,o),
(551,553,o),
(520,609,q),
(595,632,l),
(609,709,l),
(479,669,l),
(466,686,o),
(451,700,q),
(331,700,l),
(361,670,o),
(382,639,q),
(301,614,l),
(287,537,l),
(418,577,l),
(447,515,o),
(459,451,q),
(414,503,o),
(323,503,qs),
(241,503,o),
(105,428,o),
(26,297,o),
(26,217,qs),
(26,160,o),
(81,55,o),
(188,-12,o),
(264,-12,qs)
);
},
{
closed = 1;
nodes = (
(225,97,o),
(158,167,o),
(158,224,qs),
(158,264,o),
(196,342,o),
(269,394,o),
(320,394,qs),
(373,394,o),
(440,330,o),
(440,272,qs),
(440,233,o),
(401,151,o),
(328,97,o),
(278,97,qs)
);
}
);
userData = {
assembly = "NPUSHB[ ]	/* 65 values pushed */
22 19 14 12 11 5 0 1 9 1 3 0 2 76 20 1 1 74 0 1 1 33 77 0 3 3 0 97 0 0 0 42 77 6 1 4 4 2 97 5 1 2 2 40 2 78 30 30 0 0 30 43 30 42 37 35 0 29 0 28 24 38 7 8 24
CALL[ ]	/* CallFunction */";
};
width = 596;
}
);
note = eth;
unicode = 240;
},
{
glyphname = e;
kernLeft = c;
kernRight = ae;
layers = (
{
anchors = (
{
name = bottom;
pos = (234,0);
},
{
name = ogonek;
pos = (350,10);
},
{
name = top;
pos = (322,496);
}
);
layerId = m01;
shapes = (
{
closed = 1;
nodes = (
(320,-12,o),
(465,74,o),
(504,156,q),
(374,156,l),
(354,127,o),
(295,93,o),
(258,93,qs),
(209,93,o),
(150,150,o),
(150,200,qs),
(150,211,o),
(151,217,q),
(527,217,l),
(542,264,o),
(542,311,qs),
(542,400,o),
(428,508,o),
(331,508,qs),
(243,508,o),
(103,425,o),
(24,284,o),
(24,199,qs),
(24,102,o),
(141,-12,o),
(240,-12,qs)
);
},
{
closed = 1;
nodes = (
(167,297,l),
(185,349,o),
(266,404,o),
(314,404,qs),
(360,404,o),
(416,352,o),
(415,308,qs),
(414,297,l)
);
}
);
userData = {
assembly = "NPUSHB[ ]	/* 61 values pushed */
25 1 6 5 1 76 0 3 1 2 1 3 2 128 0 6 0 1 3 6 1 103 0 5 5 0 97 0 0 0 42 77 0 2 2 4 97 7 1 4 4 40 4 78 0 0 32 31 29 27 0 24 0 23 18 36 20 37 8 8 26
CALL[ ]	/* CallFunction */";
};
width = 556;
}
);
note = e;
unicode = 101;
},
{
glyphname = eogonek;
kernLeft = c;
kernRight = ae;
layers = (
{
anchors = (
{
name = bottom;
pos = (234,0);
},
{
name = ogonek;
pos = (350,10);
},
{
name = top;
pos = (322,496);
}
);
layerId = m01;
shapes = (
{
closed = 1;
nodes = (
(167,297,l),
(185,349,o),
(266,404,o),
(314,404,qs),
(360,404,o),
(416,352,o),
(415,308,qs),
(414,297,l)
);
},
{
closed = 1;
nodes = (
(274,-200,o),
(321,-186,q),
(334,-110,l),
(292,-125,o),
(260,-125,qs),
(239,-125,o),
(215,-107,o),
(215,-92,qs),
(215,-71,o),
(250,-36,o),
(294,-16,qs),
(348,9,ls),
(397,29,o),
(479,103,o),
(504,156,q),
(374,156,l),
(354,127,o),
(295,93,o),
(258,93,qs),
(209,93,o),
(150,150,o),
(150,200,qs),
(150,211,o),
(151,217,q),
(527,217,l),
(542,264,o),
(542,311,qs),
(542,400,o),
(428,508,o),
(331,508,qs),
(243,508,o),
(103,425,o),
(24,284,o),
(24,199,qs),
(24,119,o),
(106,12,o),
(178,-5,q),
(144,-30,o),
(115,-84,o),
(115,-116,qs),
(115,-158,o),
(179,-200,o),
(231,-200,qs)
);
}
);
userData = {
assembly = "NPUSHB[ ]	/* 11 values pushed */
0 1 1 0 47 13 2 6 4 2 76
MPPEM[ ]	/* MeasurePixelPerEm */
PUSHB[ ]	/* 1 value pushed */
25
LT[ ]	/* LessThan */
IF[ ]	/* If */
NPUSHB[ ]	/* 45 values pushed */
0 5 3 4 3 5 4 128 0 4 6 3 4 6 126 0 1 0 3 5 1 3 103 0 0 0 2 97 0 2 2 42 77 0 6 6 7 98 8 1 7 7 38 7 78
ELSE[ ]	/* Else */
NPUSHB[ ]	/* 42 values pushed */
0 5 3 4 3 5 4 128 0 4 6 3 4 6 126 0 1 0 3 5 1 3 103 0 6 8 1 7 6 7 102 0 0 0 2 97 0 2 2 42 0 78
EIF[ ]	/* EndIf */
NPUSHB[ ]	/* 16 values pushed */
8 8 8 50 8 49 41 18 36 20 44 18 34 9 8 29
CALL[ ]	/* CallFunction */";
};
width = 556;
}
);
note = eogonek;
unicode = 281;
},
{
glyphname = uni0259;
kernLeft = c;
kernRight = b;
layers = (
{
layerId = m01;
shapes = (
{
closed = 1;
nodes = (
(313,-12,o),
(453,71,o),
(532,212,o),
(532,297,qs),
(532,394,o),
(415,508,o),
(316,508,qs),
(228,508,o),
(88,413,o),
(52,340,q),
(182,340,l),
(202,369,o),
(261,403,o),
(298,403,qs),
(347,403,o),
(406,346,o),
(406,296,qs),
(406,285,o),
(405,279,q),
(29,279,l),
(14,232,o),
(14,185,qs),
(14,133,o),
(61,43,o),
(156,-12,o),
(225,-12,qs)
);
},
{
closed = 1;
nodes = (
(196,92,o),
(140,144,o),
(141,188,qs),
(142,199,l),
(389,199,l),
(371,147,o),
(290,92,o),
(242,92,qs)
);
}
);
userData = {
assembly = "NPUSHB[ ]	/* 66 values pushed */
30 1 6 5 1 76 0 2 1 0 1 2 0 128 0 0 0 5 6 0 5 103 0 1 1 3 97 0 3 3 42 77 8 1 6 6 4 97 7 1 4 4 40 4 78 26 26 0 0 26 33 26 32 29 28 0 25 0 24 34 18 36 21 9 8 26
CALL[ ]	/* CallFunction */";
};
width = 556;
}
);
note = uni0259;
unicode = 601;
},
{
glyphname = f;
kernLeft = f;
kernRight = f;
layers = (
{
layerId = m01;
shapes = (
{
closed = 1;
nodes = (
(157,0,l),
(226,389,l),
(315,389,l),
(334,496,l),
(244,496,l),
(251,534,ls),
(257,565,o),
(289,591,o),
(322,591,qs),
(344,591,l),
(364,700,l),
(322,700,ls),
(153,700,o),
(123,534,qs),
(116,496,l),
(59,496,l),
(40,389,l),
(98,389,l),
(29,0,l)
);
}
);
userData = {
assembly = "NPUSHB[ ]	/* 38 values pushed */
0 3 3 2 97 0 2 2 33 77 5 1 0 0 1 95 4 1 1 1 36 77 0 6 6 34 6 78 17 17 19 33 34 17 16 7 8 29
CALL[ ]	/* CallFunction */";
};
width = 315;
}
);
note = f;
unicode = 102;
},
{
glyphname = g;
kernLeft = g;
kernRight = g;
layers = (
{
anchors = (
{
name = bottom;
pos = (150,-310);
},
{
name = top;
pos = (284,496);
}
);
layerId = m01;
shapes = (
{
closed = 1;
nodes = (
(295,-232,o),
(438,-133,o),
(438,-41,qs),
(438,21,o),
(351,94,o),
(273,94,qs),
(178,94,ls),
(146,94,o),
(113,115,o),
(113,134,qs),
(113,149,o),
(137,172,o),
(155,175,q),
(191,154,o),
(245,154,qs),
(302,154,o),
(399,199,o),
(459,280,o),
(463,331,qs),
(465,357,o),
(454,400,q),
(529,400,l),
(546,496,l),
(354,496,l),
(318,508,o),
(276,508,qs),
(186,508,o),
(64,411,o),
(57,331,qs),
(55,301,o),
(71,245,o),
(88,223,q),
(51,207,o),
(0,139,o),
(0,98,qs),
(0,75,o),
(20,36,o),
(39,24,q),
(-1,7,o),
(-43,-51,o),
(-43,-92,qs),
(-43,-158,o),
(76,-232,o),
(172,-232,qs)
);
},
{
closed = 1;
nodes = (
(141,-132,o),
(77,-102,o),
(77,-74,qs),
(77,-42,o),
(131,-11,o),
(172,-11,qs),
(244,-11,ls),
(280,-11,o),
(316,-39,o),
(316,-62,qs),
(316,-132,o),
(189,-132,qs)
);
},
{
closed = 1;
nodes = (
(216,254,o),
(174,291,o),
(174,323,qs),
(174,359,o),
(226,408,o),
(266,408,qs),
(302,408,o),
(346,369,o),
(346,338,qs),
(346,301,o),
(294,254,o),
(253,254,qs)
);
}
);
userData = {
assembly = "NPUSHB[ ]	/* 15 values pushed */
14 1 9 2 30 11 2 3 9 5 1 6 4 3 76
MPPEM[ ]	/* MeasurePixelPerEm */
PUSHB[ ]	/* 1 value pushed */
21
LT[ ]	/* LessThan */
IF[ ]	/* If */
NPUSHB[ ]	/* 44 values pushed */
12 1 9 0 3 4 9 3 105 8 1 2 2 0 97 1 1 0 0 42 77 0 4 4 6 95 0 6 6 34 77 11 1 7 7 5 97 10 1 5 5 38 5 78
ELSE[ ]	/* Else */
MPPEM[ ]	/* MeasurePixelPerEm */
PUSHB[ ]	/* 1 value pushed */
29
LT[ ]	/* LessThan */
IF[ ]	/* If */
NPUSHB[ ]	/* 54 values pushed */
12 1 9 0 3 4 9 3 105 8 1 2 2 0 97 0 0 0 42 77 8 1 2 2 1 95 0 1 1 36 77 0 4 4 6 95 0 6 6 34 77 11 1 7 7 5 97 10 1 5 5 38 5 78
ELSE[ ]	/* Else */
MPPEM[ ]	/* MeasurePixelPerEm */
PUSHB[ ]	/* 1 value pushed */
41
LT[ ]	/* LessThan */
IF[ ]	/* If */
NPUSHB[ ]	/* 52 values pushed */
12 1 9 0 3 4 9 3 105 0 8 8 0 97 0 0 0 42 77 0 2 2 1 95 0 1 1 36 77 0 4 4 6 95 0 6 6 34 77 11 1 7 7 5 97 10 1 5 5 38 5 78
ELSE[ ]	/* Else */
MPPEM[ ]	/* MeasurePixelPerEm */
PUSHB[ ]	/* 1 value pushed */
45
LT[ ]	/* LessThan */
IF[ ]	/* If */
NPUSHB[ ]	/* 49 values pushed */
12 1 9 0 3 4 9 3 105 11 1 7 10 1 5 7 5 101 0 8 8 0 97 0 0 0 42 77 0 2 2 1 95 0 1 1 36 77 0 4 4 6 95 0 6 6 34 6 78
ELSE[ ]	/* Else */
NPUSHB[ ]	/* 47 values pushed */
12 1 9 0 3 4 9 3 105 0 4 0 6 7 4 6 103 11 1 7 10 1 5 7 5 101 0 8 8 0 97 0 0 0 42 77 0 2 2 1 95 0 1 1 36 2 78
EIF[ ]	/* EndIf */
EIF[ ]	/* EndIf */
EIF[ ]	/* EndIf */
EIF[ ]	/* EndIf */
NPUSHB[ ]	/* 35 values pushed */
56 56 44 44 0 0 56 67 56 66 62 60 44 55 44 54 50 47 0 43 0 42 38 35 29 27 22 21 20 19 18 16 13 8 22
CALL[ ]	/* CallFunction */";
};
width = 517;
}
);
note = g;
unicode = 103;
},
{
glyphname = h;
kernLeft = b;
kernRight = a;
layers = (
{
layerId = m01;
shapes = (
{
closed = 1;
nodes = (
(130,0,l),
(175,256,ls),
(187,323,o),
(269,400,o),
(323,400,qs),
(412,400,o),
(412,311,qs),
(412,289,o),
(408,268,qs),
(360,0,l),
(488,0,l),
(538,280,ls),
(544,315,o),
(544,345,qs),
(544,425,o),
(462,508,o),
(384,508,qs),
(329,508,o),
(236,461,o),
(204,420,q),
(253,700,l),
(125,700,l),
(2,0,l)
);
}
);
userData = {
assembly = "NPUSHB[ ]	/* 36 values pushed */
2 1 3 1 1 76 0 0 0 33 77 0 3 3 1 97 0 1 1 42 77 4 1 2 2 34 2 78 19 36 21 35 16 5 8 27
CALL[ ]	/* CallFunction */";
};
width = 569;
}
);
note = h;
unicode = 104;
},
{
glyphname = hbar;
kernRight = a;
layers = (
{
layerId = m01;
shapes = (
{
closed = 1;
nodes = (
(141,0,l),
(186,256,ls),
(198,323,o),
(280,400,o),
(334,400,qs),
(423,400,o),
(423,311,qs),
(423,289,o),
(419,268,qs),
(371,0,l),
(499,0,l),
(549,280,ls),
(555,315,o),
(555,345,qs),
(555,425,o),
(473,508,o),
(395,508,qs),
(340,508,o),
(247,461,o),
(215,420,q),
(239,558,l),
(398,558,l),
(414,648,l),
(255,648,l),
(264,700,l),
(136,700,l),
(127,648,l),
(81,648,l),
(65,558,l),
(111,558,l),
(13,0,l)
);
}
);
userData = {
assembly = "NPUSHB[ ]	/* 50 values pushed */
10 1 7 5 1 76 3 1 1 4 1 0 5 1 0 104 0 2 2 33 77 0 7 7 5 97 0 5 5 42 77 8 1 6 6 34 6 78 19 36 21 35 17 17 17 17 16 9 8 31
CALL[ ]	/* CallFunction */";
};
width = 580;
}
);
note = hbar;
unicode = 295;
},
{
glyphname = i;
kernLeft = i;
layers = (
{
anchors = (
{
name = bottom;
pos = (71,0);
}
);
layerId = m01;
shapes = (
{
closed = 1;
nodes = (
(135,0,l),
(222,496,l),
(94,496,l),
(7,0,l)
);
},
{
closed = 1;
nodes = (
(218,566,o),
(265,613,o),
(265,646,qs),
(265,680,o),
(218,726,o),
(185,726,qs),
(152,726,o),
(105,680,o),
(105,646,qs),
(105,613,o),
(152,566,o),
(185,566,qs)
);
}
);
userData = {
assembly = "MPPEM[ ]	/* MeasurePixelPerEm */
PUSHB[ ]	/* 1 value pushed */
29
LT[ ]	/* LessThan */
IF[ ]	/* If */
NPUSHB[ ]	/* 22 values pushed */
4 1 3 3 2 97 0 2 2 41 77 0 0 0 36 77 0 1 1 34 1 78
ELSE[ ]	/* Else */
MPPEM[ ]	/* MeasurePixelPerEm */
PUSHB[ ]	/* 1 value pushed */
35
LT[ ]	/* LessThan */
IF[ ]	/* If */
NPUSHB[ ]	/* 22 values pushed */
4 1 3 3 2 97 0 2 2 39 77 0 0 0 36 77 0 1 1 34 1 78
ELSE[ ]	/* Else */
NPUSHB[ ]	/* 20 values pushed */
0 2 4 1 3 0 2 3 105 0 0 0 36 77 0 1 1 34 1 78
EIF[ ]	/* EndIf */
EIF[ ]	/* EndIf */
NPUSHB[ ]	/* 12 values pushed */
4 4 4 15 4 14 37 17 16 5 8 25
CALL[ ]	/* CallFunction */";
};
width = 230;
}
);
note = i;
unicode = 105;
},
{
glyphname = dotlessi;
kernLeft = dotlessi;
layers = (
{
anchors = (
{
name = bottom;
pos = (66,0);
},
{
name = ogonek;
pos = (130,0);
},
{
name = top;
pos = (152,496);
}
);
layerId = m01;
shapes = (
{
closed = 1;
nodes = (
(130,0,l),
(217,496,l),
(89,496,l),
(2,0,l)
);
}
);
userData = {
assembly = "NPUSHB[ ]	/* 16 values pushed */
0 0 0 36 77 0 1 1 34 1 78 17 16 2 8 24
CALL[ ]	/* CallFunction */";
};
width = 219;
}
);
note = dotlessi;
unicode = 305;
},
{
glyphname = iogonek;
kernLeft = dotlessi;
layers = (
{
anchors = (
{
name = bottom;
pos = (66,0);
},
{
name = ogonek;
pos = (130,0);
},
{
name = top;
pos = (193,726);
}
);
layerId = m01;
shapes = (
{
closed = 1;
nodes = (
(213,560,o),
(261,608,o),
(261,643,qs),
(261,678,o),
(213,726,o),
(178,726,qs),
(143,726,o),
(95,678,o),
(95,643,qs),
(95,608,o),
(143,560,o),
(178,560,qs)
);
},
{
closed = 1;
nodes = (
(54,-210,o),
(101,-196,q),
(114,-120,l),
(72,-135,o),
(40,-135,qs),
(19,-135,o),
(-5,-117,o),
(-5,-102,qs),
(-5,-81,o),
(30,-46,o),
(74,-26,qs),
(130,0,l),
(217,496,l),
(89,496,l),
(4,14,l),
(-55,-18,o),
(-105,-85,o),
(-105,-126,qs),
(-105,-168,o),
(-41,-210,o),
(11,-210,qs)
);
}
);
userData = {
assembly = "PUSHB[ ]	/* 6 values pushed */
29 1 3 2 1 76
MPPEM[ ]	/* MeasurePixelPerEm */
PUSHB[ ]	/* 1 value pushed */
29
LT[ ]	/* LessThan */
IF[ ]	/* If */
NPUSHB[ ]	/* 28 values pushed */
5 1 1 1 0 97 0 0 0 41 77 0 2 2 36 77 0 3 3 4 97 6 1 4 4 38 4 78
ELSE[ ]	/* Else */
MPPEM[ ]	/* MeasurePixelPerEm */
PUSHB[ ]	/* 1 value pushed */
35
LT[ ]	/* LessThan */
IF[ ]	/* If */
NPUSHB[ ]	/* 28 values pushed */
5 1 1 1 0 97 0 0 0 39 77 0 2 2 36 77 0 3 3 4 97 6 1 4 4 38 4 78
ELSE[ ]	/* Else */
MPPEM[ ]	/* MeasurePixelPerEm */
PUSHB[ ]	/* 1 value pushed */
50
LT[ ]	/* LessThan */
IF[ ]	/* If */
NPUSHB[ ]	/* 26 values pushed */
0 0 5 1 1 2 0 1 105 0 2 2 36 77 0 3 3 4 97 6 1 4 4 38 4 78
ELSE[ ]	/* Else */
NPUSHB[ ]	/* 23 values pushed */
0 0 5 1 1 2 0 1 105 0 3 6 1 4 3 4 101 0 2 2 36 2 78
EIF[ ]	/* EndIf */
EIF[ ]	/* EndIf */
EIF[ ]	/* EndIf */
NPUSHB[ ]	/* 20 values pushed */
12 12 0 0 12 32 12 31 28 26 19 18 0 11 0 10 36 7 8 23
CALL[ ]	/* CallFunction */";
};
width = 219;
}
);
note = iogonek;
unicode = 303;
},
{
glyphname = j;
kernLeft = j;
layers = (
{
layerId = m01;
shapes = (
{
closed = 1;
nodes = (
(-80,-220,ls),
(91,-220,o),
(120,-54,qs),
(216,496,l),
(88,496,l),
(-8,-54,ls),
(-14,-85,o),
(-47,-111,o),
(-80,-111,qs),
(-119,-111,l),
(-138,-220,l)
);
},
{
closed = 1;
nodes = (
(212,566,o),
(259,613,o),
(259,646,qs),
(259,679,o),
(212,726,o),
(179,726,qs),
(146,726,o),
(99,679,o),
(99,646,qs),
(99,613,o),
(146,566,o),
(179,566,qs)
);
}
);
userData = {
assembly = "MPPEM[ ]	/* MeasurePixelPerEm */
PUSHB[ ]	/* 1 value pushed */
29
LT[ ]	/* LessThan */
IF[ ]	/* If */
NPUSHB[ ]	/* 27 values pushed */
5 1 4 4 3 97 0 3 3 41 77 0 1 1 36 77 0 0 0 2 98 0 2 2 38 2 78
ELSE[ ]	/* Else */
MPPEM[ ]	/* MeasurePixelPerEm */
PUSHB[ ]	/* 1 value pushed */
35
LT[ ]	/* LessThan */
IF[ ]	/* If */
NPUSHB[ ]	/* 27 values pushed */
5 1 4 4 3 97 0 3 3 39 77 0 1 1 36 77 0 0 0 2 98 0 2 2 38 2 78
ELSE[ ]	/* Else */
NPUSHB[ ]	/* 25 values pushed */
0 3 5 1 4 1 3 4 105 0 1 1 36 77 0 0 0 2 98 0 2 2 38 2 78
EIF[ ]	/* EndIf */
EIF[ ]	/* EndIf */
NPUSHB[ ]	/* 13 values pushed */
11 11 11 22 11 21 37 34 19 32 6 8 26
CALL[ ]	/* CallFunction */";
};
width = 228;
}
);
note = j;
unicode = 106;
},
{
glyphname = uni0237;
layers = (
{
anchors = (
{
name = bottom;
pos = (16,-310);
},
{
name = top;
pos = (158,496);
}
);
layerId = m01;
shapes = (
{
closed = 1;
nodes = (
(-80,-220,ls),
(91,-220,o),
(120,-54,qs),
(216,496,l),
(88,496,l),
(-8,-54,ls),
(-14,-85,o),
(-47,-111,o),
(-80,-111,qs),
(-119,-111,l),
(-138,-220,l)
);
}
);
userData = {
assembly = "NPUSHB[ ]	/* 22 values pushed */
0 1 1 36 77 0 0 0 2 98 0 2 2 38 2 78 34 19 32 3 8 25
CALL[ ]	/* CallFunction */";
};
width = 228;
}
);
note = uni0237;
unicode = 567;
},
{
glyphname = k;
kernLeft = b;
kernRight = k;
layers = (
{
anchors = (
{
name = bottom;
pos = (209,0);
},
{
name = top;
pos = (384,992);
}
);
layerId = m01;
shapes = (
{
closed = 1;
nodes = (
(129,0,l),
(166,211,l),
(305,0,l),
(462,0,l),
(285,247,l),
(544,496,l),
(382,496,l),
(180,286,l),
(252,700,l),
(125,700,l),
(1,0,l)
);
}
);
userData = {
assembly = "NPUSHB[ ]	/* 32 values pushed */
8 5 2 3 2 1 1 76 0 0 0 33 77 0 1 1 36 77 3 1 2 2 34 2 78 18 18 18 16 4 8 26
CALL[ ]	/* CallFunction */";
};
width = 506;
}
);
note = k;
unicode = 107;
},
{
glyphname = l;
kernLeft = b;
kernRight = l;
layers = (
{
anchors = (
{
name = bottom;
pos = (66,0);
},
{
name = top;
pos = (190,700);
},
{
name = topright;
pos = (341,992);
}
);
layerId = m01;
shapes = (
{
closed = 1;
nodes = (
(129,0,l),
(253,700,l),
(125,700,l),
(1,0,l)
);
}
);
userData = {
assembly = "NPUSHB[ ]	/* 16 values pushed */
0 0 0 33 77 0 1 1 34 1 78 17 16 2 8 24
CALL[ ]	/* CallFunction */";
};
width = 220;
}
);
note = l;
unicode = 108;
},
{
glyphname = ldot;
layers = (
{
layerId = m01;
shapes = (
{
closed = 1;
nodes = (
(127,0,l),
(251,700,l),
(123,700,l),
(-1,0,l)
);
},
{
closed = 1;
nodes = (
(325,304,o),
(361,339,o),
(361,365,qs),
(361,391,o),
(325,428,o),
(299,428,qs),
(272,428,o),
(237,392,o),
(237,365,qs),
(237,339,o),
(272,304,o),
(299,304,qs)
);
}
);
userData = {
assembly = "NPUSHB[ ]	/* 32 values pushed */
0 2 4 1 3 1 2 3 105 0 0 0 33 77 0 1 1 34 1 78 4 4 4 15 4 14 37 17 16 5 8 25
CALL[ ]	/* CallFunction */";
};
width = 351;
}
);
note = ldot;
unicode = 320;
},
{
glyphname = lslash;
kernLeft = lslash;
kernRight = lslash;
layers = (
{
layerId = m01;
shapes = (
{
closed = 1;
nodes = (
(146,0,l),
(208,349,l),
(282,373,l),
(304,495,l),
(230,471,l),
(270,700,l),
(142,700,l),
(94,426,l),
(20,402,l),
(-2,280,l),
(72,304,l),
(18,0,l)
);
}
);
userData = {
assembly = "NPUSHB[ ]	/* 24 values pushed */
7 6 1 3 1 0 1 76 0 0 0 33 77 0 1 1 34 1 78 21 20 2 8 24
CALL[ ]	/* CallFunction */";
};
width = 280;
}
);
note = lslash;
unicode = 322;
},
{
glyphname = m;
kernLeft = dotlessi;
kernRight = a;
layers = (
{
layerId = m01;
shapes = (
{
closed = 1;
nodes = (
(130,0,l),
(175,256,ls),
(187,323,o),
(261,400,o),
(310,400,qs),
(350,400,o),
(392,354,o),
(392,310,qs),
(392,288,o),
(388,268,qs),
(341,0,l),
(468,0,l),
(516,271,ls),
(527,332,o),
(600,400,o),
(647,400,qs),
(687,400,o),
(730,353,o),
(730,308,qs),
(730,296,o),
(726,268,qs),
(679,0,l),
(807,0,l),
(857,280,ls),
(863,313,o),
(863,341,qs),
(863,422,o),
(773,508,o),
(692,508,qs),
(640,508,o),
(546,460,o),
(512,417,q),
(494,462,o),
(416,508,o),
(361,508,qs),
(264,508,o),
(201,426,q),
(202,496,l),
(89,496,l),
(2,0,l)
);
}
);
userData = {
assembly = "PUSHB[ ]	/* 7 values pushed */
7 2 2 4 0 1 76
MPPEM[ ]	/* MeasurePixelPerEm */
PUSHB[ ]	/* 1 value pushed */
21
LT[ ]	/* LessThan */
IF[ ]	/* If */
NPUSHB[ ]	/* 21 values pushed */
6 1 4 4 0 97 2 1 2 0 0 36 77 7 5 2 3 3 34 3 78
ELSE[ ]	/* Else */
NPUSHB[ ]	/* 25 values pushed */
0 0 0 36 77 6 1 4 4 1 97 2 1 1 1 42 77 7 5 2 3 3 34 3 78
EIF[ ]	/* EndIf */
NPUSHB[ ]	/* 11 values pushed */
19 37 19 37 21 36 34 16 8 8 30
CALL[ ]	/* CallFunction */";
};
width = 888;
}
);
note = m;
unicode = 109;
},
{
glyphname = n;
kernLeft = dotlessi;
kernRight = a;
layers = (
{
anchors = (
{
name = bottom;
pos = (241,0);
},
{
name = top;
pos = (329,496);
}
);
layerId = m01;
shapes = (
{
closed = 1;
nodes = (
(130,0,l),
(176,260,ls),
(187,324,o),
(269,400,o),
(323,400,qs),
(412,400,o),
(412,310,qs),
(412,288,o),
(408,268,qs),
(360,0,l),
(488,0,l),
(538,280,ls),
(544,315,o),
(544,343,qs),
(544,423,o),
(460,508,o),
(382,508,qs),
(326,508,o),
(231,458,o),
(199,414,q),
(202,496,l),
(89,496,l),
(2,0,l)
);
}
);
userData = {
assembly = "PUSHB[ ]	/* 6 values pushed */
2 1 3 0 1 76
MPPEM[ ]	/* MeasurePixelPerEm */
PUSHB[ ]	/* 1 value pushed */
21
LT[ ]	/* LessThan */
IF[ ]	/* If */
NPUSHB[ ]	/* 18 values pushed */
0 3 3 0 97 1 1 0 0 36 77 4 1 2 2 34 2 78
ELSE[ ]	/* Else */
NPUSHB[ ]	/* 22 values pushed */
0 0 0 36 77 0 3 3 1 97 0 1 1 42 77 4 1 2 2 34 2 78
EIF[ ]	/* EndIf */
PUSHB[ ]	/* 8 values pushed */
19 36 21 35 16 5 8 27
CALL[ ]	/* CallFunction */";
};
width = 569;
}
);
note = n;
unicode = 110;
},
{
glyphname = eng;
kernLeft = dotlessi;
kernRight = a;
layers = (
{
anchors = (
{
name = bottom;
pos = (241,0);
},
{
name = top;
pos = (329,496);
}
);
layerId = m01;
shapes = (
{
closed = 1;
nodes = (
(130,0,l),
(176,260,ls),
(187,324,o),
(269,400,o),
(323,400,qs),
(412,400,o),
(412,310,qs),
(412,288,o),
(408,268,qs),
(350,-54,ls),
(344,-85,o),
(312,-111,o),
(280,-111,qs),
(252,-111,l),
(233,-220,l),
(280,-220,ls),
(359,-220,o),
(462,-143,o),
(478,-54,qs),
(538,280,ls),
(544,315,o),
(544,343,qs),
(544,423,o),
(460,508,o),
(382,508,qs),
(326,508,o),
(231,458,o),
(199,414,q),
(202,496,l),
(89,496,l),
(2,0,l)
);
}
);
userData = {
assembly = "PUSHB[ ]	/* 6 values pushed */
2 1 4 0 1 76
MPPEM[ ]	/* MeasurePixelPerEm */
PUSHB[ ]	/* 1 value pushed */
21
LT[ ]	/* LessThan */
IF[ ]	/* If */
NPUSHB[ ]	/* 27 values pushed */
0 4 4 0 97 1 1 0 0 36 77 0 5 5 34 77 0 3 3 2 97 0 2 2 38 2 78
ELSE[ ]	/* Else */
NPUSHB[ ]	/* 31 values pushed */
0 0 0 36 77 0 4 4 1 97 0 1 1 42 77 0 5 5 34 77 0 3 3 2 97 0 2 2 38 2 78
EIF[ ]	/* EndIf */
NPUSHB[ ]	/* 9 values pushed */
19 38 33 39 35 16 6 8 28
CALL[ ]	/* CallFunction */";
};
width = 569;
}
);
note = eng;
unicode = 331;
},
{
glyphname = o;
kernLeft = c;
kernRight = b;
layers = (
{
anchors = (
{
name = bottom;
pos = (244,0);
},
{
name = ogonek;
pos = (362,10);
},
{
name = top;
pos = (332,496);
},
{
name = topright;
pos = (605,496);
}
);
layerId = m01;
shapes = (
{
closed = 1;
nodes = (
(330,-12,o),
(469,68,o),
(550,206,o),
(550,289,qs),
(550,344,o),
(502,444,o),
(401,508,o),
(326,508,qs),
(242,508,o),
(104,429,o),
(25,292,o),
(25,209,qs),
(25,148,o),
(80,47,o),
(181,-12,o),
(246,-12,qs)
);
},
{
closed = 1;
nodes = (
(216,99,o),
(152,167,o),
(152,220,qs),
(152,267,o),
(191,348,o),
(262,397,o),
(308,397,qs),
(360,397,o),
(423,326,o),
(423,272,qs),
(423,225,o),
(384,146,o),
(313,99,o),
(268,99,qs)
);
}
);
userData = {
assembly = "NPUSHB[ ]	/* 41 values pushed */
0 2 2 0 97 0 0 0 42 77 5 1 3 3 1 97 4 1 1 1 40 1 78 16 16 0 0 16 29 16 28 23 21 0 15 0 14 38 6 8 23
CALL[ ]	/* CallFunction */";
};
width = 575;
}
);
note = o;
unicode = 111;
},
{
glyphname = oslash;
layers = (
{
layerId = m01;
shapes = (
{
closed = 1;
nodes = (
(316,-12,o),
(455,68,o),
(536,206,o),
(536,289,qs),
(536,322,o),
(517,388,o),
(499,416,q),
(582,496,l),
(481,496,l),
(451,467,l),
(394,508,o),
(312,508,qs),
(228,508,o),
(90,429,o),
(11,292,o),
(11,209,qs),
(11,135,o),
(49,80,q),
(-34,0,l),
(67,0,l),
(98,29,l),
(153,-12,o),
(232,-12,qs)
);
},
{
closed = 1;
nodes = (
(218,99,o),
(189,117,q),
(401,322,l),
(409,298,o),
(409,272,qs),
(409,225,o),
(370,146,o),
(299,99,o),
(254,99,qs)
);
},
{
closed = 1;
nodes = (
(146,173,l),
(138,195,o),
(138,220,qs),
(138,267,o),
(177,348,o),
(248,397,o),
(294,397,qs),
(331,397,o),
(359,378,q)
);
}
);
userData = {
assembly = "MPPEM[ ]	/* MeasurePixelPerEm */
PUSHB[ ]	/* 1 value pushed */
21
LT[ ]	/* LessThan */
IF[ ]	/* If */
NPUSHB[ ]	/* 19 values pushed */
15 12 2 5 1 40 39 29 28 4 4 5 4 1 2 0 4 3 76
ELSE[ ]	/* Else */
NPUSHB[ ]	/* 19 values pushed */
15 12 2 5 2 40 39 29 28 4 4 5 4 1 2 0 4 3 76
EIF[ ]	/* EndIf */
MPPEM[ ]	/* MeasurePixelPerEm */
PUSHB[ ]	/* 1 value pushed */
21
LT[ ]	/* LessThan */
IF[ ]	/* If */
NPUSHB[ ]	/* 25 values pushed */
0 5 5 1 97 2 1 1 1 42 77 7 1 4 4 0 97 6 3 2 0 0 34 0 78
ELSE[ ]	/* Else */
NPUSHB[ ]	/* 33 values pushed */
0 2 2 36 77 0 5 5 1 97 0 1 1 42 77 0 0 0 34 77 7 1 4 4 3 97 6 1 3 3 40 3 78
EIF[ ]	/* EndIf */
NPUSHB[ ]	/* 20 values pushed */
23 23 0 0 34 32 23 31 23 30 0 22 0 21 18 38 18 8 8 25
CALL[ ]	/* CallFunction */";
};
width = 548;
}
);
note = oslash;
unicode = 248;
},
{
glyphname = oe;
kernLeft = c;
kernRight = ae;
layers = (
{
anchors = (
{
name = bottom;
pos = (436,0);
},
{
name = top;
pos = (524,496);
}
);
layerId = m01;
shapes = (
{
closed = 1;
nodes = (
(307,-12,o),
(415,31,o),
(457,70,q),
(484,31,o),
(576,-12,o),
(635,-12,qs),
(715,-12,o),
(860,74,o),
(899,156,q),
(769,156,l),
(749,127,o),
(690,93,o),
(653,93,qs),
(604,93,o),
(545,150,o),
(545,200,qs),
(545,211,o),
(546,217,q),
(922,217,l),
(937,264,o),
(937,311,qs),
(937,400,o),
(823,508,o),
(726,508,qs),
(661,508,o),
(551,463,o),
(509,422,q),
(481,462,o),
(389,508,o),
(326,508,qs),
(242,508,o),
(104,429,o),
(25,292,o),
(25,209,qs),
(25,148,o),
(80,47,o),
(181,-12,o),
(246,-12,qs)
);
},
{
closed = 1;
nodes = (
(216,99,o),
(152,167,o),
(152,220,qs),
(152,267,o),
(191,348,o),
(262,397,o),
(308,397,qs),
(360,397,o),
(423,326,o),
(423,272,qs),
(423,225,o),
(384,146,o),
(313,99,o),
(268,99,qs)
);
},
{
closed = 1;
nodes = (
(562,297,l),
(580,349,o),
(661,404,o),
(709,404,qs),
(755,404,o),
(811,352,o),
(810,308,qs),
(809,297,l)
);
}
);
userData = {
assembly = "MPPEM[ ]	/* MeasurePixelPerEm */
PUSHB[ ]	/* 1 value pushed */
33
LT[ ]	/* LessThan */
IF[ ]	/* If */
NPUSHB[ ]	/* 14 values pushed */
10 1 7 0 52 1 10 7 34 1 5 3 3 76
ELSE[ ]	/* Else */
NPUSHB[ ]	/* 14 values pushed */
10 1 9 0 52 1 10 7 34 1 5 3 3 76
EIF[ ]	/* EndIf */
MPPEM[ ]	/* MeasurePixelPerEm */
PUSHB[ ]	/* 1 value pushed */
33
LT[ ]	/* LessThan */
IF[ ]	/* If */
NPUSHB[ ]	/* 43 values pushed */
0 4 2 3 2 4 3 128 0 10 0 2 4 10 2 103 9 1 7 7 0 97 1 1 0 0 42 77 12 8 2 3 3 5 97 11 6 2 5 5 40 5 78
ELSE[ ]	/* Else */
MPPEM[ ]	/* MeasurePixelPerEm */
PUSHB[ ]	/* 1 value pushed */
39
LT[ ]	/* LessThan */
IF[ ]	/* If */
NPUSHB[ ]	/* 53 values pushed */
0 4 2 3 2 4 3 128 0 10 0 2 4 10 2 103 0 9 9 0 97 1 1 0 0 42 77 0 7 7 0 97 1 1 0 0 42 77 12 8 2 3 3 5 97 11 6 2 5 5 40 5 78
ELSE[ ]	/* Else */
NPUSHB[ ]	/* 64 values pushed */
0 4 2 8 2 4 8 128 0 10 0 2 4 10 2 103 0 9 9 0 97 1 1 0 0 42 77 0 7 7 0 97 1 1 0 0 42 77 12 1 8 8 5 97 11 6 2 5 5 40 77 0 3 3 5 97 11 6 2 5 5 40 5 78
EIF[ ]	/* EndIf */
EIF[ ]	/* EndIf */
NPUSHB[ ]	/* 27 values pushed */
38 38 0 0 59 58 56 54 38 51 38 50 45 43 0 37 0 36 34 18 36 20 36 38 13 8 28
CALL[ ]	/* CallFunction */";
};
width = 951;
}
);
note = oe;
unicode = 339;
},
{
glyphname = p;
kernLeft = p;
kernRight = b;
layers = (
{
layerId = m01;
shapes = (
{
closed = 1;
nodes = (
(92,-220,l),
(142,68,l),
(161,33,o),
(242,-12,o),
(294,-12,qs),
(375,-12,o),
(506,70,o),
(581,210,o),
(581,294,qs),
(581,351,o),
(534,449,o),
(443,508,o),
(379,508,qs),
(273,508,o),
(205,425,q),
(204,496,l),
(89,496,l),
(-36,-220,l)
);
},
{
closed = 1;
nodes = (
(235,100,o),
(168,168,o),
(168,220,qs),
(168,264,o),
(205,345,o),
(279,396,o),
(330,396,qs),
(384,396,o),
(449,326,o),
(449,272,qs),
(449,225,o),
(408,146,o),
(335,100,o),
(288,100,qs)
);
}
);
userData = {
assembly = "NPUSHB[ ]	/* 10 values pushed */
2 1 4 0 15 1 2 5 2 76
MPPEM[ ]	/* MeasurePixelPerEm */
PUSHB[ ]	/* 1 value pushed */
21
LT[ ]	/* LessThan */
IF[ ]	/* If */
NPUSHB[ ]	/* 28 values pushed */
0 4 4 0 97 1 1 0 0 36 77 6 1 5 5 2 97 0 2 2 40 77 0 3 3 38 3 78
ELSE[ ]	/* Else */
NPUSHB[ ]	/* 32 values pushed */
0 0 0 36 77 0 4 4 1 97 0 1 1 42 77 6 1 5 5 2 97 0 2 2 40 77 0 3 3 38 3 78
EIF[ ]	/* EndIf */
NPUSHB[ ]	/* 14 values pushed */
18 18 18 31 18 30 38 19 38 34 16 7 8 27
CALL[ ]	/* CallFunction */";
};
width = 605;
}
);
note = p;
unicode = 112;
},
{
glyphname = thorn;
kernRight = b;
layers = (
{
layerId = m01;
shapes = (
{
closed = 1;
nodes = (
(92,-220,l),
(142,68,l),
(161,33,o),
(242,-12,o),
(294,-12,qs),
(375,-12,o),
(506,70,o),
(581,210,o),
(581,294,qs),
(581,351,o),
(534,449,o),
(443,508,o),
(379,508,qs),
(277,508,o),
(206,433,q),
(253,700,l),
(125,700,l),
(-36,-220,l)
);
},
{
closed = 1;
nodes = (
(235,100,o),
(168,168,o),
(168,220,qs),
(168,264,o),
(205,345,o),
(279,396,o),
(330,396,qs),
(384,396,o),
(449,326,o),
(449,272,qs),
(449,225,o),
(408,146,o),
(335,100,o),
(288,100,qs)
);
}
);
userData = {
assembly = "NPUSHB[ ]	/* 56 values pushed */
2 1 4 1 15 1 2 5 2 76 0 0 0 33 77 0 4 4 1 97 0 1 1 42 77 6 1 5 5 2 98 0 2 2 40 77 0 3 3 38 3 78 18 18 18 31 18 30 38 19 38 34 16 7 8 27
CALL[ ]	/* CallFunction */";
};
width = 605;
}
);
note = thorn;
unicode = 254;
},
{
glyphname = q;
kernLeft = c;
layers = (
{
layerId = m01;
shapes = (
{
closed = 1;
nodes = (
(349,-220,l),
(477,-220,l),
(602,496,l),
(488,496,l),
(462,428,l),
(419,508,o),
(305,508,qs),
(233,508,o),
(104,434,o),
(25,297,o),
(25,208,qs),
(25,152,o),
(67,52,o),
(157,-12,o),
(223,-12,qs),
(328,-12,o),
(398,71,q)
);
},
{
closed = 1;
nodes = (
(219,100,o),
(157,170,o),
(157,223,qs),
(157,263,o),
(193,343,o),
(266,396,o),
(319,396,qs),
(372,396,o),
(435,332,o),
(435,280,qs),
(435,237,o),
(397,154,o),
(323,100,o),
(272,100,qs)
);
}
);
userData = {
assembly = "MPPEM[ ]	/* MeasurePixelPerEm */
PUSHB[ ]	/* 1 value pushed */
21
LT[ ]	/* LessThan */
IF[ ]	/* If */
NPUSHB[ ]	/* 10 values pushed */
11 1 4 1 16 1 0 5 2 76
ELSE[ ]	/* Else */
NPUSHB[ ]	/* 10 values pushed */
11 1 4 2 16 1 0 5 2 76
EIF[ ]	/* EndIf */
MPPEM[ ]	/* MeasurePixelPerEm */
PUSHB[ ]	/* 1 value pushed */
21
LT[ ]	/* LessThan */
IF[ ]	/* If */
NPUSHB[ ]	/* 28 values pushed */
0 4 4 1 97 2 1 1 1 42 77 6 1 5 5 0 97 0 0 0 40 77 0 3 3 38 3 78
ELSE[ ]	/* Else */
NPUSHB[ ]	/* 32 values pushed */
0 2 2 36 77 0 4 4 1 97 0 1 1 42 77 6 1 5 5 0 97 0 0 0 40 77 0 3 3 38 3 78
EIF[ ]	/* EndIf */
NPUSHB[ ]	/* 14 values pushed */
17 17 17 30 17 29 39 17 18 38 32 7 8 27
CALL[ ]	/* CallFunction */";
};
width = 605;
}
);
note = q;
unicode = 113;
},
{
glyphname = r;
kernLeft = dotlessi;
kernRight = r;
layers = (
{
anchors = (
{
name = bottom;
pos = (74,0);
},
{
name = top;
pos = (226,496);
}
);
layerId = m01;
shapes = (
{
closed = 1;
nodes = (
(130,0,l),
(172,235,ls),
(185,309,o),
(273,373,o),
(342,373,qs),
(377,373,l),
(401,508,l),
(340,508,o),
(237,453,o),
(200,406,q),
(204,496,l),
(89,496,l),
(2,0,l)
);
}
);
userData = {
assembly = "PUSHB[ ]	/* 6 values pushed */
2 1 2 0 1 76
MPPEM[ ]	/* MeasurePixelPerEm */
PUSHB[ ]	/* 1 value pushed */
21
LT[ ]	/* LessThan */
IF[ ]	/* If */
NPUSHB[ ]	/* 17 values pushed */
0 2 2 0 97 1 1 0 0 36 77 0 3 3 34 3 78
ELSE[ ]	/* Else */
NPUSHB[ ]	/* 21 values pushed */
0 0 0 36 77 0 2 2 1 97 0 1 1 42 77 0 3 3 34 3 78
EIF[ ]	/* EndIf */
PUSHB[ ]	/* 7 values pushed */
19 33 19 16 4 8 26
CALL[ ]	/* CallFunction */";
};
width = 363;
}
);
note = r;
unicode = 114;
},
{
glyphname = s;
kernLeft = s;
kernRight = s;
layers = (
{
anchors = (
{
name = bottom;
pos = (205,0);
},
{
name = top;
pos = (293,496);
}
);
layerId = m01;
shapes = (
{
closed = 1;
nodes = (
(283,-12,o),
(390,33,o),
(450,114,o),
(450,166,qs),
(450,222,o),
(364,282,o),
(283,301,qs),
(234,312,o),
(187,336,o),
(187,356,qs),
(187,379,o),
(232,410,o),
(268,410,qs),
(303,410,o),
(346,378,o),
(347,352,q),
(470,352,l),
(472,424,o),
(370,508,o),
(282,508,qs),
(218,508,o),
(117,465,o),
(60,390,o),
(60,342,qs),
(60,269,o),
(150,233,qs),
(182,219,o),
(230,207,qs),
(276,196,o),
(319,173,o),
(319,150,qs),
(319,122,o),
(271,86,o),
(230,86,qs),
(183,86,o),
(134,129,o),
(135,165,q),
(7,165,l),
(3,114,o),
(51,33,o),
(148,-12,o),
(214,-12,qs)
);
}
);
userData = {
assembly = "MPPEM[ ]	/* MeasurePixelPerEm */
PUSHB[ ]	/* 1 value pushed */
21
LT[ ]	/* LessThan */
IF[ ]	/* If */
NPUSHB[ ]	/* 36 values pushed */
0 3 4 0 4 3 114 0 0 1 4 0 1 126 0 4 4 2 97 0 2 2 42 77 0 1 1 5 97 6 1 5 5 40 5 78
ELSE[ ]	/* Else */
NPUSHB[ ]	/* 37 values pushed */
0 3 4 0 4 3 0 128 0 0 1 4 0 1 126 0 4 4 2 97 0 2 2 42 77 0 1 1 5 97 6 1 5 5 40 5 78
EIF[ ]	/* EndIf */
NPUSHB[ ]	/* 14 values pushed */
0 0 0 41 0 40 34 18 44 34 19 7 8 27
CALL[ ]	/* CallFunction */";
};
width = 493;
}
);
note = s;
unicode = 115;
},
{
glyphname = scedilla;
kernLeft = s;
kernRight = s;
layers = (
{
anchors = (
{
name = bottom;
pos = (158,-263);
},
{
name = top;
pos = (293,496);
}
);
layerId = m01;
shapes = (
{
closed = 1;
nodes = (
(195,-263,ls),
(256,-263,o),
(346,-195,o),
(346,-134,qs),
(346,-92,o),
(282,-48,o),
(233,-50,q),
(240,-11,l),
(302,-7,o),
(398,40,o),
(450,118,o),
(450,166,qs),
(450,222,o),
(364,282,o),
(283,301,qs),
(234,312,o),
(187,336,o),
(187,356,qs),
(187,379,o),
(232,410,o),
(268,410,qs),
(303,410,o),
(346,378,o),
(347,352,q),
(470,352,l),
(472,424,o),
(370,508,o),
(282,508,qs),
(218,508,o),
(117,465,o),
(60,390,o),
(60,342,qs),
(60,269,o),
(150,233,qs),
(182,219,o),
(230,207,qs),
(276,196,o),
(319,173,o),
(319,150,qs),
(319,122,o),
(271,86,o),
(230,86,qs),
(183,86,o),
(134,129,o),
(135,165,q),
(7,165,l),
(2,99,o),
(85,5,o),
(161,-8,q),
(141,-118,l),
(202,-118,ls),
(250,-118,o),
(250,-147,qs),
(249,-168,o),
(215,-189,o),
(189,-189,qs),
(77,-189,l),
(64,-263,l)
);
}
);
userData = {
assembly = "PUSHB[ ]	/* 6 values pushed */
8 1 7 3 1 76
MPPEM[ ]	/* MeasurePixelPerEm */
PUSHB[ ]	/* 1 value pushed */
21
LT[ ]	/* LessThan */
IF[ ]	/* If */
NPUSHB[ ]	/* 50 values pushed */
0 5 6 2 6 5 114 0 2 3 6 2 3 126 0 8 0 1 0 8 1 105 0 0 0 9 0 9 100 0 6 6 4 97 0 4 4 42 77 0 3 3 7 97 0 7 7 40 7 78
ELSE[ ]	/* Else */
NPUSHB[ ]	/* 51 values pushed */
0 5 6 2 6 5 2 128 0 2 3 6 2 3 126 0 8 0 1 0 8 1 105 0 0 0 9 0 9 100 0 6 6 4 97 0 4 4 42 77 0 3 3 7 97 0 7 7 40 7 78
EIF[ ]	/* EndIf */
NPUSHB[ ]	/* 14 values pushed */
57 55 17 27 34 18 44 34 20 35 32 10 8 31
CALL[ ]	/* CallFunction */";
};
width = 493;
}
);
note = scedilla;
unicode = 351;
},
{
glyphname = germandbls;
kernRight = germandbls;
layers = (
{
layerId = m01;
shapes = (
{
closed = 1;
nodes = (
(477,-10,o),
(582,39,o),
(639,126,o),
(639,180,qs),
(639,233,o),
(586,298,o),
(525,321,qs),
(472,341,o),
(433,365,o),
(433,382,qs),
(433,399,o),
(461,424,o),
(492,445,qs),
(522,463,o),
(537,475,qs),
(593,518,o),
(593,580,qs),
(593,622,o),
(541,692,o),
(445,732,o),
(381,732,qs),
(255,732,o),
(107,607,o),
(89,509,qs),
(-1,0,l),
(127,0,l),
(215,499,ls),
(239,625,o),
(363,625,qs),
(410,625,o),
(461,590,o),
(461,559,qs),
(461,531,o),
(422,491,o),
(381,464,qs),
(357,447,ls),
(330,428,o),
(301,384,o),
(301,355,qs),
(301,316,o),
(362,264,o),
(432,238,qs),
(476,222,o),
(511,189,o),
(511,165,qs),
(511,128,o),
(461,85,o),
(420,85,qs),
(379,85,o),
(337,133,o),
(340,175,q),
(219,175,l),
(213,90,o),
(314,-10,o),
(409,-10,qs)
);
}
);
userData = {
assembly = "MPPEM[ ]	/* MeasurePixelPerEm */
PUSHB[ ]	/* 1 value pushed */
15
LT[ ]	/* LessThan */
IF[ ]	/* If */
NPUSHB[ ]	/* 30 values pushed */
0 0 2 1 1 0 114 0 2 2 4 97 0 4 4 41 77 0 1 1 3 98 6 5 2 3 3 34 3 78
ELSE[ ]	/* Else */
MPPEM[ ]	/* MeasurePixelPerEm */
PUSHB[ ]	/* 1 value pushed */
25
LT[ ]	/* LessThan */
IF[ ]	/* If */
NPUSHB[ ]	/* 31 values pushed */
0 0 2 1 2 0 1 128 0 2 2 4 97 0 4 4 41 77 0 1 1 3 98 6 5 2 3 3 34 3 78
ELSE[ ]	/* Else */
MPPEM[ ]	/* MeasurePixelPerEm */
PUSHB[ ]	/* 1 value pushed */
29
LT[ ]	/* LessThan */
IF[ ]	/* If */
NPUSHB[ ]	/* 35 values pushed */
0 0 2 1 2 0 1 128 0 2 2 4 97 0 4 4 41 77 0 3 3 34 77 0 1 1 5 98 6 1 5 5 40 5 78
ELSE[ ]	/* Else */
NPUSHB[ ]	/* 33 values pushed */
0 0 2 1 2 0 1 128 0 4 0 2 0 4 2 105 0 3 3 34 77 0 1 1 5 98 6 1 5 5 40 5 78
EIF[ ]	/* EndIf */
EIF[ ]	/* EndIf */
EIF[ ]	/* EndIf */
NPUSHB[ ]	/* 17 values pushed */
0 0 0 54 0 53 34 32 29 28 26 24 34 18 7 8 24
CALL[ ]	/* CallFunction */";
};
width = 670;
}
);
note = germandbls;
unicode = 223;
},
{
glyphname = t;
kernLeft = t;
kernRight = t;
layers = (
{
anchors = (
{
name = bottom;
pos = (179,0);
},
{
name = top;
pos = (230,496);
},
{
name = topright;
pos = (383,992);
}
);
layerId = m01;
shapes = (
{
closed = 1;
nodes = (
(302,0,l),
(322,109,l),
(254,109,ls),
(223,109,o),
(196,129,o),
(196,153,qs),
(196,159,o),
(198,173,qs),
(237,389,l),
(370,389,l),
(390,496,l),
(255,496,l),
(277,617,l),
(148,617,l),
(127,496,l),
(47,496,l),
(28,389,l),
(108,389,l),
(70,174,ls),
(65,144,o),
(65,125,qs),
(65,59,o),
(142,0,o),
(214,0,qs)
);
}
);
userData = {
assembly = "MPPEM[ ]	/* MeasurePixelPerEm */
PUSHB[ ]	/* 1 value pushed */
11
LT[ ]	/* LessThan */
IF[ ]	/* If */
NPUSHB[ ]	/* 30 values pushed */
0 2 1 1 2 112 4 1 0 0 1 95 3 1 1 1 36 77 0 5 5 6 95 7 1 6 6 34 6 78
ELSE[ ]	/* Else */
NPUSHB[ ]	/* 29 values pushed */
0 2 1 2 133 4 1 0 0 1 95 3 1 1 1 36 77 0 5 5 6 95 7 1 6 6 34 6 78
EIF[ ]	/* EndIf */
NPUSHB[ ]	/* 15 values pushed */
0 0 0 23 0 22 37 17 17 17 17 21 8 8 28
CALL[ ]	/* CallFunction */";
};
width = 372;
}
);
note = t;
unicode = 116;
},
{
glyphname = uni0163;
kernLeft = t;
kernRight = t;
layers = (
{
anchors = (
{
name = bottom;
pos = (132,-263);
},
{
name = top;
pos = (230,496);
},
{
name = topright;
pos = (383,992);
}
);
layerId = m01;
shapes = (
{
closed = 1;
nodes = (
(169,-263,ls),
(230,-263,o),
(320,-195,o),
(320,-134,qs),
(320,-92,o),
(256,-48,o),
(207,-50,q),
(216,0,l),
(302,0,l),
(322,109,l),
(254,109,ls),
(223,109,o),
(196,129,o),
(196,153,qs),
(196,159,o),
(198,173,qs),
(237,389,l),
(370,389,l),
(390,496,l),
(255,496,l),
(277,617,l),
(148,617,l),
(127,496,l),
(47,496,l),
(28,389,l),
(108,389,l),
(70,174,ls),
(65,144,o),
(65,125,qs),
(65,36,o),
(138,11,q),
(115,-118,l),
(176,-118,ls),
(224,-118,o),
(224,-147,qs),
(223,-168,o),
(189,-189,o),
(163,-189,qs),
(51,-189,l),
(38,-263,l)
);
}
);
userData = {
assembly = "PUSHB[ ]	/* 6 values pushed */
8 1 8 7 1 76
MPPEM[ ]	/* MeasurePixelPerEm */
PUSHB[ ]	/* 1 value pushed */
11
LT[ ]	/* LessThan */
IF[ ]	/* If */
NPUSHB[ ]	/* 44 values pushed */
0 4 3 3 4 112 0 9 0 1 0 9 1 105 0 0 0 10 0 10 99 6 1 2 2 3 95 5 1 3 3 36 77 0 7 7 8 95 0 8 8 34 8 78
ELSE[ ]	/* Else */
NPUSHB[ ]	/* 43 values pushed */
0 4 3 4 133 0 9 0 1 0 9 1 105 0 0 0 10 0 10 99 6 1 2 2 3 95 5 1 3 3 36 77 0 7 7 8 95 0 8 8 34 8 78
EIF[ ]	/* EndIf */
NPUSHB[ ]	/* 16 values pushed */
39 37 33 32 17 37 17 17 17 17 22 35 32 11 8 31
CALL[ ]	/* CallFunction */";
};
width = 372;
}
);
note = uni0163;
unicode = 355;
},
{
glyphname = u;
kernLeft = u;
layers = (
{
anchors = (
{
name = bottom;
pos = (241,0);
},
{
name = ogonek;
pos = (480,0);
},
{
name = top;
pos = (329,496);
},
{
name = topright;
pos = (603,496);
}
);
layerId = m01;
shapes = (
{
closed = 1;
nodes = (
(243,-12,o),
(338,38,o),
(370,82,q),
(367,0,l),
(480,0,l),
(567,496,l),
(439,496,l),
(393,236,ls),
(382,172,o),
(300,96,o),
(246,96,qs),
(157,96,o),
(157,186,qs),
(157,208,o),
(161,228,qs),
(209,496,l),
(81,496,l),
(31,216,ls),
(25,182,o),
(25,153,qs),
(25,73,o),
(109,-12,o),
(187,-12,qs)
);
}
);
userData = {
assembly = "PUSHB[ ]	/* 6 values pushed */
19 1 3 1 1 76
MPPEM[ ]	/* MeasurePixelPerEm */
PUSHB[ ]	/* 1 value pushed */
21
LT[ ]	/* LessThan */
IF[ ]	/* If */
NPUSHB[ ]	/* 19 values pushed */
2 1 0 0 36 77 0 1 1 3 98 5 4 2 3 3 34 3 78
ELSE[ ]	/* Else */
NPUSHB[ ]	/* 23 values pushed */
2 1 0 0 36 77 0 3 3 34 77 0 1 1 4 98 5 1 4 4 40 4 78
EIF[ ]	/* EndIf */
NPUSHB[ ]	/* 13 values pushed */
0 0 0 22 0 21 17 19 36 21 6 8 26
CALL[ ]	/* CallFunction */";
};
width = 569;
}
);
note = u;
unicode = 117;
},
{
glyphname = uogonek;
kernLeft = u;
layers = (
{
anchors = (
{
name = bottom;
pos = (241,0);
},
{
name = ogonek;
pos = (480,0);
},
{
name = top;
pos = (329,496);
},
{
name = topright;
pos = (603,496);
}
);
layerId = m01;
shapes = (
{
closed = 1;
nodes = (
(243,-12,o),
(338,38,o),
(370,82,q),
(368,20,l),
(301,-12,o),
(245,-84,o),
(245,-126,qs),
(245,-168,o),
(309,-210,o),
(361,-210,qs),
(404,-210,o),
(451,-196,q),
(464,-120,l),
(422,-135,o),
(390,-135,qs),
(369,-135,o),
(345,-117,o),
(345,-102,qs),
(345,-81,o),
(380,-46,o),
(424,-26,qs),
(480,0,l),
(567,496,l),
(439,496,l),
(393,236,ls),
(382,172,o),
(300,96,o),
(246,96,qs),
(157,96,o),
(157,186,qs),
(157,208,o),
(161,228,qs),
(209,496,l),
(81,496,l),
(31,216,ls),
(25,182,o),
(25,153,qs),
(25,73,o),
(109,-12,o),
(187,-12,qs)
);
}
);
userData = {
assembly = "NPUSHB[ ]	/* 11 values pushed */
36 35 2 5 1 26 1 3 5 2 76
MPPEM[ ]	/* MeasurePixelPerEm */
PUSHB[ ]	/* 1 value pushed */
50
LT[ ]	/* LessThan */
IF[ ]	/* If */
NPUSHB[ ]	/* 28 values pushed */
2 1 0 0 36 77 0 1 1 5 98 6 1 5 5 40 77 0 3 3 4 97 0 4 4 38 4 78
ELSE[ ]	/* Else */
NPUSHB[ ]	/* 25 values pushed */
0 3 0 4 3 4 101 2 1 0 0 36 77 0 1 1 5 98 6 1 5 5 40 5 78
EIF[ ]	/* EndIf */
NPUSHB[ ]	/* 14 values pushed */
0 0 0 39 0 38 35 39 19 36 21 7 8 27
CALL[ ]	/* CallFunction */";
};
width = 569;
}
);
note = uogonek;
unicode = 371;
},
{
glyphname = v;
kernLeft = v;
kernRight = v;
layers = (
{
layerId = m01;
shapes = (
{
closed = 1;
nodes = (
(296,0,l),
(570,496,l),
(434,496,l),
(239,120,l),
(175,496,l),
(42,496,l),
(139,0,l)
);
}
);
userData = {
assembly = "NPUSHB[ ]	/* 24 values pushed */
2 1 2 0 1 76 1 1 0 0 36 77 0 2 2 34 2 78 17 18 16 3 8 25
CALL[ ]	/* CallFunction */";
};
width = 523;
}
);
note = v;
unicode = 118;
},
{
glyphname = w;
kernLeft = w;
kernRight = w;
layers = (
{
anchors = (
{
name = bottom;
pos = (338,0);
},
{
name = top;
pos = (426,496);
}
);
layerId = m01;
shapes = (
{
closed = 1;
nodes = (
(233,0,l),
(404,371,l),
(445,0,l),
(578,0,l),
(810,496,l),
(684,496,l),
(534,138,l),
(497,496,l),
(355,496,l),
(192,139,l),
(168,496,l),
(42,496,l),
(100,0,l)
);
}
);
userData = {
assembly = "NPUSHB[ ]	/* 30 values pushed */
10 5 2 3 3 0 1 76 2 1 2 0 0 36 77 4 1 3 3 34 3 78 18 17 18 18 16 5 8 27
CALL[ ]	/* CallFunction */";
};
width = 764;
}
);
note = w;
unicode = 119;
},
{
glyphname = x;
kernLeft = x;
kernRight = x;
layers = (
{
layerId = m01;
shapes = (
{
closed = 1;
nodes = (
(96,0,l),
(215,154,l),
(292,0,l),
(436,0,l),
(313,249,l),
(521,496,l),
(383,496,l),
(263,343,l),
(188,496,l),
(43,496,l),
(166,249,l),
(-42,0,l)
);
}
);
userData = {
assembly = "NPUSHB[ ]	/* 28 values pushed */
9 6 3 3 2 0 1 76 1 1 0 0 36 77 3 1 2 2 34 2 78 18 18 18 17 4 8 26
CALL[ ]	/* CallFunction */";
};
width = 478;
}
);
note = x;
unicode = 120;
},
{
glyphname = y;
kernLeft = y;
kernRight = y;
layers = (
{
anchors = (
{
name = bottom;
pos = (232,0);
},
{
name = top;
pos = (320,496);
}
);
layerId = m01;
shapes = (
{
closed = 1;
nodes = (
(159,-220,l),
(600,496,l),
(464,496,l),
(258,147,l),
(178,496,l),
(41,496,l),
(165,6,l),
(23,-220,l)
);
}
);
userData = {
assembly = "NPUSHB[ ]	/* 24 values pushed */
3 1 2 0 1 76 1 1 0 0 36 77 0 2 2 38 2 78 17 18 17 3 8 25
CALL[ ]	/* CallFunction */";
};
width = 552;
}
);
note = y;
unicode = 121;
},
{
glyphname = z;
kernLeft = z;
kernRight = z;
layers = (
{
anchors = (
{
name = bottom;
pos = (187,0);
},
{
name = top;
pos = (275,496);
}
);
layerId = m01;
shapes = (
{
closed = 1;
nodes = (
(380,0,l),
(400,106,l),
(139,106,l),
(454,393,l),
(473,496,l),
(77,496,l),
(58,390,l),
(308,390,l),
(-5,103,l),
(-24,0,l)
);
}
);
userData = {
assembly = "NPUSHB[ ]	/* 28 values pushed */
0 0 0 1 95 0 1 1 36 77 0 2 2 3 95 0 3 3 34 3 78 17 18 17 17 4 8 26
CALL[ ]	/* CallFunction */";
};
width = 451;
}
);
note = z;
unicode = 122;
},
{
glyphname = uniA78C;
layers = (
{
layerId = m01;
shapes = (
{
closed = 1;
nodes = (
(181,330,l),
(267,700,l),
(130,700,l),
(83,330,l)
);
}
);
userData = {
assembly = "NPUSHB[ ]	/* 16 values pushed */
0 1 1 0 95 0 0 0 33 1 78 17 16 2 8 24
CALL[ ]	/* CallFunction */";
};
width = 237;
}
);
note = uniA78C;
unicode = 42892;
},
{
glyphname = fi;
layers = (
{
anchors = (
{
name = caret_1;
pos = (273,0);
}
);
layerId = m01;
shapes = (
{
closed = 1;
nodes = (
(157,0,l),
(226,389,l),
(315,389,l),
(334,496,l),
(244,496,l),
(251,534,ls),
(257,565,o),
(289,591,o),
(322,591,qs),
(344,591,l),
(364,700,l),
(322,700,ls),
(153,700,o),
(123,534,qs),
(116,496,l),
(59,496,l),
(40,389,l),
(98,389,l),
(29,0,l)
);
},
{
closed = 1;
nodes = (
(450,0,l),
(537,496,l),
(409,496,l),
(322,0,l)
);
},
{
closed = 1;
nodes = (
(533,566,o),
(580,613,o),
(580,646,qs),
(580,680,o),
(533,726,o),
(500,726,qs),
(467,726,o),
(420,680,o),
(420,646,qs),
(420,613,o),
(467,566,o),
(500,566,qs)
);
}
);
userData = {
assembly = "MPPEM[ ]	/* MeasurePixelPerEm */
PUSHB[ ]	/* 1 value pushed */
29
LT[ ]	/* LessThan */
IF[ ]	/* If */
NPUSHB[ ]	/* 41 values pushed */
0 3 3 2 97 0 2 2 33 77 11 1 10 10 9 97 0 9 9 41 77 5 1 0 0 1 95 7 4 2 1 1 36 77 8 1 6 6 34 6 78
ELSE[ ]	/* Else */
MPPEM[ ]	/* MeasurePixelPerEm */
PUSHB[ ]	/* 1 value pushed */
35
LT[ ]	/* LessThan */
IF[ ]	/* If */
NPUSHB[ ]	/* 41 values pushed */
0 3 3 2 97 0 2 2 33 77 11 1 10 10 9 97 0 9 9 39 77 5 1 0 0 1 95 7 4 2 1 1 36 77 8 1 6 6 34 6 78
ELSE[ ]	/* Else */
NPUSHB[ ]	/* 39 values pushed */
0 9 11 1 10 1 9 10 105 0 3 3 2 97 0 2 2 33 77 5 1 0 0 1 95 7 4 2 1 1 36 77 8 1 6 6 34 6 78
EIF[ ]	/* EndIf */
EIF[ ]	/* EndIf */
NPUSHB[ ]	/* 20 values pushed */
23 23 23 34 23 33 29 27 17 17 17 17 19 33 34 17 16 12 8 31
CALL[ ]	/* CallFunction */";
};
width = 545;
}
);
note = fi;
unicode = 64257;
},
{
glyphname = fl;
layers = (
{
anchors = (
{
name = caret_1;
pos = (268,0);
}
);
layerId = m01;
shapes = (
{
closed = 1;
nodes = (
(157,0,l),
(226,389,l),
(315,389,l),
(334,496,l),
(244,496,l),
(251,534,ls),
(257,565,o),
(289,591,o),
(322,591,qs),
(344,591,l),
(364,700,l),
(322,700,ls),
(153,700,o),
(123,534,qs),
(116,496,l),
(59,496,l),
(40,389,l),
(98,389,l),
(29,0,l)
);
},
{
closed = 1;
nodes = (
(444,0,l),
(568,700,l),
(440,700,l),
(316,0,l)
);
}
);
userData = {
assembly = "NPUSHB[ ]	/* 42 values pushed */
0 3 3 2 97 7 1 2 2 33 77 5 1 0 0 1 95 4 1 1 1 36 77 8 1 6 6 34 6 78 17 17 17 17 19 33 34 17 16 9 8 31
CALL[ ]	/* CallFunction */";
};
width = 535;
}
);
note = fl;
unicode = 64258;
},
{
glyphname = ordfeminine;
layers = (
{
layerId = m01;
shapes = (
{
closed = 1;
nodes = (
(197,346,o),
(259,376,o),
(286,406,q),
(293,379,o),
(344,354,o),
(393,354,q),
(407,429,l),
(390,429,o),
(375,439,o),
(375,451,qs),
(376,464,l),
(393,559,ls),
(396,577,o),
(396,594,qs),
(396,649,o),
(329,710,o),
(266,710,qs),
(203,710,o),
(111,646,o),
(89,588,q),
(176,588,l),
(186,610,o),
(226,634,o),
(251,634,qs),
(307,634,o),
(307,581,qs),
(307,575,o),
(305,561,q),
(220,561,ls),
(149,561,o),
(55,495,o),
(55,436,qs),
(55,396,o),
(115,346,o),
(158,346,qs)
);
},
{
closed = 1;
nodes = (
(172,417,o),
(147,434,o),
(147,450,qs),
(147,475,o),
(187,504,o),
(216,504,qs),
(293,504,l),
(283,465,o),
(227,417,o),
(192,417,qs)
);
}
);
userData = {
assembly = "MPPEM[ ]	/* MeasurePixelPerEm */
PUSHB[ ]	/* 1 value pushed */
21
LT[ ]	/* LessThan */
IF[ ]	/* If */
NPUSHB[ ]	/* 10 values pushed */
24 1 4 7 31 1 5 4 2 76
ELSE[ ]	/* Else */
NPUSHB[ ]	/* 10 values pushed */
24 1 4 7 31 1 5 8 2 76
EIF[ ]	/* EndIf */
MPPEM[ ]	/* MeasurePixelPerEm */
PUSHB[ ]	/* 1 value pushed */
21
LT[ ]	/* LessThan */
IF[ ]	/* If */
NPUSHB[ ]	/* 41 values pushed */
0 2 1 0 1 2 0 128 0 0 0 7 4 0 7 103 0 1 1 3 97 0 3 3 59 77 10 8 2 4 4 5 97 9 6 2 5 5 58 5 78
ELSE[ ]	/* Else */
MPPEM[ ]	/* MeasurePixelPerEm */
PUSHB[ ]	/* 1 value pushed */
30
LT[ ]	/* LessThan */
IF[ ]	/* If */
NPUSHB[ ]	/* 52 values pushed */
0 2 1 0 1 2 0 128 0 0 0 7 4 0 7 103 0 1 1 3 97 0 3 3 59 77 0 4 4 5 97 9 6 2 5 5 58 77 10 1 8 8 5 97 9 6 2 5 5 58 5 78
ELSE[ ]	/* Else */
NPUSHB[ ]	/* 49 values pushed */
0 2 1 0 1 2 0 128 0 0 0 7 4 0 7 103 0 1 1 3 97 0 3 3 59 77 0 4 4 5 97 0 5 5 58 77 10 1 8 8 6 97 9 1 6 6 58 6 78
EIF[ ]	/* EndIf */
EIF[ ]	/* EndIf */
NPUSHB[ ]	/* 23 values pushed */
35 35 0 0 35 44 35 43 39 37 0 34 0 33 17 24 34 18 35 36 11 10 28
CALL[ ]	/* CallFunction */";
};
width = 390;
}
);
note = ordfeminine;
unicode = 170;
},
{
glyphname = ordmasculine;
layers = (
{
layerId = m01;
shapes = (
{
closed = 1;
nodes = (
(275,348,o),
(373,404,o),
(429,500,o),
(429,559,qs),
(429,597,o),
(395,667,o),
(325,712,o),
(272,712,qs),
(213,712,o),
(117,657,o),
(62,561,o),
(62,503,qs),
(62,460,o),
(100,389,o),
(171,348,o),
(216,348,qs)
);
},
{
closed = 1;
nodes = (
(196,426,o),
(151,473,o),
(151,510,qs),
(151,561,o),
(212,634,o),
(260,634,qs),
(297,634,o),
(340,585,o),
(340,547,qs),
(340,496,o),
(279,426,o),
(232,426,qs)
);
}
);
userData = {
assembly = "NPUSHB[ ]	/* 41 values pushed */
0 2 2 0 97 0 0 0 59 77 5 1 3 3 1 97 4 1 1 1 58 1 78 16 16 0 0 16 27 16 26 22 20 0 15 0 14 38 6 10 23
CALL[ ]	/* CallFunction */";
};
width = 392;
}
);
note = ordmasculine;
unicode = 186;
},
{
glyphname = uni042F;
layers = (
{
layerId = m01;
shapes = (
{
closed = 1;
nodes = (
(-39,0,l),
(112,0,l),
(336,295,l),
(414,295,l),
(362,0,l),
(490,0,l),
(614,700,l),
(371,700,ls),
(290,700,o),
(163,645,o),
(91,541,o),
(91,470,qs),
(91,413,o),
(156,330,o),
(212,316,q)
);
},
{
closed = 1;
nodes = (
(270,404,o),
(223,451,o),
(223,486,qs),
(223,539,o),
(286,591,o),
(354,591,qs),
(466,591,l),
(434,404,l),
(322,404,ls)
);
}
);
userData = {
assembly = "NPUSHB[ ]	/* 52 values pushed */
14 1 2 5 1 76 3 1 1 2 1 134 0 0 0 4 5 0 4 103 6 1 5 2 2 5 87 6 1 5 5 2 95 0 2 5 2 79 15 15 15 23 15 22 35 17 17 17 37 7 6 27
CALL[ ]	/* CallFunction */";
};
width = 592;
}
);
note = uni042F;
unicode = (1071,1103);
},
{
glyphname = uni0394;
layers = (
{
layerId = m01;
shapes = (
{
closed = 1;
nodes = (
(-31,0,l),
(634,0,l),
(652,98,l),
(478,700,l),
(373,700,l),
(-14,98,l)
);
},
{
closed = 1;
nodes = (
(118,98,l),
(399,555,l),
(521,98,l)
);
}
);
userData = {
assembly = "MPPEM[ ]	/* MeasurePixelPerEm */
PUSHB[ ]	/* 1 value pushed */
42
LT[ ]	/* LessThan */
IF[ ]	/* If */
NPUSHB[ ]	/* 16 values pushed */
0 0 0 23 77 0 2 2 1 95 0 1 1 24 1 78
ELSE[ ]	/* Else */
NPUSHB[ ]	/* 16 values pushed */
0 0 2 0 133 0 2 2 1 95 0 1 1 24 1 78
EIF[ ]	/* EndIf */
PUSHB[ ]	/* 6 values pushed */
19 18 16 3 7 25
CALL[ ]	/* CallFunction */";
};
width = 692;
}
);
note = uni0394;
unicode = 916;
},
{
glyphname = Pi;
layers = (
{
layerId = m01;
shapes = (
{
closed = 1;
nodes = (
(181,0,l),
(252,398,l),
(428,398,l),
(357,0,l),
(485,0,l),
(556,398,l),
(630,398,l),
(648,496,l),
(67,496,l),
(49,398,l),
(124,398,l),
(53,0,l)
);
}
);
userData = {
assembly = "NPUSHB[ ]	/* 26 values pushed */
0 1 4 2 2 0 3 1 0 103 5 1 3 3 24 3 78 17 17 17 17 17 16 6 7 28
CALL[ ]	/* CallFunction */";
};
width = 627;
}
);
note = Pi;
unicode = 928;
},
{
glyphname = uni03A9;
layers = (
{
layerId = m01;
shapes = (
{
closed = 1;
nodes = (
(277,0,l),
(296,102,l),
(244,126,o),
(182,236,o),
(182,305,qs),
(182,376,o),
(242,509,o),
(366,595,o),
(455,595,qs),
(542,595,o),
(643,494,o),
(643,407,qs),
(643,349,o),
(600,231,o),
(511,131,o),
(443,102,q),
(424,0,l),
(697,0,l),
(715,98,l),
(597,98,l),
(682,150,o),
(777,325,o),
(777,428,qs),
(777,503,o),
(709,633,o),
(573,712,o),
(476,712,qs),
(361,712,o),
(167,608,o),
(53,425,o),
(53,311,qs),
(53,252,o),
(100,135,o),
(142,98,q),
(22,98,l),
(4,0,l)
);
}
);
userData = {
assembly = "NPUSHB[ ]	/* 38 values pushed */
33 1 0 4 1 76 0 4 4 1 97 0 1 1 23 77 2 1 0 0 3 95 5 1 3 3 24 3 78 23 39 17 22 38 16 6 7 28
CALL[ ]	/* CallFunction */";
};
width = 787;
}
);
note = uni03A9;
unicode = 937;
},
{
glyphname = uni03BC;
layers = (
{
layerId = m01;
shapes = (
{
closed = 1;
nodes = (
(100,-220,l),
(140,6,l),
(167,-12,o),
(207,-12,qs),
(263,-12,o),
(357,38,o),
(388,81,q),
(386,0,l),
(499,0,l),
(586,496,l),
(458,496,l),
(412,235,ls),
(400,170,o),
(318,96,o),
(265,96,qs),
(176,96,o),
(176,183,qs),
(176,203,o),
(181,228,qs),
(228,496,l),
(100,496,l),
(-28,-220,l)
);
}
);
userData = {
assembly = "PUSHB[ ]	/* 7 values pushed */
19 14 2 3 1 1 76
MPPEM[ ]	/* MeasurePixelPerEm */
PUSHB[ ]	/* 1 value pushed */
42
LT[ ]	/* LessThan */
IF[ ]	/* If */
NPUSHB[ ]	/* 27 values pushed */
2 1 0 1 0 133 0 3 3 24 77 0 1 1 4 97 0 4 4 24 77 0 5 5 25 5 78
ELSE[ ]	/* Else */
NPUSHB[ ]	/* 25 values pushed */
2 1 0 1 0 133 0 1 0 4 5 1 4 105 0 3 3 24 77 0 5 5 25 5 78
EIF[ ]	/* EndIf */
NPUSHB[ ]	/* 9 values pushed */
18 35 17 19 36 16 6 7 28
CALL[ ]	/* CallFunction */";
};
width = 598;
}
);
note = uni03BC;
unicode = 956;
},
{
glyphname = zero;
layers = (
{
layerId = m01;
shapes = (
{
closed = 1;
nodes = (
(367,-12,o),
(518,141,o),
(582,360,o),
(582,464,qs),
(582,580,o),
(481,712,o),
(373,712,qs),
(255,712,o),
(103,563,o),
(35,346,o),
(35,241,qs),
(35,124,o),
(138,-12,o),
(245,-12,qs)
);
},
{
closed = 1;
nodes = (
(215,102,o),
(166,176,o),
(166,246,qs),
(166,324,o),
(203,486,o),
(287,598,o),
(353,598,qs),
(451,598,o),
(451,455,qs),
(451,390,o),
(413,224,o),
(329,102,o),
(265,102,qs)
);
}
);
userData = {
assembly = "NPUSHB[ ]	/* 41 values pushed */
0 2 2 0 97 0 0 0 39 77 5 1 3 3 1 97 4 1 1 1 40 1 78 14 14 0 0 14 26 14 25 20 18 0 13 0 12 37 6 8 23
CALL[ ]	/* CallFunction */";
};
width = 580;
}
);
note = zero;
unicode = 48;
},
{
glyphname = one;
layers = (
{
layerId = m01;
shapes = (
{
closed = 1;
nodes = (
(509,0,l),
(528,109,l),
(363,109,l),
(468,700,l),
(401,700,l),
(150,614,l),
(130,502,l),
(322,559,l),
(242,109,l),
(54,109,l),
(35,0,l)
);
}
);
userData = {
assembly = "NPUSHB[ ]	/* 31 values pushed */
3 2 2 0 1 1 76 0 1 1 33 77 2 1 0 0 3 96 0 3 3 34 3 78 17 17 20 16 4 8 26
CALL[ ]	/* CallFunction */";
};
width = 580;
}
);
note = one;
unicode = 49;
},
{
glyphname = two;
layers = (
{
layerId = m01;
shapes = (
{
closed = 1;
nodes = (
(491,0,l),
(510,109,l),
(198,109,l),
(358,245,l),
(383,266,ls),
(444,318,o),
(518,391,o),
(568,484,o),
(568,537,qs),
(568,613,o),
(470,712,o),
(374,712,qs),
(267,712,o),
(118,592,o),
(95,481,q),
(219,481,l),
(229,534,o),
(298,604,o),
(352,604,qs),
(394,604,o),
(440,557,o),
(440,521,qs),
(440,475,o),
(347,371,o),
(268,304,qs),
(251,289,l),
(25,93,l),
(9,0,l)
);
}
);
userData = {
assembly = "NPUSHB[ ]	/* 37 values pushed */
0 1 0 3 0 1 3 128 0 0 0 2 97 0 2 2 39 77 0 3 3 4 95 0 4 4 34 4 78 17 24 34 18 39 5 8 27
CALL[ ]	/* CallFunction */";
};
width = 580;
}
);
note = two;
unicode = 50;
},
{
glyphname = three;
layers = (
{
layerId = m01;
shapes = (
{
closed = 1;
nodes = (
(336,-12,o),
(469,62,o),
(540,184,o),
(540,254,qs),
(540,325,o),
(455,427,o),
(374,433,q),
(580,594,l),
(599,700,l),
(141,700,l),
(121,591,l),
(419,591,l),
(174,400,l),
(231,317,l),
(269,337,o),
(309,337,qs),
(358,337,o),
(415,289,o),
(415,245,qs),
(415,207,o),
(381,139,o),
(313,97,o),
(265,97,qs),
(214,97,o),
(156,150,o),
(156,194,qs),
(156,200,o),
(158,216,q),
(34,216,l),
(30,193,o),
(30,171,qs),
(30,83,o),
(145,-12,o),
(246,-12,qs)
);
}
);
userData = {
assembly = "NPUSHB[ ]	/* 11 values pushed */
26 20 2 2 3 19 1 0 2 2 76
MPPEM[ ]	/* MeasurePixelPerEm */
PUSHB[ ]	/* 1 value pushed */
11
LT[ ]	/* LessThan */
IF[ ]	/* If */
NPUSHB[ ]	/* 36 values pushed */
0 2 3 0 3 2 0 128 0 0 1 1 0 112 0 3 3 4 95 0 4 4 33 77 0 1 1 5 98 6 1 5 5 40 5 78
ELSE[ ]	/* Else */
NPUSHB[ ]	/* 37 values pushed */
0 2 3 0 3 2 0 128 0 0 1 3 0 1 126 0 3 3 4 95 0 4 4 33 77 0 1 1 5 98 6 1 5 5 40 5 78
EIF[ ]	/* EndIf */
NPUSHB[ ]	/* 14 values pushed */
0 0 0 33 0 32 17 19 37 36 20 7 8 27
CALL[ ]	/* CallFunction */";
};
width = 580;
}
);
note = three;
unicode = 51;
},
{
glyphname = four;
layers = (
{
layerId = m01;
shapes = (
{
closed = 1;
nodes = (
(436,0,l),
(459,130,l),
(540,130,l),
(560,241,l),
(479,241,l),
(511,423,l),
(391,423,l),
(359,241,l),
(168,241,l),
(475,700,l),
(347,700,l),
(29,232,l),
(11,130,l),
(331,130,l),
(308,0,l)
);
}
);
userData = {
assembly = "NPUSHB[ ]	/* 39 values pushed */
0 3 1 2 1 3 2 128 4 1 2 5 1 0 6 2 0 104 0 1 1 33 77 0 6 6 34 6 78 17 17 17 17 17 18 16 7 8 29
CALL[ ]	/* CallFunction */";
};
width = 580;
}
);
note = four;
unicode = 52;
},
{
glyphname = five;
layers = (
{
layerId = m01;
shapes = (
{
closed = 1;
nodes = (
(335,-12,o),
(472,65,o),
(551,200,o),
(551,284,qs),
(551,337,o),
(509,426,o),
(422,481,o),
(358,481,qs),
(269,481,o),
(206,426,q),
(266,588,l),
(559,588,l),
(578,700,l),
(191,700,l),
(60,300,l),
(183,300,l),
(202,331,o),
(272,377,o),
(321,377,qs),
(368,377,o),
(425,314,o),
(425,264,qs),
(425,224,o),
(391,147,o),
(320,97,o),
(269,97,qs),
(220,97,o),
(157,153,o),
(157,197,q),
(32,197,l),
(30,191,o),
(30,179,qs),
(30,93,o),
(150,-12,o),
(252,-12,qs)
);
}
);
userData = {
assembly = "PUSHB[ ]	/* 6 values pushed */
24 1 2 6 1 76
MPPEM[ ]	/* MeasurePixelPerEm */
PUSHB[ ]	/* 1 value pushed */
13
LT[ ]	/* LessThan */
IF[ ]	/* If */
NPUSHB[ ]	/* 46 values pushed */
0 3 2 0 2 3 0 128 0 0 1 1 0 112 0 5 5 4 95 0 4 4 33 77 0 2 2 6 97 0 6 6 36 77 0 1 1 7 98 8 1 7 7 40 7 78
ELSE[ ]	/* Else */
MPPEM[ ]	/* MeasurePixelPerEm */
PUSHB[ ]	/* 1 value pushed */
33
LT[ ]	/* LessThan */
IF[ ]	/* If */
NPUSHB[ ]	/* 47 values pushed */
0 3 2 0 2 3 0 128 0 0 1 2 0 1 126 0 5 5 4 95 0 4 4 33 77 0 2 2 6 97 0 6 6 36 77 0 1 1 7 98 8 1 7 7 40 7 78
ELSE[ ]	/* Else */
NPUSHB[ ]	/* 45 values pushed */
0 3 2 0 2 3 0 128 0 0 1 2 0 1 126 0 6 0 2 3 6 2 105 0 5 5 4 95 0 4 4 33 77 0 1 1 7 98 8 1 7 7 40 7 78
EIF[ ]	/* EndIf */
EIF[ ]	/* EndIf */
NPUSHB[ ]	/* 16 values pushed */
0 0 0 34 0 33 34 17 17 18 37 34 35 9 8 29
CALL[ ]	/* CallFunction */";
};
width = 580;
}
);
note = five;
unicode = 53;
},
{
glyphname = six;
layers = (
{
layerId = m01;
shapes = (
{
closed = 1;
nodes = (
(346,-12,o),
(467,58,o),
(539,182,o),
(539,257,qs),
(539,319,o),
(488,407,o),
(405,452,o),
(357,452,qs),
(254,452,o),
(184,366,q),
(206,478,o),
(301,606,o),
(368,606,qs),
(412,606,o),
(456,555,o),
(456,510,q),
(568,510,l),
(572,558,o),
(538,650,o),
(452,712,o),
(382,712,qs),
(302,712,o),
(151,601,o),
(55,385,o),
(55,235,qs),
(55,175,o),
(94,63,o),
(192,-12,o),
(274,-12,qs)
);
},
{
closed = 1;
nodes = (
(235,98,o),
(178,156,o),
(178,204,qs),
(178,264,o),
(258,344,o),
(318,344,qs),
(365,344,o),
(421,285,o),
(421,238,qs),
(421,201,o),
(388,137,o),
(325,98,o),
(283,98,qs)
);
}
);
userData = {
assembly = "NPUSHB[ ]	/* 66 values pushed */
18 1 5 3 1 76 0 1 2 3 2 1 3 128 0 3 0 5 6 3 5 105 0 2 2 0 97 0 0 0 39 77 8 1 6 6 4 97 7 1 4 4 40 4 78 29 29 0 0 29 41 29 40 36 34 0 28 0 27 35 34 19 38 9 8 26
CALL[ ]	/* CallFunction */";
};
width = 580;
}
);
note = six;
unicode = 54;
},
{
glyphname = seven;
layers = (
{
layerId = m01;
shapes = (
{
closed = 1;
nodes = (
(218,0,l),
(606,609,l),
(622,700,l),
(110,700,l),
(90,591,l),
(465,591,l),
(83,0,l)
);
}
);
userData = {
assembly = "NPUSHB[ ]	/* 22 values pushed */
0 0 0 1 95 0 1 1 33 77 0 2 2 34 2 78 18 17 16 3 8 25
CALL[ ]	/* CallFunction */";
};
width = 580;
}
);
note = seven;
unicode = 55;
},
{
glyphname = eight;
layers = (
{
layerId = m01;
shapes = (
{
closed = 1;
nodes = (
(334,-12,o),
(462,53,o),
(531,163,o),
(531,228,qs),
(531,338,o),
(436,376,q),
(484,396,o),
(568,480,o),
(568,550,qs),
(568,625,o),
(464,712,o),
(371,712,qs),
(291,712,o),
(170,655,o),
(105,558,o),
(105,501,qs),
(105,461,o),
(149,396,o),
(188,376,q),
(118,352,o),
(32,242,o),
(32,171,qs),
(32,87,o),
(147,-12,o),
(250,-12,qs)
);
},
{
closed = 1;
nodes = (
(217,95,o),
(157,147,o),
(157,190,qs),
(157,233,o),
(202,291,o),
(268,319,o),
(301,319,qs),
(349,319,o),
(408,270,o),
(408,225,qs),
(408,183,o),
(365,124,o),
(299,95,o),
(266,95,qs)
);
},
{
closed = 1;
nodes = (
(280,414,o),
(228,457,o),
(228,498,qs),
(228,546,o),
(300,608,o),
(351,608,qs),
(393,608,o),
(442,565,o),
(442,526,qs),
(442,493,o),
(408,442,o),
(352,414,o),
(322,414,qs)
);
}
);
userData = {
assembly = "NPUSHB[ ]	/* 65 values pushed */
18 5 2 2 5 1 76 8 1 5 0 2 3 5 2 105 0 4 4 0 97 0 0 0 39 77 7 1 3 3 1 97 6 1 1 1 40 1 78 39 39 25 25 0 0 39 51 39 50 46 44 25 38 25 37 32 30 0 24 0 23 43 9 8 23
CALL[ ]	/* CallFunction */";
};
width = 580;
}
);
note = eight;
unicode = 56;
},
{
glyphname = nine;
layers = (
{
layerId = m01;
shapes = (
{
closed = 1;
nodes = (
(315,-12,o),
(466,99,o),
(562,315,o),
(562,465,qs),
(562,525,o),
(523,637,o),
(425,712,o),
(343,712,qs),
(271,712,o),
(150,642,o),
(78,518,o),
(78,443,qs),
(78,381,o),
(129,293,o),
(212,248,o),
(260,248,qs),
(363,248,o),
(433,334,q),
(411,222,o),
(316,94,o),
(249,94,qs),
(205,94,o),
(161,145,o),
(161,190,q),
(49,190,l),
(45,142,o),
(79,50,o),
(165,-12,o),
(235,-12,qs)
);
},
{
closed = 1;
nodes = (
(252,356,o),
(196,415,o),
(196,462,qs),
(196,499,o),
(229,563,o),
(292,602,o),
(334,602,qs),
(382,602,o),
(439,544,o),
(439,496,qs),
(439,436,o),
(359,356,o),
(299,356,qs)
);
}
);
userData = {
assembly = "NPUSHB[ ]	/* 66 values pushed */
10 1 2 6 1 76 0 0 2 1 2 0 1 128 8 1 6 0 2 0 6 2 105 0 5 5 3 97 0 3 3 39 77 0 1 1 4 97 7 1 4 4 40 4 78 29 29 0 0 29 41 29 40 35 33 0 28 0 27 38 35 34 19 9 8 26
CALL[ ]	/* CallFunction */";
};
width = 580;
}
);
note = nine;
unicode = 57;
},
{
glyphname = uni24EA;
layers = (
{
layerId = m01;
shapes = (
{
closed = 1;
nodes = (
(511,-12,o),
(678,85,o),
(775,252,o),
(775,350,qs),
(775,448,o),
(678,615,o),
(511,712,o),
(413,712,qs),
(315,712,o),
(148,615,o),
(51,448,o),
(51,350,qs),
(51,252,o),
(148,85,o),
(315,-12,o),
(413,-12,qs)
);
},
{
closed = 1;
nodes = (
(331,56,o),
(197,133,o),
(120,267,o),
(120,350,qs),
(120,433,o),
(197,567,o),
(331,644,o),
(413,644,qs),
(496,644,o),
(630,567,o),
(707,433,o),
(707,350,qs),
(707,267,o),
(630,133,o),
(496,56,o),
(413,56,qs)
);
},
{
closed = 1;
nodes = (
(483,165,o),
(516,215,qs),
(548,265,o),
(548,350,qs),
(548,435,o),
(516,485,qs),
(483,535,o),
(414,535,qs),
(344,535,o),
(311,484,qs),
(279,436,o),
(279,350,qs),
(279,264,o),
(311,216,qs),
(344,165,o),
(414,165,qs)
);
},
{
closed = 1;
nodes = (
(387,236,o),
(373,266,qs),
(360,295,o),
(360,350,qs),
(360,405,o),
(373,434,qs),
(386,463,o),
(414,463,qs),
(441,463,o),
(454,434,qs),
(467,402,o),
(467,350,qs),
(467,299,o),
(454,266,qs),
(441,236,o),
(414,236,qs)
);
}
);
userData = {
assembly = "NPUSHB[ ]	/* 75 values pushed */
0 4 0 6 7 4 6 105 11 1 7 10 1 5 3 7 5 105 0 2 2 0 97 0 0 0 39 77 9 1 3 3 1 97 8 1 1 1 40 1 78 48 48 32 32 16 16 0 0 48 63 48 62 56 54 32 47 32 46 40 38 16 31 16 30 24 22 0 15 0 14 38 12 8 23
CALL[ ]	/* CallFunction */";
};
width = 790;
}
);
note = uni24EA;
unicode = 9450;
},
{
glyphname = uni2780;
layers = (
{
layerId = m01;
shapes = (
{
closed = 1;
nodes = (
(511,-12,o),
(678,85,o),
(775,252,o),
(775,350,qs),
(775,448,o),
(678,615,o),
(511,712,o),
(413,712,qs),
(315,712,o),
(148,615,o),
(51,448,o),
(51,350,qs),
(51,252,o),
(148,85,o),
(315,-12,o),
(413,-12,qs)
);
},
{
closed = 1;
nodes = (
(331,56,o),
(197,133,o),
(120,267,o),
(120,350,qs),
(120,433,o),
(197,567,o),
(331,644,o),
(413,644,qs),
(496,644,o),
(630,567,o),
(707,433,o),
(707,350,qs),
(707,267,o),
(630,133,o),
(496,56,o),
(413,56,qs)
);
},
{
closed = 1;
nodes = (
(543,176,l),
(543,246,l),
(463,246,l),
(463,533,l),
(421,533,l),
(305,492,l),
(305,429,l),
(388,444,l),
(388,246,l),
(301,246,l),
(301,176,l)
);
}
);
userData = {
assembly = "NPUSHB[ ]	/* 74 values pushed */
36 35 34 3 4 5 1 76 0 5 2 4 2 5 4 128 6 1 4 0 7 3 4 7 104 0 2 2 0 97 0 0 0 39 77 9 1 3 3 1 97 8 1 1 1 40 1 78 16 16 0 0 42 41 40 39 38 37 33 32 16 31 16 30 24 22 0 15 0 14 38 10 8 23
CALL[ ]	/* CallFunction */";
};
width = 790;
}
);
note = uni2780;
unicode = 10112;
},
{
glyphname = uni2781;
layers = (
{
layerId = m01;
shapes = (
{
closed = 1;
nodes = (
(511,-12,o),
(678,85,o),
(775,252,o),
(775,350,qs),
(775,448,o),
(678,615,o),
(511,712,o),
(413,712,qs),
(315,712,o),
(148,615,o),
(51,448,o),
(51,350,qs),
(51,252,o),
(148,85,o),
(315,-12,o),
(413,-12,qs)
);
},
{
closed = 1;
nodes = (
(331,56,o),
(197,133,o),
(120,267,o),
(120,350,qs),
(120,433,o),
(197,567,o),
(331,644,o),
(413,644,qs),
(496,644,o),
(630,567,o),
(707,433,o),
(707,350,qs),
(707,267,o),
(630,133,o),
(496,56,o),
(413,56,qs)
);
},
{
closed = 1;
nodes = (
(542,176,l),
(542,246,l),
(400,246,l),
(445,290,ls),
(476,320,o),
(509,356,o),
(535,405,o),
(535,432,qs),
(535,482,o),
(469,540,o),
(415,540,qs),
(359,540,o),
(289,480,o),
(288,418,q),
(365,418,l),
(365,441,o),
(389,472,o),
(413,472,qs),
(435,472,o),
(457,449,o),
(457,428,qs),
(457,409,o),
(424,369,o),
(391,336,qs),
(288,230,l),
(288,176,l)
);
}
);
userData = {
assembly = "PUSHB[ ]	/* 6 values pushed */
32 1 8 7 1 76
MPPEM[ ]	/* MeasurePixelPerEm */
PUSHB[ ]	/* 1 value pushed */
23
LT[ ]	/* LessThan */
IF[ ]	/* If */
NPUSHB[ ]	/* 46 values pushed */
0 5 4 7 4 5 114 0 6 0 4 5 6 4 105 0 7 0 8 3 7 8 103 0 2 2 0 97 0 0 0 39 77 10 1 3 3 1 97 9 1 1 1 40 1 78
ELSE[ ]	/* Else */
NPUSHB[ ]	/* 47 values pushed */
0 5 4 7 4 5 7 128 0 6 0 4 5 6 4 105 0 7 0 8 3 7 8 103 0 2 2 0 97 0 0 0 39 77 10 1 3 3 1 97 9 1 1 1 40 1 78
EIF[ ]	/* EndIf */
NPUSHB[ ]	/* 28 values pushed */
16 16 0 0 57 56 55 54 47 45 43 42 40 38 16 31 16 30 24 22 0 15 0 14 38 11 8 23
CALL[ ]	/* CallFunction */";
};
width = 790;
}
);
note = uni2781;
unicode = 10113;
},
{
glyphname = uni2782;
layers = (
{
layerId = m01;
shapes = (
{
closed = 1;
nodes = (
(511,-12,o),
(678,85,o),
(775,252,o),
(775,350,qs),
(775,448,o),
(678,615,o),
(511,712,o),
(413,712,qs),
(315,712,o),
(148,615,o),
(51,448,o),
(51,350,qs),
(51,252,o),
(148,85,o),
(315,-12,o),
(413,-12,qs)
);
},
{
closed = 1;
nodes = (
(331,56,o),
(197,133,o),
(120,267,o),
(120,350,qs),
(120,433,o),
(197,567,o),
(331,644,o),
(413,644,qs),
(496,644,o),
(630,567,o),
(707,433,o),
(707,350,qs),
(707,267,o),
(630,133,o),
(496,56,o),
(413,56,qs)
);
},
{
closed = 1;
nodes = (
(471,158,o),
(544,223,o),
(544,280,qs),
(544,322,o),
(502,382,o),
(455,390,q),
(533,454,l),
(533,522,l),
(291,522,l),
(291,453,l),
(433,453,l),
(334,370,l),
(377,320,l),
(394,330,o),
(414,330,qs),
(435,330,o),
(467,304,o),
(467,279,qs),
(467,252,o),
(438,227,o),
(414,227,qs),
(391,227,o),
(360,254,o),
(360,283,q),
(283,283,l),
(282,222,o),
(353,158,o),
(414,158,qs)
);
}
);
userData = {
assembly = "NPUSHB[ ]	/* 15 values pushed */
52 1 7 8 53 47 2 6 7 46 1 4 6 3 76
MPPEM[ ]	/* MeasurePixelPerEm */
PUSHB[ ]	/* 1 value pushed */
11
LT[ ]	/* LessThan */
IF[ ]	/* If */
NPUSHB[ ]	/* 53 values pushed */
0 6 7 4 7 6 114 0 4 5 5 4 112 0 8 0 7 6 8 7 103 0 5 12 1 9 3 5 9 106 0 2 2 0 97 0 0 0 39 77 11 1 3 3 1 97 10 1 1 1 40 1 78
ELSE[ ]	/* Else */
MPPEM[ ]	/* MeasurePixelPerEm */
PUSHB[ ]	/* 1 value pushed */
23
LT[ ]	/* LessThan */
IF[ ]	/* If */
NPUSHB[ ]	/* 54 values pushed */
0 6 7 4 7 6 4 128 0 4 5 5 4 112 0 8 0 7 6 8 7 103 0 5 12 1 9 3 5 9 106 0 2 2 0 97 0 0 0 39 77 11 1 3 3 1 97 10 1 1 1 40 1 78
ELSE[ ]	/* Else */
NPUSHB[ ]	/* 55 values pushed */
0 6 7 4 7 6 4 128 0 4 5 7 4 5 126 0 8 0 7 6 8 7 103 0 5 12 1 9 3 5 9 106 0 2 2 0 97 0 0 0 39 77 11 1 3 3 1 97 10 1 1 1 40 1 78
EIF[ ]	/* EndIf */
EIF[ ]	/* EndIf */
NPUSHB[ ]	/* 34 values pushed */
32 32 16 16 0 0 32 59 32 58 51 50 49 48 45 43 39 37 35 34 16 31 16 30 24 22 0 15 0 14 38 13 8 23
CALL[ ]	/* CallFunction */";
};
width = 790;
}
);
note = uni2782;
unicode = 10114;
},
{
glyphname = uni2783;
layers = (
{
layerId = m01;
shapes = (
{
closed = 1;
nodes = (
(511,-12,o),
(678,85,o),
(775,252,o),
(775,350,qs),
(775,448,o),
(678,615,o),
(511,712,o),
(413,712,qs),
(315,712,o),
(148,615,o),
(51,448,o),
(51,350,qs),
(51,252,o),
(148,85,o),
(315,-12,o),
(413,-12,qs)
);
},
{
closed = 1;
nodes = (
(506,176,l),
(506,236,l),
(540,236,l),
(540,305,l),
(506,305,l),
(506,392,l),
(431,392,l),
(431,305,l),
(346,305,l),
(457,533,l),
(379,533,l),
(261,301,l),
(261,236,l),
(425,236,l),
(425,176,l)
);
},
{
closed = 1;
nodes = (
(331,56,o),
(197,133,o),
(120,267,o),
(120,350,qs),
(120,433,o),
(197,567,o),
(331,644,o),
(413,644,qs),
(496,644,o),
(630,567,o),
(707,433,o),
(707,350,qs),
(707,267,o),
(630,133,o),
(496,56,o),
(413,56,qs)
);
}
);
userData = {
assembly = "NPUSHB[ ]	/* 87 values pushed */
18 1 2 4 1 76 0 3 9 5 9 3 5 128 6 1 4 7 1 2 8 4 2 104 0 5 0 8 10 5 8 103 0 9 9 0 97 0 0 0 39 77 12 1 10 10 1 97 11 1 1 1 40 1 78 31 31 0 0 31 46 31 45 39 37 30 29 28 27 26 25 24 23 22 21 20 19 17 16 0 15 0 14 38 13 8 23
CALL[ ]	/* CallFunction */";
};
width = 790;
}
);
note = uni2783;
unicode = 10115;
},
{
glyphname = uni2784;
layers = (
{
layerId = m01;
shapes = (
{
closed = 1;
nodes = (
(511,-12,o),
(678,85,o),
(775,252,o),
(775,350,qs),
(775,448,o),
(678,615,o),
(511,712,o),
(413,712,qs),
(315,712,o),
(148,615,o),
(51,448,o),
(51,350,qs),
(51,252,o),
(148,85,o),
(315,-12,o),
(413,-12,qs)
);
},
{
closed = 1;
nodes = (
(331,56,o),
(197,133,o),
(120,267,o),
(120,350,qs),
(120,433,o),
(197,567,o),
(331,644,o),
(413,644,qs),
(496,644,o),
(630,567,o),
(707,433,o),
(707,350,qs),
(707,267,o),
(630,133,o),
(496,56,o),
(413,56,qs)
);
},
{
closed = 1;
nodes = (
(473,160,o),
(546,234,o),
(546,291,qs),
(546,341,o),
(487,413,o),
(431,413,qs),
(412,413,o),
(375,400,o),
(363,388,q),
(377,454,l),
(523,454,l),
(523,524,l),
(317,524,l),
(287,314,l),
(364,314,l),
(370,329,o),
(400,348,o),
(417,348,qs),
(441,348,o),
(469,316,o),
(469,291,qs),
(469,265,o),
(439,229,o),
(416,229,qs),
(396,229,o),
(366,251,o),
(361,270,q),
(283,270,l),
(285,218,o),
(360,160,o),
(416,160,qs)
);
}
);
userData = {
assembly = "PUSHB[ ]	/* 6 values pushed */
53 1 6 10 1 76
MPPEM[ ]	/* MeasurePixelPerEm */
PUSHB[ ]	/* 1 value pushed */
9
LT[ ]	/* LessThan */
IF[ ]	/* If */
NPUSHB[ ]	/* 62 values pushed */
0 7 6 4 9 7 114 0 4 5 6 4 5 126 0 8 0 9 10 8 9 103 0 10 0 6 7 10 6 105 0 5 14 1 11 3 5 11 105 0 2 2 0 97 0 0 0 39 77 13 1 3 3 1 98 12 1 1 1 40 1 78
ELSE[ ]	/* Else */
NPUSHB[ ]	/* 63 values pushed */
0 7 6 4 6 7 4 128 0 4 5 6 4 5 126 0 8 0 9 10 8 9 103 0 10 0 6 7 10 6 105 0 5 14 1 11 3 5 11 105 0 2 2 0 97 0 0 0 39 77 13 1 3 3 1 98 12 1 1 1 40 1 78
EIF[ ]	/* EndIf */
NPUSHB[ ]	/* 38 values pushed */
32 32 16 16 0 0 32 62 32 61 57 55 52 51 50 49 48 47 45 43 39 37 35 34 16 31 16 30 24 22 0 15 0 14 38 15 8 23
CALL[ ]	/* CallFunction */";
};
width = 790;
}
);
note = uni2784;
unicode = 10116;
},
{
glyphname = uni2785;
layers = (
{
layerId = m01;
shapes = (
{
closed = 1;
nodes = (
(511,-12,o),
(678,85,o),
(775,252,o),
(775,350,qs),
(775,448,o),
(678,615,o),
(511,712,o),
(413,712,qs),
(315,712,o),
(148,615,o),
(51,448,o),
(51,350,qs),
(51,252,o),
(148,85,o),
(315,-12,o),
(413,-12,qs)
);
},
{
closed = 1;
nodes = (
(331,56,o),
(197,133,o),
(120,267,o),
(120,350,qs),
(120,433,o),
(197,567,o),
(331,644,o),
(413,644,qs),
(496,644,o),
(630,567,o),
(707,433,o),
(707,350,qs),
(707,267,o),
(630,133,o),
(496,56,o),
(413,56,qs)
);
},
{
closed = 1;
nodes = (
(393,233,o),
(365,263,o),
(365,286,qs),
(365,308,o),
(393,336,o),
(414,336,qs),
(435,336,o),
(465,310,o),
(465,284,qs),
(465,259,o),
(435,233,o),
(416,233,qs)
);
},
{
closed = 1;
nodes = (
(475,165,o),
(541,237,o),
(541,287,qs),
(541,333,o),
(483,404,o),
(437,404,qs),
(411,404,o),
(369,378,o),
(358,359,q),
(359,407,o),
(383,470,o),
(417,470,qs),
(436,470,o),
(459,448,o),
(463,428,q),
(536,428,l),
(534,474,o),
(468,535,o),
(417,535,qs),
(347,535,o),
(278,422,o),
(278,340,qs),
(278,264,o),
(349,165,o),
(420,165,qs)
);
}
);
userData = {
assembly = "PUSHB[ ]	/* 6 values pushed */
59 1 4 9 1 76
MPPEM[ ]	/* MeasurePixelPerEm */
PUSHB[ ]	/* 1 value pushed */
30
LT[ ]	/* LessThan */
IF[ ]	/* If */
NPUSHB[ ]	/* 56 values pushed */
0 7 8 9 8 7 114 0 6 0 8 7 6 8 105 0 9 0 4 5 9 4 105 13 1 5 14 1 10 3 5 10 105 0 2 2 0 97 0 0 0 39 77 12 1 3 3 1 97 11 1 1 1 40 1 78
ELSE[ ]	/* Else */
NPUSHB[ ]	/* 57 values pushed */
0 7 8 9 8 7 9 128 0 6 0 8 7 6 8 105 0 9 0 4 5 9 4 105 13 1 5 14 1 10 3 5 10 105 0 2 2 0 97 0 0 0 39 77 12 1 3 3 1 97 11 1 1 1 40 1 78
EIF[ ]	/* EndIf */
NPUSHB[ ]	/* 40 values pushed */
44 44 32 32 16 16 0 0 44 68 44 67 63 61 57 55 53 52 50 48 32 43 32 42 38 36 16 31 16 30 24 22 0 15 0 14 38 15 8 23
CALL[ ]	/* CallFunction */";
};
width = 790;
}
);
note = uni2785;
unicode = 10117;
},
{
glyphname = uni2786;
layers = (
{
layerId = m01;
shapes = (
{
closed = 1;
nodes = (
(511,-12,o),
(678,85,o),
(775,252,o),
(775,350,qs),
(775,448,o),
(678,615,o),
(511,712,o),
(413,712,qs),
(315,712,o),
(148,615,o),
(51,448,o),
(51,350,qs),
(51,252,o),
(148,85,o),
(315,-12,o),
(413,-12,qs)
);
},
{
closed = 1;
nodes = (
(412,167,l),
(550,468,l),
(550,524,l),
(281,524,l),
(281,456,l),
(464,456,l),
(329,167,l)
);
},
{
closed = 1;
nodes = (
(331,56,o),
(197,133,o),
(120,267,o),
(120,350,qs),
(120,433,o),
(197,567,o),
(331,644,o),
(413,644,qs),
(496,644,o),
(630,567,o),
(707,433,o),
(707,350,qs),
(707,267,o),
(630,133,o),
(496,56,o),
(413,56,qs)
);
}
);
userData = {
assembly = "NPUSHB[ ]	/* 69 values pushed */
20 1 2 3 1 76 0 4 2 6 2 4 6 128 0 3 0 2 4 3 2 103 0 5 5 0 97 0 0 0 39 77 8 1 6 6 1 97 7 1 1 1 40 1 78 23 23 0 0 23 38 23 37 31 29 22 21 19 18 17 16 0 15 0 14 38 9 8 23
CALL[ ]	/* CallFunction */";
};
width = 790;
}
);
note = uni2786;
unicode = 10118;
},
{
glyphname = uni2787;
layers = (
{
layerId = m01;
shapes = (
{
closed = 1;
nodes = (
(511,-12,o),
(678,85,o),
(775,252,o),
(775,350,qs),
(775,448,o),
(678,615,o),
(511,712,o),
(413,712,qs),
(315,712,o),
(148,615,o),
(51,448,o),
(51,350,qs),
(51,252,o),
(148,85,o),
(315,-12,o),
(413,-12,qs)
);
},
{
closed = 1;
nodes = (
(364,231,o),
(364,280,qs),
(364,305,o),
(392,330,o),
(415,330,qs),
(438,330,o),
(464,303,o),
(464,280,qs),
(464,257,o),
(438,231,o),
(415,231,qs)
);
},
{
closed = 1;
nodes = (
(331,56,o),
(197,133,o),
(120,267,o),
(120,350,qs),
(120,433,o),
(197,567,o),
(331,644,o),
(413,644,qs),
(496,644,o),
(630,567,o),
(707,433,o),
(707,350,qs),
(707,267,o),
(630,133,o),
(496,56,o),
(413,56,qs)
);
},
{
closed = 1;
nodes = (
(468,165,o),
(542,222,o),
(542,272,qs),
(542,340,o),
(488,364,q),
(507,374,o),
(533,413,o),
(533,439,qs),
(533,487,o),
(462,535,o),
(414,535,qs),
(361,535,o),
(293,484,o),
(293,439,qs),
(293,393,o),
(339,364,q),
(285,337,o),
(285,272,qs),
(285,224,o),
(361,165,o),
(414,165,qs)
);
},
{
closed = 1;
nodes = (
(395,386,o),
(373,408,o),
(373,428,qs),
(373,471,o),
(414,471,qs),
(454,471,o),
(454,428,qs),
(454,386,o),
(414,386,qs)
);
}
);
userData = {
assembly = "NPUSHB[ ]	/* 99 values pushed */
58 47 2 2 9 1 76 0 6 0 8 9 6 8 105 14 1 9 0 2 3 9 2 105 11 1 3 13 1 7 5 3 7 105 0 4 4 0 97 0 0 0 39 77 12 1 5 5 1 97 10 1 1 1 40 1 78 64 64 43 43 27 27 16 16 0 0 64 72 64 71 68 66 43 63 43 62 53 51 27 42 27 41 35 33 16 26 16 25 22 20 0 15 0 14 38 15 8 23
CALL[ ]	/* CallFunction */";
};
width = 790;
}
);
note = uni2787;
unicode = 10119;
},
{
glyphname = uni2788;
layers = (
{
layerId = m01;
shapes = (
{
closed = 1;
nodes = (
(511,-12,o),
(678,85,o),
(775,252,o),
(775,350,qs),
(775,448,o),
(678,615,o),
(511,712,o),
(413,712,qs),
(315,712,o),
(148,615,o),
(51,448,o),
(51,350,qs),
(51,252,o),
(148,85,o),
(315,-12,o),
(413,-12,qs)
);
},
{
closed = 1;
nodes = (
(331,56,o),
(197,133,o),
(120,267,o),
(120,350,qs),
(120,433,o),
(197,567,o),
(331,644,o),
(413,644,qs),
(496,644,o),
(630,567,o),
(707,433,o),
(707,350,qs),
(707,267,o),
(630,133,o),
(496,56,o),
(413,56,qs)
);
},
{
closed = 1;
nodes = (
(477,165,o),
(547,274,o),
(547,360,qs),
(547,435,o),
(479,535,o),
(405,535,qs),
(351,535,o),
(285,464,o),
(285,413,qs),
(285,374,o),
(318,321,o),
(366,296,o),
(389,296,qs),
(415,296,o),
(455,322,o),
(468,341,q),
(465,230,o),
(409,230,qs),
(373,230,o),
(363,272,q),
(290,272,l),
(290,246,o),
(318,196,o),
(372,165,o),
(408,165,qs)
);
},
{
closed = 1;
nodes = (
(389,364,o),
(360,393,o),
(360,416,qs),
(360,438,o),
(389,467,o),
(409,467,qs),
(431,467,o),
(461,437,o),
(461,414,qs),
(461,393,o),
(432,364,o),
(411,364,qs)
);
}
);
userData = {
assembly = "NPUSHB[ ]	/* 103 values pushed */
40 1 6 10 1 76 0 4 6 5 6 4 5 128 0 7 0 9 10 7 9 105 14 1 10 0 6 4 10 6 105 0 5 13 1 8 3 5 8 105 0 2 2 0 97 0 0 0 39 77 12 1 3 3 1 98 11 1 1 1 40 1 78 57 57 32 32 16 16 0 0 57 68 57 67 63 61 32 56 32 55 51 49 44 42 39 37 36 35 16 31 16 30 24 22 0 15 0 14 38 15 8 23
CALL[ ]	/* CallFunction */";
};
width = 790;
}
);
note = uni2788;
unicode = 10120;
},
{
glyphname = uni278A;
layers = (
{
layerId = m01;
shapes = (
{
closed = 1;
nodes = (
(511,-12,o),
(678,85,o),
(775,252,o),
(775,350,qs),
(775,448,o),
(678,615,o),
(511,712,o),
(413,712,qs),
(315,712,o),
(148,615,o),
(51,448,o),
(51,350,qs),
(51,252,o),
(148,85,o),
(315,-12,o),
(413,-12,qs)
);
},
{
closed = 1;
nodes = (
(301,246,l),
(388,246,l),
(388,444,l),
(305,429,l),
(305,492,l),
(421,533,l),
(463,533,l),
(463,246,l),
(543,246,l),
(543,176,l),
(301,176,l)
);
}
);
userData = {
assembly = "NPUSHB[ ]	/* 62 values pushed */
23 22 21 3 2 3 1 76 4 1 2 3 5 3 2 5 128 0 3 3 0 97 0 0 0 39 77 7 1 5 5 1 97 6 1 1 1 40 1 78 16 16 0 0 16 26 16 26 25 24 20 19 18 17 0 15 0 14 38 8 8 23
CALL[ ]	/* CallFunction */";
};
width = 790;
}
);
note = uni278A;
unicode = 10122;
},
{
glyphname = uni278B;
layers = (
{
layerId = m01;
shapes = (
{
closed = 1;
nodes = (
(511,-12,o),
(678,85,o),
(775,252,o),
(775,350,qs),
(775,448,o),
(678,615,o),
(511,712,o),
(413,712,qs),
(315,712,o),
(148,615,o),
(51,448,o),
(51,350,qs),
(51,252,o),
(148,85,o),
(315,-12,o),
(413,-12,qs)
);
},
{
closed = 1;
nodes = (
(288,230,l),
(391,336,ls),
(424,369,o),
(457,409,o),
(457,428,qs),
(457,449,o),
(435,472,o),
(413,472,qs),
(389,472,o),
(365,441,o),
(365,418,q),
(288,418,l),
(289,480,o),
(359,540,o),
(415,540,qs),
(469,540,o),
(535,482,o),
(535,432,qs),
(535,405,o),
(509,356,o),
(476,320,o),
(445,290,qs),
(400,246,l),
(542,246,l),
(542,176,l),
(288,176,l)
);
}
);
userData = {
assembly = "PUSHB[ ]	/* 6 values pushed */
40 1 6 2 1 76
MPPEM[ ]	/* MeasurePixelPerEm */
PUSHB[ ]	/* 1 value pushed */
21
LT[ ]	/* LessThan */
IF[ ]	/* If */
NPUSHB[ ]	/* 41 values pushed */
0 4 5 2 5 4 2 128 0 3 3 0 97 0 0 0 39 77 0 2 2 5 97 0 5 5 36 77 8 1 6 6 1 98 7 1 1 1 40 1 78
ELSE[ ]	/* Else */
NPUSHB[ ]	/* 39 values pushed */
0 4 5 2 5 4 2 128 0 5 0 2 6 5 2 103 0 3 3 0 97 0 0 0 39 77 8 1 6 6 1 98 7 1 1 1 40 1 78
EIF[ ]	/* EndIf */
NPUSHB[ ]	/* 24 values pushed */
16 16 0 0 16 41 16 41 34 32 30 29 27 25 18 17 0 15 0 14 38 9 8 23
CALL[ ]	/* CallFunction */";
};
width = 790;
}
);
note = uni278B;
unicode = 10123;
},
{
glyphname = uni278C;
layers = (
{
layerId = m01;
shapes = (
{
closed = 1;
nodes = (
(511,-12,o),
(678,85,o),
(775,252,o),
(775,350,qs),
(775,448,o),
(678,615,o),
(511,712,o),
(413,712,qs),
(315,712,o),
(148,615,o),
(51,448,o),
(51,350,qs),
(51,252,o),
(148,85,o),
(315,-12,o),
(413,-12,qs)
);
},
{
closed = 1;
nodes = (
(353,158,o),
(282,222,o),
(283,283,q),
(360,283,l),
(360,254,o),
(391,227,o),
(414,227,qs),
(438,227,o),
(467,252,o),
(467,279,qs),
(467,304,o),
(435,330,o),
(414,330,qs),
(394,330,o),
(377,320,q),
(334,370,l),
(433,453,l),
(291,453,l),
(291,522,l),
(533,522,l),
(533,454,l),
(455,390,l),
(502,382,o),
(544,322,o),
(544,280,qs),
(544,223,o),
(471,158,o),
(414,158,qs)
);
}
);
userData = {
assembly = "NPUSHB[ ]	/* 80 values pushed */
22 1 3 2 27 21 2 4 3 28 1 6 4 3 76 0 3 0 6 5 3 6 103 0 4 0 5 7 4 5 105 0 2 2 0 97 0 0 0 39 77 9 1 7 7 1 97 8 1 1 1 40 1 78 16 16 0 0 16 43 16 42 40 39 37 35 31 29 26 25 24 23 0 15 0 14 38 10 8 23
CALL[ ]	/* CallFunction */";
};
width = 790;
}
);
note = uni278C;
unicode = 10124;
},
{
glyphname = uni278D;
layers = (
{
layerId = m01;
shapes = (
{
closed = 1;
nodes = (
(511,-12,o),
(678,85,o),
(775,252,o),
(775,350,qs),
(775,448,o),
(678,615,o),
(511,712,o),
(413,712,qs),
(315,712,o),
(148,615,o),
(51,448,o),
(51,350,qs),
(51,252,o),
(148,85,o),
(315,-12,o),
(413,-12,qs)
);
},
{
closed = 1;
nodes = (
(425,236,l),
(261,236,l),
(261,301,l),
(379,533,l),
(457,533,l),
(346,305,l),
(431,305,l),
(431,392,l),
(506,392,l),
(506,305,l),
(540,305,l),
(540,236,l),
(506,236,l),
(506,176,l),
(425,176,l)
);
}
);
userData = {
assembly = "PUSHB[ ]	/* 6 values pushed */
27 1 2 3 1 76
MPPEM[ ]	/* MeasurePixelPerEm */
PUSHB[ ]	/* 1 value pushed */
9
LT[ ]	/* LessThan */
IF[ ]	/* If */
NPUSHB[ ]	/* 45 values pushed */
0 4 6 3 6 4 114 5 1 3 2 6 3 2 126 7 1 2 8 8 2 112 0 6 6 0 97 0 0 0 39 77 10 1 8 8 1 98 9 1 1 1 40 1 78
ELSE[ ]	/* Else */
MPPEM[ ]	/* MeasurePixelPerEm */
PUSHB[ ]	/* 1 value pushed */
21
LT[ ]	/* LessThan */
IF[ ]	/* If */
NPUSHB[ ]	/* 46 values pushed */
0 4 6 3 6 4 3 128 5 1 3 2 6 3 2 126 7 1 2 8 8 2 112 0 6 6 0 97 0 0 0 39 77 10 1 8 8 1 98 9 1 1 1 40 1 78
ELSE[ ]	/* Else */
NPUSHB[ ]	/* 47 values pushed */
0 4 6 3 6 4 3 128 5 1 3 2 6 3 2 126 7 1 2 8 6 2 8 126 0 6 6 0 97 0 0 0 39 77 10 1 8 8 1 98 9 1 1 1 40 1 78
EIF[ ]	/* EndIf */
EIF[ ]	/* EndIf */
NPUSHB[ ]	/* 28 values pushed */
16 16 0 0 16 30 16 30 29 28 26 25 24 23 22 21 20 19 18 17 0 15 0 14 38 11 8 23
CALL[ ]	/* CallFunction */";
};
width = 790;
}
);
note = uni278D;
unicode = 10125;
},
{
glyphname = uni278E;
layers = (
{
layerId = m01;
shapes = (
{
closed = 1;
nodes = (
(511,-12,o),
(678,85,o),
(775,252,o),
(775,350,qs),
(775,448,o),
(678,615,o),
(511,712,o),
(413,712,qs),
(315,712,o),
(148,615,o),
(51,448,o),
(51,350,qs),
(51,252,o),
(148,85,o),
(315,-12,o),
(413,-12,qs)
);
},
{
closed = 1;
nodes = (
(360,160,o),
(285,218,o),
(283,270,q),
(361,270,l),
(366,251,o),
(396,229,o),
(416,229,qs),
(439,229,o),
(469,265,o),
(469,291,qs),
(469,316,o),
(441,348,o),
(417,348,qs),
(400,348,o),
(370,329,o),
(364,314,q),
(287,314,l),
(317,524,l),
(523,524,l),
(523,454,l),
(377,454,l),
(363,388,l),
(375,400,o),
(412,413,o),
(431,413,qs),
(487,413,o),
(546,341,o),
(546,291,qs),
(546,234,o),
(473,160,o),
(416,160,qs)
);
}
);
userData = {
assembly = "NPUSHB[ ]	/* 83 values pushed */
24 1 6 2 1 76 0 3 0 2 6 3 2 105 0 5 0 8 7 5 8 103 0 6 0 7 9 6 7 105 0 4 4 0 97 0 0 0 39 77 11 1 9 9 1 97 10 1 1 1 40 1 78 16 16 0 0 16 46 16 45 43 42 40 38 34 32 30 29 28 27 26 25 22 20 0 15 0 14 38 12 8 23
CALL[ ]	/* CallFunction */";
};
width = 790;
}
);
note = uni278E;
unicode = 10126;
},
{
glyphname = uni278F;
layers = (
{
layerId = m01;
shapes = (
{
closed = 1;
nodes = (
(511,-12,o),
(678,85,o),
(775,252,o),
(775,350,qs),
(775,448,o),
(678,615,o),
(511,712,o),
(413,712,qs),
(315,712,o),
(148,615,o),
(51,448,o),
(51,350,qs),
(51,252,o),
(148,85,o),
(315,-12,o),
(413,-12,qs)
);
},
{
closed = 1;
nodes = (
(435,233,o),
(465,259,o),
(465,284,qs),
(465,310,o),
(435,336,o),
(414,336,qs),
(393,336,o),
(365,308,o),
(365,286,qs),
(365,263,o),
(393,233,o),
(416,233,qs)
);
},
{
closed = 1;
nodes = (
(349,165,o),
(278,264,o),
(278,340,qs),
(278,422,o),
(347,535,o),
(417,535,qs),
(468,535,o),
(534,474,o),
(536,428,q),
(463,428,l),
(459,448,o),
(436,470,o),
(417,470,qs),
(383,470,o),
(359,407,o),
(358,359,q),
(369,378,o),
(411,404,o),
(437,404,qs),
(483,404,o),
(541,333,o),
(541,287,qs),
(541,237,o),
(475,165,o),
(420,165,qs)
);
}
);
userData = {
assembly = "PUSHB[ ]	/* 6 values pushed */
36 1 2 4 1 76
MPPEM[ ]	/* MeasurePixelPerEm */
PUSHB[ ]	/* 1 value pushed */
30
LT[ ]	/* LessThan */
IF[ ]	/* If */
NPUSHB[ ]	/* 47 values pushed */
0 6 5 4 5 6 114 0 5 0 4 2 5 4 105 0 2 10 1 3 8 2 3 105 0 7 7 0 97 0 0 0 39 77 11 1 8 8 1 97 9 1 1 1 40 1 78
ELSE[ ]	/* Else */
NPUSHB[ ]	/* 48 values pushed */
0 6 5 4 5 6 4 128 0 5 0 4 2 5 4 105 0 2 10 1 3 8 2 3 105 0 7 7 0 97 0 0 0 39 77 11 1 8 8 1 97 9 1 1 1 40 1 78
EIF[ ]	/* EndIf */
NPUSHB[ ]	/* 32 values pushed */
28 28 16 16 0 0 28 52 28 51 47 45 43 42 40 38 34 32 16 27 16 26 22 20 0 15 0 14 38 12 8 23
CALL[ ]	/* CallFunction */";
};
width = 790;
}
);
note = uni278F;
unicode = 10127;
},
{
glyphname = uni2790;
layers = (
{
layerId = m01;
shapes = (
{
closed = 1;
nodes = (
(511,-12,o),
(678,85,o),
(775,252,o),
(775,350,qs),
(775,448,o),
(678,615,o),
(511,712,o),
(413,712,qs),
(315,712,o),
(148,615,o),
(51,448,o),
(51,350,qs),
(51,252,o),
(148,85,o),
(315,-12,o),
(413,-12,qs)
);
},
{
closed = 1;
nodes = (
(464,456,l),
(281,456,l),
(281,524,l),
(550,524,l),
(550,468,l),
(412,167,l),
(329,167,l)
);
}
);
userData = {
assembly = "NPUSHB[ ]	/* 57 values pushed */
17 1 3 2 1 76 0 3 2 4 2 3 4 128 0 2 2 0 97 0 0 0 39 77 6 1 4 4 1 98 5 1 1 1 40 1 78 16 16 0 0 16 22 16 22 21 20 19 18 0 15 0 14 38 7 8 23
CALL[ ]	/* CallFunction */";
};
width = 790;
}
);
note = uni2790;
unicode = 10128;
},
{
glyphname = uni2791;
layers = (
{
layerId = m01;
shapes = (
{
closed = 1;
nodes = (
(511,-12,o),
(678,85,o),
(775,252,o),
(775,350,qs),
(775,448,o),
(678,615,o),
(511,712,o),
(413,712,qs),
(315,712,o),
(148,615,o),
(51,448,o),
(51,350,qs),
(51,252,o),
(148,85,o),
(315,-12,o),
(413,-12,qs)
);
},
{
closed = 1;
nodes = (
(361,165,o),
(285,224,o),
(285,272,qs),
(285,337,o),
(339,364,q),
(293,393,o),
(293,439,qs),
(293,484,o),
(361,535,o),
(414,535,qs),
(462,535,o),
(533,487,o),
(533,439,qs),
(533,413,o),
(507,374,o),
(488,364,q),
(542,340,o),
(542,272,qs),
(542,222,o),
(468,165,o),
(414,165,qs)
);
},
{
closed = 1;
nodes = (
(438,231,o),
(464,257,o),
(464,280,qs),
(464,303,o),
(438,330,o),
(415,330,qs),
(392,330,o),
(364,305,o),
(364,280,qs),
(364,231,o),
(415,231,qs)
);
},
{
closed = 1;
nodes = (
(454,386,o),
(454,428,qs),
(454,471,o),
(414,471,qs),
(373,471,o),
(373,428,qs),
(373,408,o),
(395,386,o),
(414,386,qs)
);
}
);
userData = {
assembly = "NPUSHB[ ]	/* 82 values pushed */
31 20 2 4 7 1 76 0 6 11 1 7 4 6 7 105 0 4 10 1 5 3 4 5 105 0 2 2 0 97 0 0 0 39 77 9 1 3 3 1 97 8 1 1 1 40 1 78 48 48 37 37 16 16 0 0 48 56 48 55 53 51 37 47 37 46 42 40 16 36 16 35 27 25 0 15 0 14 38 12 8 23
CALL[ ]	/* CallFunction */";
};
width = 790;
}
);
note = uni2791;
unicode = 10129;
},
{
glyphname = uni2792;
layers = (
{
layerId = m01;
shapes = (
{
closed = 1;
nodes = (
(511,-12,o),
(678,85,o),
(775,252,o),
(775,350,qs),
(775,448,o),
(678,615,o),
(511,712,o),
(413,712,qs),
(315,712,o),
(148,615,o),
(51,448,o),
(51,350,qs),
(51,252,o),
(148,85,o),
(315,-12,o),
(413,-12,qs)
);
},
{
closed = 1;
nodes = (
(372,165,o),
(318,196,o),
(290,246,o),
(290,272,q),
(363,272,l),
(373,230,o),
(409,230,qs),
(465,230,o),
(468,341,q),
(455,322,o),
(415,296,o),
(389,296,qs),
(366,296,o),
(318,321,o),
(285,374,o),
(285,413,qs),
(285,464,o),
(351,535,o),
(405,535,qs),
(479,535,o),
(547,435,o),
(547,360,qs),
(547,274,o),
(477,165,o),
(408,165,qs)
);
},
{
closed = 1;
nodes = (
(432,364,o),
(461,393,o),
(461,414,qs),
(461,437,o),
(431,467,o),
(409,467,qs),
(389,467,o),
(360,438,o),
(360,416,qs),
(360,393,o),
(389,364,o),
(411,364,qs)
);
}
);
userData = {
assembly = "NPUSHB[ ]	/* 86 values pushed */
31 1 3 8 1 76 0 5 3 4 3 5 4 128 0 7 11 1 8 3 7 8 105 0 3 0 4 6 3 4 105 0 2 2 0 97 0 0 0 39 77 10 1 6 6 1 97 9 1 1 1 40 1 78 41 41 16 16 0 0 41 52 41 51 47 45 16 40 16 39 36 35 34 32 29 27 22 20 0 15 0 14 38 12 8 23
CALL[ ]	/* CallFunction */";
};
width = 790;
}
);
note = uni2792;
unicode = 10130;
},
{
glyphname = uni24EA.solid;
layers = (
{
layerId = m01;
shapes = (
{
closed = 1;
nodes = (
(511,-12,o),
(678,85,o),
(775,252,o),
(775,350,qs),
(775,448,o),
(678,615,o),
(511,712,o),
(413,712,qs),
(315,712,o),
(148,615,o),
(51,448,o),
(51,350,qs),
(51,252,o),
(148,85,o),
(315,-12,o),
(413,-12,qs)
);
},
{
closed = 1;
nodes = (
(344,165,o),
(311,216,qs),
(279,264,o),
(279,350,qs),
(279,436,o),
(311,484,qs),
(344,535,o),
(414,535,qs),
(483,535,o),
(516,485,qs),
(548,435,o),
(548,350,qs),
(548,265,o),
(516,215,qs),
(483,165,o),
(414,165,qs)
);
},
{
closed = 1;
nodes = (
(441,236,o),
(454,266,qs),
(467,299,o),
(467,350,qs),
(467,402,o),
(454,434,qs),
(441,463,o),
(414,463,qs),
(386,463,o),
(373,434,qs),
(360,405,o),
(360,350,qs),
(360,295,o),
(373,266,qs),
(387,236,o),
(414,236,qs)
);
}
);
userData = {
assembly = "NPUSHB[ ]	/* 58 values pushed */
0 4 8 1 5 3 4 5 105 0 2 2 0 97 0 0 0 39 77 7 1 3 3 1 97 6 1 1 1 40 1 78 32 32 16 16 0 0 32 47 32 46 40 38 16 31 16 30 24 22 0 15 0 14 38 9 8 23
CALL[ ]	/* CallFunction */";
};
width = 790;
}
);
note = uni24EA.solid;
},
{
glyphname = zero.dnom;
layers = (
{
layerId = m01;
shapes = (
{
closed = 1;
nodes = (
(170,-5,o),
(247,76,o),
(279,187,o),
(279,236,qs),
(279,293,o),
(227,358,o),
(171,358,qs),
(110,358,o),
(33,280,o),
(0,170,o),
(0,119,qs),
(0,-5,o),
(107,-5,qs)
);
},
{
closed = 1;
nodes = (
(77,65,o),
(77,129,qs),
(77,156,o),
(93,231,o),
(130,288,o),
(159,288,qs),
(200,288,o),
(200,227,qs),
(200,198,o),
(183,122,o),
(147,65,o),
(120,65,qs)
);
}
);
userData = {
assembly = "NPUSHB[ ]	/* 39 values pushed */
0 0 0 2 3 0 2 105 5 1 3 3 1 97 4 1 1 1 34 1 78 13 13 0 0 13 24 13 23 19 17 0 12 0 11 36 6 8 23
CALL[ ]	/* CallFunction */";
};
width = 304;
}
);
note = zero.dnom;
},
{
glyphname = one.dnom;
layers = (
{
layerId = m01;
shapes = (
{
closed = 1;
nodes = (
(230,0,l),
(242,68,l),
(162,68,l),
(213,353,l),
(172,353,l),
(44,309,l),
(33,247,l),
(123,267,l),
(88,68,l),
(-2,68,l),
(-14,0,l)
);
}
);
userData = {
assembly = "NPUSHB[ ]	/* 31 values pushed */
3 2 2 0 1 1 76 0 1 0 1 133 2 1 0 0 3 96 0 3 3 34 3 78 17 17 20 16 4 8 26
CALL[ ]	/* CallFunction */";
};
width = 296;
}
);
note = one.dnom;
},
{
glyphname = two.dnom;
layers = (
{
layerId = m01;
shapes = (
{
closed = 1;
nodes = (
(226,0,l),
(238,68,l),
(98,68,l),
(151,112,l),
(169,127,ls),
(217,168,o),
(267,230,o),
(267,269,qs),
(267,306,o),
(218,358,o),
(165,358,qs),
(109,358,o),
(32,297,o),
(18,238,q),
(95,238,l),
(99,261,o),
(127,292,o),
(151,292,qs),
(168,292,o),
(188,275,o),
(188,259,qs),
(188,238,o),
(149,194,o),
(105,156,qs),
(87,141,l),
(-14,53,l),
(-23,0,l)
);
}
);
userData = {
assembly = "NPUSHB[ ]	/* 35 values pushed */
0 1 0 3 0 1 3 128 0 2 0 0 1 2 0 105 0 3 3 4 95 0 4 4 34 4 78 17 23 34 18 39 5 8 27
CALL[ ]	/* CallFunction */";
};
width = 293;
}
);
note = two.dnom;
},
{
glyphname = three.dnom;
layers = (
{
layerId = m01;
shapes = (
{
closed = 1;
nodes = (
(173,-5,o),
(255,75,o),
(255,135,qs),
(255,168,o),
(217,214,o),
(184,222,q),
(273,291,l),
(284,353,l),
(49,353,l),
(37,285,l),
(169,285,l),
(61,201,l),
(95,151,l),
(116,163,o),
(134,163,qs),
(154,163,o),
(179,143,o),
(179,125,qs),
(179,99,o),
(145,63,o),
(116,63,qs),
(94,63,o),
(70,84,o),
(70,102,qs),
(70,109,o),
(71,112,q),
(-4,112,l),
(-6,94,o),
(-6,87,qs),
(-6,43,o),
(53,-5,o),
(104,-5,qs)
);
}
);
userData = {
assembly = "NPUSHB[ ]	/* 16 values pushed */
25 19 2 2 3 18 1 0 2 7 2 2 1 0 3 76
MPPEM[ ]	/* MeasurePixelPerEm */
PUSHB[ ]	/* 1 value pushed */
11
LT[ ]	/* LessThan */
IF[ ]	/* If */
NPUSHB[ ]	/* 33 values pushed */
0 2 3 0 3 2 114 0 0 1 1 0 112 0 4 0 3 2 4 3 103 0 1 1 5 98 6 1 5 5 34 5 78
ELSE[ ]	/* Else */
MPPEM[ ]	/* MeasurePixelPerEm */
PUSHB[ ]	/* 1 value pushed */
25
LT[ ]	/* LessThan */
IF[ ]	/* If */
NPUSHB[ ]	/* 34 values pushed */
0 2 3 0 3 2 0 128 0 0 1 1 0 112 0 4 0 3 2 4 3 103 0 1 1 5 98 6 1 5 5 34 5 78
ELSE[ ]	/* Else */
NPUSHB[ ]	/* 35 values pushed */
0 2 3 0 3 2 0 128 0 0 1 3 0 1 126 0 4 0 3 2 4 3 103 0 1 1 5 98 6 1 5 5 34 5 78
EIF[ ]	/* EndIf */
EIF[ ]	/* EndIf */
NPUSHB[ ]	/* 14 values pushed */
0 0 0 31 0 30 17 19 36 36 20 7 8 27
CALL[ ]	/* CallFunction */";
};
width = 297;
}
);
note = three.dnom;
},
{
glyphname = four.dnom;
layers = (
{
layerId = m01;
shapes = (
{
closed = 1;
nodes = (
(206,0,l),
(217,63,l),
(256,63,l),
(269,132,l),
(230,132,l),
(244,213,l),
(171,213,l),
(157,132,l),
(74,132,l),
(222,353,l),
(144,353,l),
(-13,122,l),
(-24,63,l),
(140,63,l),
(129,0,l)
);
}
);
userData = {
assembly = "MPPEM[ ]	/* MeasurePixelPerEm */
PUSHB[ ]	/* 1 value pushed */
15
LT[ ]	/* LessThan */
IF[ ]	/* If */
NPUSHB[ ]	/* 27 values pushed */
0 1 3 1 133 0 3 2 2 3 112 4 1 2 5 1 0 6 2 0 104 0 6 6 34 6 78
ELSE[ ]	/* Else */
NPUSHB[ ]	/* 26 values pushed */
0 1 3 1 133 0 3 2 3 133 4 1 2 5 1 0 6 2 0 104 0 6 6 34 6 78
EIF[ ]	/* EndIf */
NPUSHB[ ]	/* 10 values pushed */
17 17 17 17 17 18 16 7 8 29
CALL[ ]	/* CallFunction */";
};
width = 294;
}
);
note = four.dnom;
},
{
glyphname = five.dnom;
layers = (
{
layerId = m01;
shapes = (
{
closed = 1;
nodes = (
(143,-5,o),
(213,36,o),
(255,107,o),
(255,151,qs),
(255,193,o),
(204,247,o),
(157,247,qs),
(123,247,o),
(96,232,q),
(115,284,l),
(257,284,l),
(270,353,l),
(69,353,l),
(1,145,l),
(74,145,l),
(96,182,o),
(135,182,qs),
(155,182,o),
(179,158,o),
(179,137,qs),
(179,105,o),
(140,63,o),
(113,63,qs),
(92,63,o),
(66,86,o),
(66,105,q),
(-10,105,l),
(-15,53,o),
(44,-5,o),
(101,-5,qs)
);
}
);
userData = {
assembly = "PUSHB[ ]	/* 6 values pushed */
20 1 2 6 1 76
MPPEM[ ]	/* MeasurePixelPerEm */
PUSHB[ ]	/* 1 value pushed */
9
LT[ ]	/* LessThan */
IF[ ]	/* If */
NPUSHB[ ]	/* 41 values pushed */
0 3 2 0 5 3 114 0 0 1 1 0 112 0 4 0 5 6 4 5 103 0 6 0 2 3 6 2 105 0 1 1 7 98 8 1 7 7 34 7 78
ELSE[ ]	/* Else */
MPPEM[ ]	/* MeasurePixelPerEm */
PUSHB[ ]	/* 1 value pushed */
31
LT[ ]	/* LessThan */
IF[ ]	/* If */
NPUSHB[ ]	/* 42 values pushed */
0 3 2 0 2 3 0 128 0 0 1 1 0 112 0 4 0 5 6 4 5 103 0 6 0 2 3 6 2 105 0 1 1 7 98 8 1 7 7 34 7 78
ELSE[ ]	/* Else */
NPUSHB[ ]	/* 43 values pushed */
0 3 2 0 2 3 0 128 0 0 1 2 0 1 126 0 4 0 5 6 4 5 103 0 6 0 2 3 6 2 105 0 1 1 7 98 8 1 7 7 34 7 78
EIF[ ]	/* EndIf */
EIF[ ]	/* EndIf */
NPUSHB[ ]	/* 16 values pushed */
0 0 0 29 0 28 34 17 17 17 36 34 18 9 8 29
CALL[ ]	/* CallFunction */";
};
width = 293;
}
);
note = five.dnom;
},
{
glyphname = six.dnom;
layers = (
{
layerId = m01;
shapes = (
{
closed = 1;
nodes = (
(151,-5,o),
(216,37,o),
(254,104,o),
(254,141,qs),
(254,185,o),
(200,233,o),
(163,233,qs),
(144,233,o),
(104,218,o),
(88,204,q),
(112,292,o),
(162,292,qs),
(196,292,o),
(198,254,q),
(270,254,l),
(273,300,o),
(223,358,o),
(173,358,qs),
(119,358,o),
(40,283,o),
(0,171,o),
(0,119,qs),
(0,63,o),
(55,-5,o),
(111,-5,qs)
);
},
{
closed = 1;
nodes = (
(101,63,o),
(79,85,o),
(79,103,qs),
(79,129,o),
(114,166,o),
(138,166,qs),
(157,166,o),
(178,144,o),
(178,126,qs),
(178,100,o),
(145,63,o),
(120,63,qs)
);
}
);
userData = {
assembly = "PUSHB[ ]	/* 6 values pushed */
14 1 5 3 1 76
MPPEM[ ]	/* MeasurePixelPerEm */
PUSHB[ ]	/* 1 value pushed */
33
LT[ ]	/* LessThan */
IF[ ]	/* If */
NPUSHB[ ]	/* 36 values pushed */
0 1 2 3 2 1 114 0 0 0 2 1 0 2 105 0 3 0 5 6 3 5 105 8 1 6 6 4 97 7 1 4 4 34 4 78
ELSE[ ]	/* Else */
NPUSHB[ ]	/* 37 values pushed */
0 1 2 3 2 1 3 128 0 0 0 2 1 0 2 105 0 3 0 5 6 3 5 105 8 1 6 6 4 97 7 1 4 4 34 4 78
EIF[ ]	/* EndIf */
NPUSHB[ ]	/* 21 values pushed */
25 25 0 0 25 36 25 35 31 29 0 24 0 23 35 33 18 37 9 8 26
CALL[ ]	/* CallFunction */";
};
width = 293;
}
);
note = six.dnom;
},
{
glyphname = seven.dnom;
layers = (
{
layerId = m01;
shapes = (
{
closed = 1;
nodes = (
(98,-1,l),
(289,299,l),
(298,352,l),
(36,352,l),
(24,284,l),
(201,284,l),
(17,-1,l)
);
}
);
userData = {
assembly = "NPUSHB[ ]	/* 20 values pushed */
0 1 0 0 2 1 0 103 0 2 2 34 2 78 18 17 16 3 8 25
CALL[ ]	/* CallFunction */";
};
width = 298;
}
);
note = seven.dnom;
},
{
glyphname = eight.dnom;
layers = (
{
layerId = m01;
shapes = (
{
closed = 1;
nodes = (
(146,-5,o),
(212,28,o),
(247,84,o),
(247,117,qs),
(247,169,o),
(203,190,q),
(229,202,o),
(265,246,o),
(265,276,qs),
(265,313,o),
(212,358,o),
(164,358,qs),
(104,358,o),
(25,299,o),
(25,251,qs),
(25,215,o),
(62,190,q),
(28,177,o),
(-10,121,o),
(-10,88,qs),
(-10,50,o),
(48,-5,o),
(102,-5,qs)
);
},
{
closed = 1;
nodes = (
(92,59,o),
(67,82,o),
(67,100,qs),
(67,124,o),
(104,156,o),
(127,156,qs),
(148,156,o),
(172,134,o),
(172,116,qs),
(172,90,o),
(137,59,o),
(112,59,qs)
);
},
{
closed = 1;
nodes = (
(120,212,o),
(100,231,o),
(100,248,qs),
(100,267,o),
(131,295,o),
(151,295,qs),
(168,295,o),
(188,274,o),
(188,260,qs),
(188,240,o),
(158,212,o),
(138,212,qs)
);
}
);
userData = {
assembly = "NPUSHB[ ]	/* 63 values pushed */
16 5 2 2 5 1 76 0 0 0 4 5 0 4 105 8 1 5 0 2 3 5 2 105 7 1 3 3 1 97 6 1 1 1 34 1 78 35 35 23 23 0 0 35 46 35 45 41 39 23 34 23 33 29 27 0 22 0 21 41 9 8 23
CALL[ ]	/* CallFunction */";
};
width = 289;
}
);
note = eight.dnom;
},
{
glyphname = nine.dnom;
layers = (
{
layerId = m01;
shapes = (
{
closed = 1;
nodes = (
(148,-5,o),
(227,69,o),
(268,181,o),
(268,234,qs),
(268,290,o),
(213,358,o),
(157,358,qs),
(118,358,o),
(52,317,o),
(14,250,o),
(14,215,qs),
(14,173,o),
(64,120,o),
(105,120,qs),
(124,120,o),
(164,135,o),
(181,149,q),
(157,61,o),
(107,61,qs),
(71,61,o),
(71,101,q),
(-1,101,l),
(-4,53,o),
(45,-5,o),
(95,-5,qs)
);
},
{
closed = 1;
nodes = (
(112,187,o),
(90,209,o),
(90,228,qs),
(90,253,o),
(124,290,o),
(148,290,qs),
(167,290,o),
(190,267,o),
(190,249,qs),
(190,224,o),
(155,187,o),
(131,187,qs)
);
}
);
userData = {
assembly = "PUSHB[ ]	/* 6 values pushed */
7 1 2 6 1 76
MPPEM[ ]	/* MeasurePixelPerEm */
PUSHB[ ]	/* 1 value pushed */
31
LT[ ]	/* LessThan */
IF[ ]	/* If */
NPUSHB[ ]	/* 36 values pushed */
0 0 2 1 1 0 114 0 3 0 5 6 3 5 105 8 1 6 0 2 0 6 2 105 0 1 1 4 98 7 1 4 4 34 4 78
ELSE[ ]	/* Else */
NPUSHB[ ]	/* 37 values pushed */
0 0 2 1 2 0 1 128 0 3 0 5 6 3 5 105 8 1 6 0 2 0 6 2 105 0 1 1 4 98 7 1 4 4 34 4 78
EIF[ ]	/* EndIf */
NPUSHB[ ]	/* 21 values pushed */
25 25 0 0 25 36 25 35 31 29 0 24 0 23 37 35 33 18 9 8 26
CALL[ ]	/* CallFunction */";
};
width = 293;
}
);
note = nine.dnom;
},
{
glyphname = zero.numr;
layers = (
{
layerId = m01;
shapes = (
{
closed = 1;
nodes = (
(231,342,o),
(308,421,o),
(340,532,o),
(340,582,qs),
(340,639,o),
(289,705,o),
(233,705,qs),
(171,705,o),
(94,625,o),
(61,514,o),
(61,465,qs),
(61,408,o),
(113,342,o),
(169,342,qs)
);
},
{
closed = 1;
nodes = (
(163,412,o),
(139,440,o),
(139,474,qs),
(139,502,o),
(154,578,o),
(191,635,o),
(220,635,qs),
(262,635,o),
(262,572,qs),
(262,544,o),
(246,468,o),
(209,412,o),
(181,412,qs)
);
}
);
userData = {
assembly = "NPUSHB[ ]	/* 38 values pushed */
5 1 3 4 1 1 3 1 101 0 2 2 0 97 0 0 0 33 2 78 14 14 0 0 14 26 14 25 20 18 0 13 0 12 37 6 8 23
CALL[ ]	/* CallFunction */";
};
width = 304;
}
);
note = zero.numr;
},
{
glyphname = one.numr;
layers = (
{
layerId = m01;
shapes = (
{
closed = 1;
nodes = (
(291,347,l),
(303,415,l),
(223,415,l),
(274,700,l),
(233,700,l),
(105,656,l),
(94,594,l),
(185,614,l),
(149,415,l),
(59,415,l),
(47,347,l)
);
}
);
userData = {
assembly = "NPUSHB[ ]	/* 28 values pushed */
3 2 2 0 1 1 76 2 1 0 0 3 0 3 100 0 1 1 33 1 78 17 17 20 16 4 8 26
CALL[ ]	/* CallFunction */";
};
width = 296;
}
);
note = one.numr;
},
{
glyphname = two.numr;
layers = (
{
layerId = m01;
shapes = (
{
closed = 1;
nodes = (
(287,347,l),
(299,415,l),
(159,415,l),
(212,459,l),
(230,474,ls),
(278,515,o),
(328,577,o),
(328,616,qs),
(328,653,o),
(279,705,o),
(226,705,qs),
(170,705,o),
(93,644,o),
(79,585,q),
(156,585,l),
(160,608,o),
(188,639,o),
(212,639,qs),
(229,639,o),
(249,622,o),
(249,606,qs),
(249,585,o),
(210,541,o),
(166,503,qs),
(148,488,l),
(47,400,l),
(38,347,l)
);
}
);
userData = {
assembly = "NPUSHB[ ]	/* 34 values pushed */
0 1 0 3 0 1 3 128 0 3 0 4 3 4 99 0 0 0 2 97 0 2 2 33 0 78 17 23 34 18 39 5 8 27
CALL[ ]	/* CallFunction */";
};
width = 293;
}
);
note = two.numr;
},
{
glyphname = three.numr;
layers = (
{
layerId = m01;
shapes = (
{
closed = 1;
nodes = (
(234,342,o),
(316,422,o),
(316,482,qs),
(316,515,o),
(278,561,o),
(245,569,q),
(334,638,l),
(345,700,l),
(110,700,l),
(98,632,l),
(230,632,l),
(122,548,l),
(156,498,l),
(177,510,o),
(195,510,qs),
(215,510,o),
(240,490,o),
(240,472,qs),
(240,446,o),
(206,410,o),
(177,410,qs),
(155,410,o),
(131,431,o),
(131,449,qs),
(131,456,o),
(132,459,q),
(57,459,l),
(55,441,o),
(55,434,qs),
(55,390,o),
(114,342,o),
(165,342,qs)
);
}
);
userData = {
assembly = "NPUSHB[ ]	/* 16 values pushed */
25 19 2 2 3 18 1 0 2 7 2 2 1 0 3 76
MPPEM[ ]	/* MeasurePixelPerEm */
PUSHB[ ]	/* 1 value pushed */
11
LT[ ]	/* LessThan */
IF[ ]	/* If */
NPUSHB[ ]	/* 32 values pushed */
0 2 3 0 3 2 114 0 0 1 1 0 112 0 1 6 1 5 1 5 102 0 3 3 4 95 0 4 4 33 3 78
ELSE[ ]	/* Else */
MPPEM[ ]	/* MeasurePixelPerEm */
PUSHB[ ]	/* 1 value pushed */
25
LT[ ]	/* LessThan */
IF[ ]	/* If */
NPUSHB[ ]	/* 33 values pushed */
0 2 3 0 3 2 0 128 0 0 1 1 0 112 0 1 6 1 5 1 5 102 0 3 3 4 95 0 4 4 33 3 78
ELSE[ ]	/* Else */
NPUSHB[ ]	/* 34 values pushed */
0 2 3 0 3 2 0 128 0 0 1 3 0 1 126 0 1 6 1 5 1 5 102 0 3 3 4 95 0 4 4 33 3 78
EIF[ ]	/* EndIf */
EIF[ ]	/* EndIf */
NPUSHB[ ]	/* 14 values pushed */
0 0 0 31 0 30 17 19 36 36 20 7 8 27
CALL[ ]	/* CallFunction */";
};
width = 297;
}
);
note = three.numr;
},
{
glyphname = four.numr;
layers = (
{
layerId = m01;
shapes = (
{
closed = 1;
nodes = (
(268,347,l),
(279,410,l),
(318,410,l),
(331,479,l),
(292,479,l),
(306,560,l),
(233,560,l),
(219,479,l),
(136,479,l),
(284,700,l),
(206,700,l),
(49,469,l),
(38,410,l),
(202,410,l),
(191,347,l)
);
}
);
userData = {
assembly = "MPPEM[ ]	/* MeasurePixelPerEm */
PUSHB[ ]	/* 1 value pushed */
15
LT[ ]	/* LessThan */
IF[ ]	/* If */
NPUSHB[ ]	/* 31 values pushed */
0 3 1 2 2 3 114 0 6 0 0 6 113 0 1 1 33 77 5 1 0 0 2 95 4 1 2 2 36 0 78
ELSE[ ]	/* Else */
MPPEM[ ]	/* MeasurePixelPerEm */
PUSHB[ ]	/* 1 value pushed */
20
LT[ ]	/* LessThan */
IF[ ]	/* If */
NPUSHB[ ]	/* 32 values pushed */
0 3 1 2 1 3 2 128 0 6 0 0 6 113 0 1 1 33 77 5 1 0 0 2 95 4 1 2 2 36 0 78
ELSE[ ]	/* Else */
MPPEM[ ]	/* MeasurePixelPerEm */
PUSHB[ ]	/* 1 value pushed */
29
LT[ ]	/* LessThan */
IF[ ]	/* If */
NPUSHB[ ]	/* 31 values pushed */
0 3 1 2 1 3 2 128 0 6 0 6 134 0 1 1 33 77 5 1 0 0 2 95 4 1 2 2 36 0 78
ELSE[ ]	/* Else */
NPUSHB[ ]	/* 29 values pushed */
0 3 1 2 1 3 2 128 0 6 0 6 134 4 1 2 5 1 0 6 2 0 104 0 1 1 33 1 78
EIF[ ]	/* EndIf */
EIF[ ]	/* EndIf */
EIF[ ]	/* EndIf */
NPUSHB[ ]	/* 10 values pushed */
17 17 17 17 17 18 16 7 8 29
CALL[ ]	/* CallFunction */";
};
width = 295;
}
);
note = four.numr;
},
{
glyphname = five.numr;
layers = (
{
layerId = m01;
shapes = (
{
closed = 1;
nodes = (
(205,342,o),
(275,383,o),
(316,454,o),
(316,498,qs),
(316,540,o),
(265,594,o),
(218,594,qs),
(184,594,o),
(157,579,q),
(177,631,l),
(319,631,l),
(331,700,l),
(130,700,l),
(62,492,l),
(135,492,l),
(157,529,o),
(197,529,qs),
(217,529,o),
(240,505,o),
(240,484,qs),
(240,452,o),
(202,410,o),
(175,410,qs),
(154,410,o),
(128,433,o),
(127,452,q),
(51,452,l),
(47,400,o),
(106,342,o),
(163,342,qs)
);
}
);
userData = {
assembly = "PUSHB[ ]	/* 6 values pushed */
20 1 2 6 1 76
MPPEM[ ]	/* MeasurePixelPerEm */
PUSHB[ ]	/* 1 value pushed */
9
LT[ ]	/* LessThan */
IF[ ]	/* If */
NPUSHB[ ]	/* 40 values pushed */
0 3 2 0 5 3 114 0 0 1 1 0 112 0 6 0 2 3 6 2 105 0 1 8 1 7 1 7 102 0 5 5 4 95 0 4 4 33 5 78
ELSE[ ]	/* Else */
MPPEM[ ]	/* MeasurePixelPerEm */
PUSHB[ ]	/* 1 value pushed */
31
LT[ ]	/* LessThan */
IF[ ]	/* If */
NPUSHB[ ]	/* 41 values pushed */
0 3 2 0 2 3 0 128 0 0 1 1 0 112 0 6 0 2 3 6 2 105 0 1 8 1 7 1 7 102 0 5 5 4 95 0 4 4 33 5 78
ELSE[ ]	/* Else */
NPUSHB[ ]	/* 42 values pushed */
0 3 2 0 2 3 0 128 0 0 1 2 0 1 126 0 6 0 2 3 6 2 105 0 1 8 1 7 1 7 102 0 5 5 4 95 0 4 4 33 5 78
EIF[ ]	/* EndIf */
EIF[ ]	/* EndIf */
NPUSHB[ ]	/* 16 values pushed */
0 0 0 29 0 28 34 17 17 17 36 34 18 9 8 29
CALL[ ]	/* CallFunction */";
};
width = 293;
}
);
note = five.numr;
},
{
glyphname = six.numr;
layers = (
{
layerId = m01;
shapes = (
{
closed = 1;
nodes = (
(211,342,o),
(276,383,o),
(314,451,o),
(314,488,qs),
(314,532,o),
(261,580,o),
(224,580,qs),
(205,580,o),
(165,565,o),
(148,551,q),
(172,639,o),
(222,639,qs),
(258,639,o),
(258,601,q),
(330,601,l),
(333,648,o),
(283,705,o),
(234,705,qs),
(180,705,o),
(101,631,o),
(61,519,o),
(61,466,qs),
(61,410,o),
(116,342,o),
(172,342,qs)
);
},
{
closed = 1;
nodes = (
(162,410,o),
(139,433,o),
(139,451,qs),
(139,476,o),
(174,513,o),
(198,513,qs),
(217,513,o),
(239,491,o),
(239,472,qs),
(239,447,o),
(205,410,o),
(181,410,qs)
);
}
);
userData = {
assembly = "PUSHB[ ]	/* 6 values pushed */
14 1 5 3 1 76
MPPEM[ ]	/* MeasurePixelPerEm */
PUSHB[ ]	/* 1 value pushed */
33
LT[ ]	/* LessThan */
IF[ ]	/* If */
NPUSHB[ ]	/* 35 values pushed */
0 1 2 3 2 1 114 0 3 0 5 6 3 5 105 8 1 6 7 1 4 6 4 101 0 2 2 0 97 0 0 0 33 2 78
ELSE[ ]	/* Else */
NPUSHB[ ]	/* 36 values pushed */
0 1 2 3 2 1 3 128 0 3 0 5 6 3 5 105 8 1 6 7 1 4 6 4 101 0 2 2 0 97 0 0 0 33 2 78
EIF[ ]	/* EndIf */
NPUSHB[ ]	/* 21 values pushed */
25 25 0 0 25 36 25 35 31 29 0 24 0 23 35 33 18 37 9 8 26
CALL[ ]	/* CallFunction */";
};
width = 292;
}
);
note = six.numr;
},
{
glyphname = seven.numr;
layers = (
{
layerId = m01;
shapes = (
{
closed = 1;
nodes = (
(159,346,l),
(350,646,l),
(360,699,l),
(98,699,l),
(86,631,l),
(263,631,l),
(78,346,l)
);
}
);
userData = {
assembly = "NPUSHB[ ]	/* 22 values pushed */
0 2 0 2 134 0 0 0 1 95 0 1 1 33 0 78 18 17 16 3 8 25
CALL[ ]	/* CallFunction */";
};
width = 298;
}
);
note = seven.numr;
},
{
glyphname = eight.numr;
layers = (
{
layerId = m01;
shapes = (
{
closed = 1;
nodes = (
(208,342,o),
(274,375,o),
(309,431,o),
(309,464,qs),
(309,516,o),
(265,537,q),
(291,549,o),
(327,593,o),
(327,623,qs),
(327,660,o),
(274,705,o),
(226,705,qs),
(166,705,o),
(87,646,o),
(87,598,qs),
(87,562,o),
(124,537,q),
(90,524,o),
(52,468,o),
(52,435,qs),
(52,397,o),
(110,342,o),
(164,342,qs)
);
},
{
closed = 1;
nodes = (
(154,406,o),
(129,429,o),
(129,447,qs),
(129,471,o),
(166,503,o),
(189,503,qs),
(210,503,o),
(234,481,o),
(234,463,qs),
(234,437,o),
(199,406,o),
(174,406,qs)
);
},
{
closed = 1;
nodes = (
(182,559,o),
(162,578,o),
(162,595,qs),
(162,614,o),
(193,642,o),
(213,642,qs),
(230,642,o),
(250,621,o),
(250,607,qs),
(250,587,o),
(220,559,o),
(200,559,qs)
);
}
);
userData = {
assembly = "NPUSHB[ ]	/* 62 values pushed */
16 5 2 2 5 1 76 8 1 5 0 2 3 5 2 105 7 1 3 6 1 1 3 1 101 0 4 4 0 97 0 0 0 33 4 78 35 35 23 23 0 0 35 46 35 45 41 39 23 34 23 33 29 27 0 22 0 21 41 9 8 23
CALL[ ]	/* CallFunction */";
};
width = 290;
}
);
note = eight.numr;
},
{
glyphname = nine.numr;
layers = (
{
layerId = m01;
shapes = (
{
closed = 1;
nodes = (
(210,342,o),
(289,416,o),
(330,528,o),
(330,580,qs),
(330,636,o),
(275,705,o),
(219,705,qs),
(180,705,o),
(113,663,o),
(75,597,o),
(75,562,qs),
(75,521,o),
(126,467,o),
(167,467,qs),
(186,467,o),
(226,482,o),
(242,496,q),
(218,408,o),
(168,408,qs),
(133,408,o),
(132,448,q),
(60,448,l),
(57,400,o),
(107,342,o),
(157,342,qs)
);
},
{
closed = 1;
nodes = (
(173,534,o),
(152,556,o),
(152,574,qs),
(152,600,o),
(185,637,o),
(210,637,qs),
(229,637,o),
(251,615,o),
(251,597,qs),
(251,571,o),
(216,534,o),
(192,534,qs)
);
}
);
userData = {
assembly = "PUSHB[ ]	/* 6 values pushed */
7 1 2 6 1 76
MPPEM[ ]	/* MeasurePixelPerEm */
PUSHB[ ]	/* 1 value pushed */
31
LT[ ]	/* LessThan */
IF[ ]	/* If */
NPUSHB[ ]	/* 35 values pushed */
0 0 2 1 1 0 114 8 1 6 0 2 0 6 2 105 0 1 7 1 4 1 4 102 0 5 5 3 97 0 3 3 33 5 78
ELSE[ ]	/* Else */
NPUSHB[ ]	/* 36 values pushed */
0 0 2 1 2 0 1 128 8 1 6 0 2 0 6 2 105 0 1 7 1 4 1 4 102 0 5 5 3 97 0 3 3 33 5 78
EIF[ ]	/* EndIf */
NPUSHB[ ]	/* 21 values pushed */
25 25 0 0 25 36 25 35 31 29 0 24 0 23 37 35 33 18 9 8 26
CALL[ ]	/* CallFunction */";
};
width = 294;
}
);
note = nine.numr;
},
{
glyphname = fraction;
layers = (
{
layerId = m01;
shapes = (
{
closed = 1;
nodes = (
(37,0,l),
(681,700,l),
(583,700,l),
(-61,0,l)
);
}
);
userData = {
assembly = "NPUSHB[ ]	/* 16 values pushed */
0 0 0 33 77 0 1 1 34 1 78 17 16 2 8 24
CALL[ ]	/* CallFunction */";
};
width = 579;
}
);
note = fraction;
unicode = 8260;
},
{
glyphname = onehalf;
layers = (
{
layerId = m01;
shapes = (
{
closed = 1;
nodes = (
(130,0,l),
(774,700,l),
(676,700,l),
(32,0,l)
);
},
{
closed = 1;
nodes = (
(286,347,l),
(298,415,l),
(218,415,l),
(269,700,l),
(228,700,l),
(100,656,l),
(89,594,l),
(180,614,l),
(144,415,l),
(54,415,l),
(42,347,l)
);
},
{
closed = 1;
nodes = (
(672,0,l),
(684,68,l),
(544,68,l),
(597,112,l),
(615,127,ls),
(663,168,o),
(713,230,o),
(713,269,qs),
(713,306,o),
(664,358,o),
(611,358,qs),
(555,358,o),
(478,297,o),
(464,238,q),
(541,238,l),
(545,261,o),
(573,292,o),
(597,292,qs),
(614,292,o),
(634,275,o),
(634,259,qs),
(634,238,o),
(595,194,o),
(551,156,qs),
(533,141,l),
(432,53,l),
(423,0,l)
);
}
);
userData = {
assembly = "PUSHB[ ]	/* 2 values pushed */
6 100
WCVTP[ ]	/* WriteCVTInPixels */
NPUSHB[ ]	/* 71 values pushed */
7 6 2 2 0 1 76 3 1 0 2 0 133 0 7 6 9 6 7 9 128 4 1 2 0 5 6 2 5 104 0 8 0 6 7 8 6 105 0 9 1 1 9 87 0 9 9 1 95 10 1 1 9 1 79 41 40 39 38 34 18 40 17 17 20 17 17 16 11 8 31
CALL[ ]	/* CallFunction */
PUSHB[ ]	/* 2 values pushed */
6 0
WCVTP[ ]	/* WriteCVTInPixels */";
};
width = 750;
}
);
note = onehalf;
unicode = 189;
},
{
glyphname = onequarter;
layers = (
{
layerId = m01;
shapes = (
{
closed = 1;
nodes = (
(124,0,l),
(768,700,l),
(670,700,l),
(26,0,l)
);
},
{
closed = 1;
nodes = (
(286,347,l),
(298,415,l),
(218,415,l),
(269,700,l),
(228,700,l),
(100,656,l),
(89,594,l),
(180,614,l),
(144,415,l),
(54,415,l),
(42,347,l)
);
},
{
closed = 1;
nodes = (
(631,0,l),
(642,63,l),
(681,63,l),
(694,132,l),
(655,132,l),
(669,213,l),
(596,213,l),
(582,132,l),
(499,132,l),
(647,353,l),
(569,353,l),
(412,122,l),
(401,63,l),
(565,63,l),
(554,0,l)
);
}
);
userData = {
assembly = "PUSHB[ ]	/* 2 values pushed */
6 100
WCVTP[ ]	/* WriteCVTInPixels */
PUSHB[ ]	/* 7 values pushed */
7 6 2 2 0 1 76
MPPEM[ ]	/* MeasurePixelPerEm */
PUSHB[ ]	/* 1 value pushed */
15
LT[ ]	/* LessThan */
IF[ ]	/* If */
NPUSHB[ ]	/* 56 values pushed */
3 1 0 2 0 133 0 7 2 5 2 7 5 128 0 9 5 8 8 9 114 12 1 1 6 6 1 113 4 1 2 0 5 9 2 5 104 10 1 8 6 6 8 87 10 1 8 8 6 96 11 1 6 8 6 80
ELSE[ ]	/* Else */
MPPEM[ ]	/* MeasurePixelPerEm */
PUSHB[ ]	/* 1 value pushed */
21
LT[ ]	/* LessThan */
IF[ ]	/* If */
NPUSHB[ ]	/* 57 values pushed */
3 1 0 2 0 133 0 7 2 5 2 7 5 128 0 9 5 8 5 9 8 128 12 1 1 6 6 1 113 4 1 2 0 5 9 2 5 104 10 1 8 6 6 8 87 10 1 8 8 6 96 11 1 6 8 6 80
ELSE[ ]	/* Else */
NPUSHB[ ]	/* 56 values pushed */
3 1 0 2 0 133 0 7 2 5 2 7 5 128 0 9 5 8 5 9 8 128 12 1 1 6 1 134 4 1 2 0 5 9 2 5 104 10 1 8 6 6 8 87 10 1 8 8 6 96 11 1 6 8 6 80
EIF[ ]	/* EndIf */
EIF[ ]	/* EndIf */
NPUSHB[ ]	/* 20 values pushed */
29 28 27 26 25 24 23 22 17 18 17 17 17 20 17 17 16 13 8 31
CALL[ ]	/* CallFunction */
PUSHB[ ]	/* 2 values pushed */
6 0
WCVTP[ ]	/* WriteCVTInPixels */";
};
width = 745;
}
);
note = onequarter;
unicode = 188;
},
{
glyphname = threequarters;
layers = (
{
layerId = m01;
shapes = (
{
closed = 1;
nodes = (
(134,0,l),
(778,700,l),
(680,700,l),
(36,0,l)
);
},
{
closed = 1;
nodes = (
(641,0,l),
(652,63,l),
(691,63,l),
(704,132,l),
(665,132,l),
(679,213,l),
(606,213,l),
(592,132,l),
(509,132,l),
(657,353,l),
(579,353,l),
(422,122,l),
(411,63,l),
(575,63,l),
(564,0,l)
);
},
{
closed = 1;
nodes = (
(244,342,o),
(326,422,o),
(326,482,qs),
(326,515,o),
(288,561,o),
(255,569,q),
(344,638,l),
(355,700,l),
(120,700,l),
(108,632,l),
(240,632,l),
(132,548,l),
(166,498,l),
(187,510,o),
(205,510,qs),
(225,510,o),
(250,490,o),
(250,472,qs),
(250,446,o),
(216,410,o),
(187,410,qs),
(165,410,o),
(141,431,o),
(141,449,qs),
(141,456,o),
(142,459,q),
(67,459,l),
(65,441,o),
(65,434,qs),
(65,390,o),
(124,342,o),
(175,342,qs)
);
}
);
userData = {
assembly = "PUSHB[ ]	/* 2 values pushed */
6 100
WCVTP[ ]	/* WriteCVTInPixels */
NPUSHB[ ]	/* 16 values pushed */
44 38 2 11 12 37 1 9 11 26 21 2 10 9 3 76
MPPEM[ ]	/* MeasurePixelPerEm */
PUSHB[ ]	/* 1 value pushed */
11
LT[ ]	/* LessThan */
IF[ ]	/* If */
NPUSHB[ ]	/* 72 values pushed */
0 11 12 9 12 11 114 0 9 10 10 9 112 0 3 10 14 10 3 14 128 0 5 14 4 4 5 114 8 1 1 2 2 1 113 13 1 0 0 12 11 0 12 103 0 10 15 1 14 5 10 14 106 6 1 4 2 2 4 87 6 1 4 4 2 96 7 1 2 4 2 80
ELSE[ ]	/* Else */
MPPEM[ ]	/* MeasurePixelPerEm */
PUSHB[ ]	/* 1 value pushed */
15
LT[ ]	/* LessThan */
IF[ ]	/* If */
NPUSHB[ ]	/* 73 values pushed */
0 11 12 9 12 11 9 128 0 9 10 10 9 112 0 3 10 14 10 3 14 128 0 5 14 4 4 5 114 8 1 1 2 2 1 113 13 1 0 0 12 11 0 12 103 0 10 15 1 14 5 10 14 106 6 1 4 2 2 4 87 6 1 4 4 2 96 7 1 2 4 2 80
ELSE[ ]	/* Else */
MPPEM[ ]	/* MeasurePixelPerEm */
PUSHB[ ]	/* 1 value pushed */
21
LT[ ]	/* LessThan */
IF[ ]	/* If */
NPUSHB[ ]	/* 74 values pushed */
0 11 12 9 12 11 9 128 0 9 10 10 9 112 0 3 10 14 10 3 14 128 0 5 14 4 14 5 4 128 8 1 1 2 2 1 113 13 1 0 0 12 11 0 12 103 0 10 15 1 14 5 10 14 106 6 1 4 2 2 4 87 6 1 4 4 2 96 7 1 2 4 2 80
ELSE[ ]	/* Else */
MPPEM[ ]	/* MeasurePixelPerEm */
PUSHB[ ]	/* 1 value pushed */
25
LT[ ]	/* LessThan */
IF[ ]	/* If */
NPUSHB[ ]	/* 73 values pushed */
0 11 12 9 12 11 9 128 0 9 10 10 9 112 0 3 10 14 10 3 14 128 0 5 14 4 14 5 4 128 8 1 1 2 1 134 13 1 0 0 12 11 0 12 103 0 10 15 1 14 5 10 14 106 6 1 4 2 2 4 87 6 1 4 4 2 96 7 1 2 4 2 80
ELSE[ ]	/* Else */
NPUSHB[ ]	/* 74 values pushed */
0 11 12 9 12 11 9 128 0 9 10 12 9 10 126 0 3 10 14 10 3 14 128 0 5 14 4 14 5 4 128 8 1 1 2 1 134 13 1 0 0 12 11 0 12 103 0 10 15 1 14 5 10 14 106 6 1 4 2 2 4 87 6 1 4 4 2 96 7 1 2 4 2 80
EIF[ ]	/* EndIf */
EIF[ ]	/* EndIf */
EIF[ ]	/* EndIf */
EIF[ ]	/* EndIf */
NPUSHB[ ]	/* 28 values pushed */
19 19 19 50 19 49 42 41 40 39 36 34 30 28 24 23 17 17 17 17 17 18 17 17 16 16 8 31
CALL[ ]	/* CallFunction */
PUSHB[ ]	/* 2 values pushed */
6 0
WCVTP[ ]	/* WriteCVTInPixels */";
};
width = 755;
}
);
note = threequarters;
unicode = 190;
},
{
glyphname = oneeighth;
layers = (
{
layerId = m01;
shapes = (
{
closed = 1;
nodes = (
(125,-1,l),
(769,699,l),
(671,699,l),
(27,-1,l)
);
},
{
closed = 1;
nodes = (
(286,347,l),
(298,415,l),
(218,415,l),
(269,700,l),
(228,700,l),
(100,656,l),
(89,594,l),
(180,614,l),
(144,415,l),
(54,415,l),
(42,347,l)
);
},
{
closed = 1;
nodes = (
(535,59,o),
(510,82,o),
(510,100,qs),
(510,124,o),
(547,156,o),
(570,156,qs),
(591,156,o),
(615,134,o),
(615,116,qs),
(615,90,o),
(580,59,o),
(555,59,qs)
);
},
{
closed = 1;
nodes = (
(589,-5,o),
(655,28,o),
(690,84,o),
(690,117,qs),
(690,169,o),
(646,190,q),
(672,202,o),
(708,246,o),
(708,276,qs),
(708,313,o),
(655,358,o),
(607,358,qs),
(547,358,o),
(468,299,o),
(468,251,qs),
(468,215,o),
(505,190,q),
(471,177,o),
(433,121,o),
(433,88,qs),
(433,50,o),
(491,-5,o),
(545,-5,qs)
);
},
{
closed = 1;
nodes = (
(563,212,o),
(543,231,o),
(543,248,qs),
(543,267,o),
(574,295,o),
(594,295,qs),
(611,295,o),
(631,274,o),
(631,260,qs),
(631,240,o),
(601,212,o),
(581,212,qs)
);
}
);
userData = {
assembly = "NPUSHB[ ]	/* 90 values pushed */
7 6 2 2 0 43 32 2 6 11 2 76 4 1 2 0 5 10 2 5 104 0 8 0 10 11 8 10 105 14 1 11 0 6 7 11 6 105 3 1 0 0 33 77 12 1 7 7 1 97 13 9 2 1 1 34 1 78 50 50 27 27 15 15 50 61 50 60 56 54 27 49 27 48 38 36 15 26 15 25 37 17 17 20 17 17 16 15 8 29
CALL[ ]	/* CallFunction */";
};
width = 745;
}
);
note = oneeighth;
unicode = 8539;
},
{
glyphname = threeeighths;
layers = (
{
layerId = m01;
shapes = (
{
closed = 1;
nodes = (
(123,-1,l),
(767,699,l),
(669,699,l),
(25,-1,l)
);
},
{
closed = 1;
nodes = (
(244,342,o),
(326,422,o),
(326,482,qs),
(326,515,o),
(288,561,o),
(255,569,q),
(344,638,l),
(355,700,l),
(120,700,l),
(108,632,l),
(240,632,l),
(132,548,l),
(166,498,l),
(187,510,o),
(205,510,qs),
(225,510,o),
(250,490,o),
(250,472,qs),
(250,446,o),
(216,410,o),
(187,410,qs),
(165,410,o),
(141,431,o),
(141,449,qs),
(141,456,o),
(142,459,q),
(67,459,l),
(65,441,o),
(65,434,qs),
(65,390,o),
(124,342,o),
(175,342,qs)
);
},
{
closed = 1;
nodes = (
(589,-5,o),
(655,28,o),
(690,84,o),
(690,117,qs),
(690,169,o),
(646,190,q),
(672,202,o),
(708,246,o),
(708,276,qs),
(708,313,o),
(655,358,o),
(607,358,qs),
(547,358,o),
(468,299,o),
(468,251,qs),
(468,215,o),
(505,190,q),
(471,177,o),
(433,121,o),
(433,88,qs),
(433,50,o),
(491,-5,o),
(545,-5,qs)
);
},
{
closed = 1;
nodes = (
(535,59,o),
(510,82,o),
(510,100,qs),
(510,124,o),
(547,156,o),
(570,156,qs),
(591,156,o),
(615,134,o),
(615,116,qs),
(615,90,o),
(580,59,o),
(555,59,qs)
);
},
{
closed = 1;
nodes = (
(563,212,o),
(543,231,o),
(543,248,qs),
(543,267,o),
(574,295,o),
(594,295,qs),
(611,295,o),
(631,274,o),
(631,260,qs),
(631,240,o),
(601,212,o),
(581,212,qs)
);
}
);
userData = {
assembly = "NPUSHB[ ]	/* 21 values pushed */
29 23 2 4 5 22 1 2 4 11 6 2 3 2 52 41 2 10 13 4 76
MPPEM[ ]	/* MeasurePixelPerEm */
PUSHB[ ]	/* 1 value pushed */
11
LT[ ]	/* LessThan */
IF[ ]	/* If */
NPUSHB[ ]	/* 64 values pushed */
0 4 5 2 5 4 114 0 2 3 3 2 112 0 3 14 1 7 12 3 7 106 0 8 0 12 13 8 12 105 17 1 13 0 10 11 13 10 105 0 5 5 0 95 6 1 0 0 33 77 16 1 11 11 1 97 15 9 2 1 1 34 1 78
ELSE[ ]	/* Else */
MPPEM[ ]	/* MeasurePixelPerEm */
PUSHB[ ]	/* 1 value pushed */
25
LT[ ]	/* LessThan */
IF[ ]	/* If */
NPUSHB[ ]	/* 65 values pushed */
0 4 5 2 5 4 2 128 0 2 3 3 2 112 0 3 14 1 7 12 3 7 106 0 8 0 12 13 8 12 105 17 1 13 0 10 11 13 10 105 0 5 5 0 95 6 1 0 0 33 77 16 1 11 11 1 97 15 9 2 1 1 34 1 78
ELSE[ ]	/* Else */
NPUSHB[ ]	/* 66 values pushed */
0 4 5 2 5 4 2 128 0 2 3 5 2 3 126 0 3 14 1 7 12 3 7 106 0 8 0 12 13 8 12 105 17 1 13 0 10 11 13 10 105 0 5 5 0 95 6 1 0 0 33 77 16 1 11 11 1 97 15 9 2 1 1 34 1 78
EIF[ ]	/* EndIf */
EIF[ ]	/* EndIf */
NPUSHB[ ]	/* 40 values pushed */
71 71 59 59 36 36 4 4 71 82 71 81 77 75 59 70 59 69 65 63 36 58 36 57 47 45 4 35 4 34 17 19 36 36 21 17 16 18 8 29
CALL[ ]	/* CallFunction */";
};
width = 740;
}
);
note = threeeighths;
unicode = 8540;
},
{
glyphname = fiveeighths;
layers = (
{
layerId = m01;
shapes = (
{
closed = 1;
nodes = (
(127,-1,l),
(771,699,l),
(672,699,l),
(28,-1,l)
);
},
{
closed = 1;
nodes = (
(219,342,o),
(289,383,o),
(330,454,o),
(330,498,qs),
(330,540,o),
(279,594,o),
(232,594,qs),
(198,594,o),
(171,579,q),
(191,631,l),
(333,631,l),
(345,700,l),
(144,700,l),
(76,492,l),
(149,492,l),
(171,529,o),
(211,529,qs),
(231,529,o),
(254,505,o),
(254,484,qs),
(254,452,o),
(216,410,o),
(189,410,qs),
(168,410,o),
(142,433,o),
(141,452,q),
(65,452,l),
(61,400,o),
(120,342,o),
(177,342,qs)
);
},
{
closed = 1;
nodes = (
(593,-5,o),
(659,28,o),
(694,84,o),
(694,117,qs),
(694,169,o),
(650,190,q),
(676,202,o),
(712,246,o),
(712,276,qs),
(712,313,o),
(659,358,o),
(611,358,qs),
(551,358,o),
(472,299,o),
(472,251,qs),
(472,215,o),
(509,190,q),
(475,177,o),
(437,121,o),
(437,88,qs),
(437,50,o),
(495,-5,o),
(549,-5,qs)
);
},
{
closed = 1;
nodes = (
(539,59,o),
(514,82,o),
(514,100,qs),
(514,124,o),
(551,156,o),
(574,156,qs),
(595,156,o),
(619,134,o),
(619,116,qs),
(619,90,o),
(584,59,o),
(559,59,qs)
);
},
{
closed = 1;
nodes = (
(567,212,o),
(547,231,o),
(547,248,qs),
(547,267,o),
(578,295,o),
(598,295,qs),
(615,295,o),
(635,274,o),
(635,260,qs),
(635,240,o),
(605,212,o),
(585,212,qs)
);
}
);
userData = {
assembly = "NPUSHB[ ]	/* 11 values pushed */
24 1 4 8 50 39 2 12 15 2 76
MPPEM[ ]	/* MeasurePixelPerEm */
PUSHB[ ]	/* 1 value pushed */
9
LT[ ]	/* LessThan */
IF[ ]	/* If */
NPUSHB[ ]	/* 72 values pushed */
0 5 4 2 7 5 114 0 2 3 3 2 112 0 8 0 4 5 8 4 105 0 3 16 1 9 14 3 9 106 0 10 0 14 15 10 14 105 19 1 15 0 12 13 15 12 105 0 7 7 0 95 6 1 0 0 33 77 18 1 13 13 1 97 17 11 2 1 1 34 1 78
ELSE[ ]	/* Else */
MPPEM[ ]	/* MeasurePixelPerEm */
PUSHB[ ]	/* 1 value pushed */
31
LT[ ]	/* LessThan */
IF[ ]	/* If */
NPUSHB[ ]	/* 73 values pushed */
0 5 4 2 4 5 2 128 0 2 3 3 2 112 0 8 0 4 5 8 4 105 0 3 16 1 9 14 3 9 106 0 10 0 14 15 10 14 105 19 1 15 0 12 13 15 12 105 0 7 7 0 95 6 1 0 0 33 77 18 1 13 13 1 97 17 11 2 1 1 34 1 78
ELSE[ ]	/* Else */
NPUSHB[ ]	/* 74 values pushed */
0 5 4 2 4 5 2 128 0 2 3 4 2 3 126 0 8 0 4 5 8 4 105 0 3 16 1 9 14 3 9 106 0 10 0 14 15 10 14 105 19 1 15 0 12 13 15 12 105 0 7 7 0 95 6 1 0 0 33 77 18 1 13 13 1 97 17 11 2 1 1 34 1 78
EIF[ ]	/* EndIf */
EIF[ ]	/* EndIf */
NPUSHB[ ]	/* 42 values pushed */
69 69 57 57 34 34 4 4 69 80 69 79 75 73 57 68 57 67 63 61 34 56 34 55 45 43 4 33 4 32 34 17 17 17 36 34 19 17 16 20 8 31
CALL[ ]	/* CallFunction */";
};
width = 744;
}
);
note = fiveeighths;
unicode = 8541;
},
{
glyphname = seveneighths;
layers = (
{
layerId = m01;
shapes = (
{
closed = 1;
nodes = (
(95,-1,l),
(739,699,l),
(640,699,l),
(-4,-1,l)
);
},
{
closed = 1;
nodes = (
(182,346,l),
(373,646,l),
(383,699,l),
(121,699,l),
(109,631,l),
(286,631,l),
(101,346,l)
);
},
{
closed = 1;
nodes = (
(573,-5,o),
(639,28,o),
(674,84,o),
(674,117,qs),
(674,169,o),
(630,190,q),
(656,202,o),
(692,246,o),
(692,276,qs),
(692,313,o),
(639,358,o),
(591,358,qs),
(531,358,o),
(452,299,o),
(452,251,qs),
(452,215,o),
(489,190,q),
(455,177,o),
(417,121,o),
(417,88,qs),
(417,50,o),
(475,-5,o),
(529,-5,qs)
);
},
{
closed = 1;
nodes = (
(519,59,o),
(494,82,o),
(494,100,qs),
(494,124,o),
(531,156,o),
(554,156,qs),
(575,156,o),
(599,134,o),
(599,116,qs),
(599,90,o),
(564,59,o),
(539,59,qs)
);
},
{
closed = 1;
nodes = (
(547,212,o),
(527,231,o),
(527,248,qs),
(527,267,o),
(558,295,o),
(578,295,qs),
(595,295,o),
(615,274,o),
(615,260,qs),
(615,240,o),
(585,212,o),
(565,212,qs)
);
}
);
userData = {
assembly = "NPUSHB[ ]	/* 88 values pushed */
27 16 2 7 10 1 76 0 4 5 9 5 4 9 128 0 5 0 9 10 5 9 105 13 1 10 0 7 8 10 7 105 0 2 2 0 95 3 1 0 0 33 77 12 1 8 8 1 97 11 6 2 1 1 34 1 78 46 46 34 34 11 11 46 57 46 56 52 50 34 45 34 44 40 38 11 33 11 32 42 18 17 17 17 16 14 8 28
CALL[ ]	/* CallFunction */";
};
width = 720;
}
);
note = seveneighths;
unicode = 8542;
},
{
glyphname = uni2080;
layers = (
{
layerId = m01;
shapes = (
{
closed = 1;
nodes = (
(170,-5,o),
(247,76,o),
(279,187,o),
(279,236,qs),
(279,293,o),
(227,358,o),
(171,358,qs),
(110,358,o),
(33,280,o),
(0,170,o),
(0,119,qs),
(0,-5,o),
(107,-5,qs)
);
},
{
closed = 1;
nodes = (
(77,65,o),
(77,129,qs),
(77,156,o),
(93,231,o),
(130,288,o),
(159,288,qs),
(200,288,o),
(200,227,qs),
(200,198,o),
(183,122,o),
(147,65,o),
(120,65,qs)
);
}
);
userData = {
assembly = "NPUSHB[ ]	/* 41 values pushed */
0 2 2 0 97 0 0 0 51 77 5 1 3 3 1 97 4 1 1 1 52 1 78 13 13 0 0 13 24 13 23 19 17 0 12 0 11 36 6 9 23
CALL[ ]	/* CallFunction */";
};
width = 304;
}
);
note = uni2080;
unicode = 8320;
},
{
glyphname = uni2081;
layers = (
{
layerId = m01;
shapes = (
{
closed = 1;
nodes = (
(230,0,l),
(242,68,l),
(162,68,l),
(213,353,l),
(172,353,l),
(44,309,l),
(33,247,l),
(123,267,l),
(88,68,l),
(-2,68,l),
(-14,0,l)
);
}
);
userData = {
assembly = "NPUSHB[ ]	/* 31 values pushed */
3 2 2 0 1 1 76 0 1 1 49 77 2 1 0 0 3 96 0 3 3 50 3 78 17 17 20 16 4 9 26
CALL[ ]	/* CallFunction */";
};
width = 296;
}
);
note = uni2081;
unicode = 8321;
},
{
glyphname = uni2082;
layers = (
{
layerId = m01;
shapes = (
{
closed = 1;
nodes = (
(226,0,l),
(238,68,l),
(98,68,l),
(151,112,l),
(169,127,ls),
(217,168,o),
(267,230,o),
(267,269,qs),
(267,306,o),
(218,358,o),
(165,358,qs),
(109,358,o),
(32,297,o),
(18,238,q),
(95,238,l),
(99,261,o),
(127,292,o),
(151,292,qs),
(168,292,o),
(188,275,o),
(188,259,qs),
(188,238,o),
(149,194,o),
(105,156,qs),
(87,141,l),
(-14,53,l),
(-23,0,l)
);
}
);
userData = {
assembly = "NPUSHB[ ]	/* 37 values pushed */
0 1 0 3 0 1 3 128 0 0 0 2 97 0 2 2 51 77 0 3 3 4 95 0 4 4 50 4 78 17 23 34 18 39 5 9 27
CALL[ ]	/* CallFunction */";
};
width = 293;
}
);
note = uni2082;
unicode = 8322;
},
{
glyphname = uni2083;
layers = (
{
layerId = m01;
shapes = (
{
closed = 1;
nodes = (
(173,-5,o),
(255,75,o),
(255,135,qs),
(255,168,o),
(217,214,o),
(184,222,q),
(273,291,l),
(284,353,l),
(49,353,l),
(37,285,l),
(169,285,l),
(61,201,l),
(95,151,l),
(116,163,o),
(134,163,qs),
(154,163,o),
(179,143,o),
(179,125,qs),
(179,99,o),
(145,63,o),
(116,63,qs),
(94,63,o),
(70,84,o),
(70,102,qs),
(70,109,o),
(71,112,q),
(-4,112,l),
(-6,94,o),
(-6,87,qs),
(-6,43,o),
(53,-5,o),
(104,-5,qs)
);
}
);
userData = {
assembly = "NPUSHB[ ]	/* 16 values pushed */
25 19 2 2 3 18 1 0 2 7 2 2 1 0 3 76
MPPEM[ ]	/* MeasurePixelPerEm */
PUSHB[ ]	/* 1 value pushed */
11
LT[ ]	/* LessThan */
IF[ ]	/* If */
NPUSHB[ ]	/* 35 values pushed */
0 2 3 0 3 2 114 0 0 1 1 0 112 0 3 3 4 95 0 4 4 49 77 0 1 1 5 98 6 1 5 5 52 5 78
ELSE[ ]	/* Else */
MPPEM[ ]	/* MeasurePixelPerEm */
PUSHB[ ]	/* 1 value pushed */
26
LT[ ]	/* LessThan */
IF[ ]	/* If */
NPUSHB[ ]	/* 36 values pushed */
0 2 3 0 3 2 0 128 0 0 1 1 0 112 0 3 3 4 95 0 4 4 49 77 0 1 1 5 98 6 1 5 5 52 5 78
ELSE[ ]	/* Else */
NPUSHB[ ]	/* 37 values pushed */
0 2 3 0 3 2 0 128 0 0 1 3 0 1 126 0 3 3 4 95 0 4 4 49 77 0 1 1 5 98 6 1 5 5 52 5 78
EIF[ ]	/* EndIf */
EIF[ ]	/* EndIf */
NPUSHB[ ]	/* 14 values pushed */
0 0 0 31 0 30 17 19 36 36 20 7 9 27
CALL[ ]	/* CallFunction */";
};
width = 297;
}
);
note = uni2083;
unicode = 8323;
},
{
glyphname = uni2084;
layers = (
{
layerId = m01;
shapes = (
{
closed = 1;
nodes = (
(206,0,l),
(217,63,l),
(256,63,l),
(269,132,l),
(230,132,l),
(244,213,l),
(171,213,l),
(157,132,l),
(74,132,l),
(222,353,l),
(144,353,l),
(-13,122,l),
(-24,63,l),
(140,63,l),
(129,0,l)
);
}
);
userData = {
assembly = "MPPEM[ ]	/* MeasurePixelPerEm */
PUSHB[ ]	/* 1 value pushed */
16
LT[ ]	/* LessThan */
IF[ ]	/* If */
NPUSHB[ ]	/* 28 values pushed */
0 3 1 2 2 3 114 4 1 2 5 1 0 6 2 0 104 0 1 1 49 77 0 6 6 50 6 78
ELSE[ ]	/* Else */
NPUSHB[ ]	/* 29 values pushed */
0 3 1 2 1 3 2 128 4 1 2 5 1 0 6 2 0 104 0 1 1 49 77 0 6 6 50 6 78
EIF[ ]	/* EndIf */
NPUSHB[ ]	/* 10 values pushed */
17 17 17 17 17 18 16 7 9 29
CALL[ ]	/* CallFunction */";
};
width = 294;
}
);
note = uni2084;
unicode = 8324;
},
{
glyphname = uni2085;
layers = (
{
layerId = m01;
shapes = (
{
closed = 1;
nodes = (
(143,-5,o),
(213,36,o),
(255,107,o),
(255,151,qs),
(255,193,o),
(204,247,o),
(157,247,qs),
(123,247,o),
(96,232,q),
(115,284,l),
(257,284,l),
(270,353,l),
(69,353,l),
(1,145,l),
(74,145,l),
(96,182,o),
(135,182,qs),
(155,182,o),
(179,158,o),
(179,137,qs),
(179,105,o),
(140,63,o),
(113,63,qs),
(92,63,o),
(66,86,o),
(66,105,q),
(-10,105,l),
(-15,53,o),
(44,-5,o),
(101,-5,qs)
);
}
);
userData = {
assembly = "PUSHB[ ]	/* 6 values pushed */
20 1 2 6 1 76
MPPEM[ ]	/* MeasurePixelPerEm */
PUSHB[ ]	/* 1 value pushed */
9
LT[ ]	/* LessThan */
IF[ ]	/* If */
NPUSHB[ ]	/* 43 values pushed */
0 3 2 0 5 3 114 0 0 1 1 0 112 0 6 0 2 3 6 2 105 0 5 5 4 95 0 4 4 49 77 0 1 1 7 98 8 1 7 7 52 7 78
ELSE[ ]	/* Else */
MPPEM[ ]	/* MeasurePixelPerEm */
PUSHB[ ]	/* 1 value pushed */
30
LT[ ]	/* LessThan */
IF[ ]	/* If */
NPUSHB[ ]	/* 44 values pushed */
0 3 2 0 2 3 0 128 0 0 1 1 0 112 0 6 0 2 3 6 2 105 0 5 5 4 95 0 4 4 49 77 0 1 1 7 98 8 1 7 7 52 7 78
ELSE[ ]	/* Else */
NPUSHB[ ]	/* 45 values pushed */
0 3 2 0 2 3 0 128 0 0 1 2 0 1 126 0 6 0 2 3 6 2 105 0 5 5 4 95 0 4 4 49 77 0 1 1 7 98 8 1 7 7 52 7 78
EIF[ ]	/* EndIf */
EIF[ ]	/* EndIf */
NPUSHB[ ]	/* 16 values pushed */
0 0 0 29 0 28 34 17 17 17 36 34 18 9 9 29
CALL[ ]	/* CallFunction */";
};
width = 293;
}
);
note = uni2085;
unicode = 8325;
},
{
glyphname = uni2086;
layers = (
{
layerId = m01;
shapes = (
{
closed = 1;
nodes = (
(151,-5,o),
(216,37,o),
(254,104,o),
(254,141,qs),
(254,185,o),
(200,233,o),
(163,233,qs),
(144,233,o),
(104,218,o),
(88,204,q),
(112,292,o),
(162,292,qs),
(196,292,o),
(198,254,q),
(270,254,l),
(273,300,o),
(223,358,o),
(173,358,qs),
(119,358,o),
(40,283,o),
(0,171,o),
(0,119,qs),
(0,63,o),
(55,-5,o),
(111,-5,qs)
);
},
{
closed = 1;
nodes = (
(101,63,o),
(79,85,o),
(79,103,qs),
(79,129,o),
(114,166,o),
(138,166,qs),
(157,166,o),
(178,144,o),
(178,126,qs),
(178,100,o),
(145,63,o),
(120,63,qs)
);
}
);
userData = {
assembly = "PUSHB[ ]	/* 6 values pushed */
14 1 5 3 1 76
MPPEM[ ]	/* MeasurePixelPerEm */
PUSHB[ ]	/* 1 value pushed */
33
LT[ ]	/* LessThan */
IF[ ]	/* If */
NPUSHB[ ]	/* 38 values pushed */
0 1 2 3 2 1 114 0 3 0 5 6 3 5 105 0 2 2 0 97 0 0 0 51 77 8 1 6 6 4 97 7 1 4 4 52 4 78
ELSE[ ]	/* Else */
NPUSHB[ ]	/* 39 values pushed */
0 1 2 3 2 1 3 128 0 3 0 5 6 3 5 105 0 2 2 0 97 0 0 0 51 77 8 1 6 6 4 97 7 1 4 4 52 4 78
EIF[ ]	/* EndIf */
NPUSHB[ ]	/* 21 values pushed */
25 25 0 0 25 36 25 35 31 29 0 24 0 23 35 33 18 37 9 9 26
CALL[ ]	/* CallFunction */";
};
width = 293;
}
);
note = uni2086;
unicode = 8326;
},
{
glyphname = uni2087;
layers = (
{
layerId = m01;
shapes = (
{
closed = 1;
nodes = (
(98,-1,l),
(289,299,l),
(298,352,l),
(36,352,l),
(24,284,l),
(201,284,l),
(17,-1,l)
);
}
);
userData = {
assembly = "NPUSHB[ ]	/* 22 values pushed */
0 0 0 1 95 0 1 1 49 77 0 2 2 50 2 78 18 17 16 3 9 25
CALL[ ]	/* CallFunction */";
};
width = 298;
}
);
note = uni2087;
unicode = 8327;
},
{
glyphname = uni2088;
layers = (
{
layerId = m01;
shapes = (
{
closed = 1;
nodes = (
(146,-5,o),
(212,28,o),
(247,84,o),
(247,117,qs),
(247,169,o),
(203,190,q),
(229,202,o),
(265,246,o),
(265,276,qs),
(265,313,o),
(212,358,o),
(164,358,qs),
(104,358,o),
(25,299,o),
(25,251,qs),
(25,215,o),
(62,190,q),
(28,177,o),
(-10,121,o),
(-10,88,qs),
(-10,50,o),
(48,-5,o),
(102,-5,qs)
);
},
{
closed = 1;
nodes = (
(92,59,o),
(67,82,o),
(67,100,qs),
(67,124,o),
(104,156,o),
(127,156,qs),
(148,156,o),
(172,134,o),
(172,116,qs),
(172,90,o),
(137,59,o),
(112,59,qs)
);
},
{
closed = 1;
nodes = (
(120,212,o),
(100,231,o),
(100,248,qs),
(100,267,o),
(131,295,o),
(151,295,qs),
(168,295,o),
(188,274,o),
(188,260,qs),
(188,240,o),
(158,212,o),
(138,212,qs)
);
}
);
userData = {
assembly = "NPUSHB[ ]	/* 65 values pushed */
16 5 2 2 5 1 76 8 1 5 0 2 3 5 2 105 0 4 4 0 97 0 0 0 51 77 7 1 3 3 1 97 6 1 1 1 52 1 78 35 35 23 23 0 0 35 46 35 45 41 39 23 34 23 33 29 27 0 22 0 21 41 9 9 23
CALL[ ]	/* CallFunction */";
};
width = 289;
}
);
note = uni2088;
unicode = 8328;
},
{
glyphname = uni2089;
layers = (
{
layerId = m01;
shapes = (
{
closed = 1;
nodes = (
(148,-5,o),
(227,69,o),
(268,181,o),
(268,234,qs),
(268,290,o),
(213,358,o),
(157,358,qs),
(118,358,o),
(52,317,o),
(14,250,o),
(14,215,qs),
(14,173,o),
(64,120,o),
(105,120,qs),
(124,120,o),
(164,135,o),
(181,149,q),
(157,61,o),
(107,61,qs),
(71,61,o),
(71,101,q),
(-1,101,l),
(-4,53,o),
(45,-5,o),
(95,-5,qs)
);
},
{
closed = 1;
nodes = (
(112,187,o),
(90,209,o),
(90,228,qs),
(90,253,o),
(124,290,o),
(148,290,qs),
(167,290,o),
(190,267,o),
(190,249,qs),
(190,224,o),
(155,187,o),
(131,187,qs)
);
}
);
userData = {
assembly = "PUSHB[ ]	/* 6 values pushed */
7 1 2 6 1 76
MPPEM[ ]	/* MeasurePixelPerEm */
PUSHB[ ]	/* 1 value pushed */
32
LT[ ]	/* LessThan */
IF[ ]	/* If */
NPUSHB[ ]	/* 38 values pushed */
0 0 2 1 1 0 114 8 1 6 0 2 0 6 2 105 0 5 5 3 97 0 3 3 51 77 0 1 1 4 98 7 1 4 4 52 4 78
ELSE[ ]	/* Else */
NPUSHB[ ]	/* 39 values pushed */
0 0 2 1 2 0 1 128 8 1 6 0 2 0 6 2 105 0 5 5 3 97 0 3 3 51 77 0 1 1 4 98 7 1 4 4 52 4 78
EIF[ ]	/* EndIf */
NPUSHB[ ]	/* 21 values pushed */
25 25 0 0 25 36 25 35 31 29 0 24 0 23 37 35 33 18 9 9 26
CALL[ ]	/* CallFunction */";
};
width = 293;
}
);
note = uni2089;
unicode = 8329;
},
{
glyphname = uni2070;
layers = (
{
layerId = m01;
shapes = (
{
closed = 1;
nodes = (
(231,342,o),
(308,421,o),
(340,532,o),
(340,582,qs),
(340,639,o),
(289,705,o),
(233,705,qs),
(171,705,o),
(94,625,o),
(61,514,o),
(61,465,qs),
(61,408,o),
(113,342,o),
(169,342,qs)
);
},
{
closed = 1;
nodes = (
(163,412,o),
(139,440,o),
(139,474,qs),
(139,502,o),
(154,578,o),
(191,635,o),
(220,635,qs),
(262,635,o),
(262,572,qs),
(262,544,o),
(246,468,o),
(209,412,o),
(181,412,qs)
);
}
);
userData = {
assembly = "NPUSHB[ ]	/* 41 values pushed */
0 2 2 0 97 0 0 0 59 77 5 1 3 3 1 97 4 1 1 1 60 1 78 14 14 0 0 14 26 14 25 20 18 0 13 0 12 37 6 10 23
CALL[ ]	/* CallFunction */";
};
width = 304;
}
);
note = uni2070;
unicode = 8304;
},
{
glyphname = uni00B9;
layers = (
{
layerId = m01;
shapes = (
{
closed = 1;
nodes = (
(291,347,l),
(303,415,l),
(223,415,l),
(274,700,l),
(233,700,l),
(105,656,l),
(94,594,l),
(185,614,l),
(149,415,l),
(59,415,l),
(47,347,l)
);
}
);
userData = {
assembly = "NPUSHB[ ]	/* 31 values pushed */
3 2 2 0 1 1 76 0 1 1 57 77 2 1 0 0 3 96 0 3 3 58 3 78 17 17 20 16 4 10 26
CALL[ ]	/* CallFunction */";
};
width = 286;
}
);
note = uni00B9;
unicode = 185;
},
{
glyphname = uni00B2;
layers = (
{
layerId = m01;
shapes = (
{
closed = 1;
nodes = (
(287,347,l),
(299,415,l),
(159,415,l),
(212,459,l),
(230,474,ls),
(278,515,o),
(328,577,o),
(328,616,qs),
(328,653,o),
(279,705,o),
(226,705,qs),
(170,705,o),
(93,644,o),
(79,585,q),
(156,585,l),
(160,608,o),
(188,639,o),
(212,639,qs),
(229,639,o),
(249,622,o),
(249,606,qs),
(249,585,o),
(210,541,o),
(166,503,qs),
(148,488,l),
(47,400,l),
(38,347,l)
);
}
);
userData = {
assembly = "NPUSHB[ ]	/* 37 values pushed */
0 1 0 3 0 1 3 128 0 0 0 2 97 0 2 2 59 77 0 3 3 4 95 0 4 4 58 4 78 17 23 34 18 39 5 10 27
CALL[ ]	/* CallFunction */";
};
width = 293;
}
);
note = uni00B2;
unicode = 178;
},
{
glyphname = uni00B3;
layers = (
{
layerId = m01;
shapes = (
{
closed = 1;
nodes = (
(234,342,o),
(316,422,o),
(316,482,qs),
(316,515,o),
(278,561,o),
(245,569,q),
(334,638,l),
(345,700,l),
(110,700,l),
(98,632,l),
(230,632,l),
(122,548,l),
(156,498,l),
(177,510,o),
(195,510,qs),
(215,510,o),
(240,490,o),
(240,472,qs),
(240,446,o),
(206,410,o),
(177,410,qs),
(155,410,o),
(131,431,o),
(131,449,qs),
(131,456,o),
(132,459,q),
(57,459,l),
(55,441,o),
(55,434,qs),
(55,390,o),
(114,342,o),
(165,342,qs)
);
}
);
userData = {
assembly = "NPUSHB[ ]	/* 16 values pushed */
25 19 2 2 3 18 1 0 2 7 2 2 1 0 3 76
MPPEM[ ]	/* MeasurePixelPerEm */
PUSHB[ ]	/* 1 value pushed */
11
LT[ ]	/* LessThan */
IF[ ]	/* If */
NPUSHB[ ]	/* 35 values pushed */
0 2 3 0 3 2 114 0 0 1 1 0 112 0 3 3 4 95 0 4 4 57 77 0 1 1 5 98 6 1 5 5 60 5 78
ELSE[ ]	/* Else */
MPPEM[ ]	/* MeasurePixelPerEm */
PUSHB[ ]	/* 1 value pushed */
26
LT[ ]	/* LessThan */
IF[ ]	/* If */
NPUSHB[ ]	/* 36 values pushed */
0 2 3 0 3 2 0 128 0 0 1 1 0 112 0 3 3 4 95 0 4 4 57 77 0 1 1 5 98 6 1 5 5 60 5 78
ELSE[ ]	/* Else */
NPUSHB[ ]	/* 37 values pushed */
0 2 3 0 3 2 0 128 0 0 1 3 0 1 126 0 3 3 4 95 0 4 4 57 77 0 1 1 5 98 6 1 5 5 60 5 78
EIF[ ]	/* EndIf */
EIF[ ]	/* EndIf */
NPUSHB[ ]	/* 14 values pushed */
0 0 0 31 0 30 17 19 36 36 20 7 10 27
CALL[ ]	/* CallFunction */";
};
width = 297;
}
);
note = uni00B3;
unicode = 179;
},
{
glyphname = uni2074;
layers = (
{
layerId = m01;
shapes = (
{
closed = 1;
nodes = (
(268,347,l),
(279,410,l),
(318,410,l),
(331,479,l),
(292,479,l),
(306,560,l),
(233,560,l),
(219,479,l),
(136,479,l),
(284,700,l),
(206,700,l),
(49,469,l),
(38,410,l),
(202,410,l),
(191,347,l)
);
}
);
userData = {
assembly = "MPPEM[ ]	/* MeasurePixelPerEm */
PUSHB[ ]	/* 1 value pushed */
16
LT[ ]	/* LessThan */
IF[ ]	/* If */
NPUSHB[ ]	/* 28 values pushed */
0 3 1 2 2 3 114 4 1 2 5 1 0 6 2 0 104 0 1 1 57 77 0 6 6 58 6 78
ELSE[ ]	/* Else */
NPUSHB[ ]	/* 29 values pushed */
0 3 1 2 1 3 2 128 4 1 2 5 1 0 6 2 0 104 0 1 1 57 77 0 6 6 58 6 78
EIF[ ]	/* EndIf */
NPUSHB[ ]	/* 10 values pushed */
17 17 17 17 17 18 16 7 10 29
CALL[ ]	/* CallFunction */";
};
width = 295;
}
);
note = uni2074;
unicode = 8308;
},
{
glyphname = uni2075;
layers = (
{
layerId = m01;
shapes = (
{
closed = 1;
nodes = (
(205,342,o),
(275,383,o),
(316,454,o),
(316,498,qs),
(316,540,o),
(265,594,o),
(218,594,qs),
(184,594,o),
(157,579,q),
(177,631,l),
(319,631,l),
(331,700,l),
(130,700,l),
(62,492,l),
(135,492,l),
(157,529,o),
(197,529,qs),
(217,529,o),
(240,505,o),
(240,484,qs),
(240,452,o),
(202,410,o),
(175,410,qs),
(154,410,o),
(128,433,o),
(127,452,q),
(51,452,l),
(47,400,o),
(106,342,o),
(163,342,qs)
);
}
);
userData = {
assembly = "PUSHB[ ]	/* 6 values pushed */
20 1 2 6 1 76
MPPEM[ ]	/* MeasurePixelPerEm */
PUSHB[ ]	/* 1 value pushed */
9
LT[ ]	/* LessThan */
IF[ ]	/* If */
NPUSHB[ ]	/* 43 values pushed */
0 3 2 0 5 3 114 0 0 1 1 0 112 0 6 0 2 3 6 2 105 0 5 5 4 95 0 4 4 57 77 0 1 1 7 98 8 1 7 7 60 7 78
ELSE[ ]	/* Else */
MPPEM[ ]	/* MeasurePixelPerEm */
PUSHB[ ]	/* 1 value pushed */
30
LT[ ]	/* LessThan */
IF[ ]	/* If */
NPUSHB[ ]	/* 44 values pushed */
0 3 2 0 2 3 0 128 0 0 1 1 0 112 0 6 0 2 3 6 2 105 0 5 5 4 95 0 4 4 57 77 0 1 1 7 98 8 1 7 7 60 7 78
ELSE[ ]	/* Else */
NPUSHB[ ]	/* 45 values pushed */
0 3 2 0 2 3 0 128 0 0 1 2 0 1 126 0 6 0 2 3 6 2 105 0 5 5 4 95 0 4 4 57 77 0 1 1 7 98 8 1 7 7 60 7 78
EIF[ ]	/* EndIf */
EIF[ ]	/* EndIf */
NPUSHB[ ]	/* 16 values pushed */
0 0 0 29 0 28 34 17 17 17 36 34 18 9 10 29
CALL[ ]	/* CallFunction */";
};
width = 293;
}
);
note = uni2075;
unicode = 8309;
},
{
glyphname = uni2076;
layers = (
{
layerId = m01;
shapes = (
{
closed = 1;
nodes = (
(211,342,o),
(276,383,o),
(314,451,o),
(314,488,qs),
(314,532,o),
(261,580,o),
(224,580,qs),
(205,580,o),
(165,565,o),
(148,551,q),
(172,639,o),
(222,639,qs),
(258,639,o),
(258,601,q),
(330,601,l),
(333,648,o),
(283,705,o),
(234,705,qs),
(180,705,o),
(101,631,o),
(61,519,o),
(61,466,qs),
(61,410,o),
(116,342,o),
(172,342,qs)
);
},
{
closed = 1;
nodes = (
(162,410,o),
(139,433,o),
(139,451,qs),
(139,476,o),
(174,513,o),
(198,513,qs),
(217,513,o),
(239,491,o),
(239,472,qs),
(239,447,o),
(205,410,o),
(181,410,qs)
);
}
);
userData = {
assembly = "PUSHB[ ]	/* 6 values pushed */
14 1 5 3 1 76
MPPEM[ ]	/* MeasurePixelPerEm */
PUSHB[ ]	/* 1 value pushed */
33
LT[ ]	/* LessThan */
IF[ ]	/* If */
NPUSHB[ ]	/* 38 values pushed */
0 1 2 3 2 1 114 0 3 0 5 6 3 5 105 0 2 2 0 97 0 0 0 59 77 8 1 6 6 4 97 7 1 4 4 60 4 78
ELSE[ ]	/* Else */
NPUSHB[ ]	/* 39 values pushed */
0 1 2 3 2 1 3 128 0 3 0 5 6 3 5 105 0 2 2 0 97 0 0 0 59 77 8 1 6 6 4 97 7 1 4 4 60 4 78
EIF[ ]	/* EndIf */
NPUSHB[ ]	/* 21 values pushed */
25 25 0 0 25 36 25 35 31 29 0 24 0 23 35 33 18 37 9 10 26
CALL[ ]	/* CallFunction */";
};
width = 292;
}
);
note = uni2076;
unicode = 8310;
},
{
glyphname = uni2077;
layers = (
{
layerId = m01;
shapes = (
{
closed = 1;
nodes = (
(159,346,l),
(350,646,l),
(360,699,l),
(98,699,l),
(86,631,l),
(263,631,l),
(78,346,l)
);
}
);
userData = {
assembly = "NPUSHB[ ]	/* 22 values pushed */
0 0 0 1 95 0 1 1 57 77 0 2 2 58 2 78 18 17 16 3 10 25
CALL[ ]	/* CallFunction */";
};
width = 298;
}
);
note = uni2077;
unicode = 8311;
},
{
glyphname = uni2078;
layers = (
{
layerId = m01;
shapes = (
{
closed = 1;
nodes = (
(208,342,o),
(274,375,o),
(309,431,o),
(309,464,qs),
(309,516,o),
(265,537,q),
(291,549,o),
(327,593,o),
(327,623,qs),
(327,660,o),
(274,705,o),
(226,705,qs),
(166,705,o),
(87,646,o),
(87,598,qs),
(87,562,o),
(124,537,q),
(90,524,o),
(52,468,o),
(52,435,qs),
(52,397,o),
(110,342,o),
(164,342,qs)
);
},
{
closed = 1;
nodes = (
(154,406,o),
(129,429,o),
(129,447,qs),
(129,471,o),
(166,503,o),
(189,503,qs),
(210,503,o),
(234,481,o),
(234,463,qs),
(234,437,o),
(199,406,o),
(174,406,qs)
);
},
{
closed = 1;
nodes = (
(182,559,o),
(162,578,o),
(162,595,qs),
(162,614,o),
(193,642,o),
(213,642,qs),
(230,642,o),
(250,621,o),
(250,607,qs),
(250,587,o),
(220,559,o),
(200,559,qs)
);
}
);
userData = {
assembly = "NPUSHB[ ]	/* 65 values pushed */
16 5 2 2 5 1 76 8 1 5 0 2 3 5 2 105 0 4 4 0 97 0 0 0 59 77 7 1 3 3 1 97 6 1 1 1 60 1 78 35 35 23 23 0 0 35 46 35 45 41 39 23 34 23 33 29 27 0 22 0 21 41 9 10 23
CALL[ ]	/* CallFunction */";
};
width = 290;
}
);
note = uni2078;
unicode = 8312;
},
{
glyphname = uni2079;
layers = (
{
layerId = m01;
shapes = (
{
closed = 1;
nodes = (
(210,342,o),
(289,416,o),
(330,528,o),
(330,580,qs),
(330,636,o),
(275,705,o),
(219,705,qs),
(180,705,o),
(113,663,o),
(75,597,o),
(75,562,qs),
(75,521,o),
(126,467,o),
(167,467,qs),
(186,467,o),
(226,482,o),
(242,496,q),
(218,408,o),
(168,408,qs),
(133,408,o),
(132,448,q),
(60,448,l),
(57,400,o),
(107,342,o),
(157,342,qs)
);
},
{
closed = 1;
nodes = (
(173,534,o),
(152,556,o),
(152,574,qs),
(152,600,o),
(185,637,o),
(210,637,qs),
(229,637,o),
(251,615,o),
(251,597,qs),
(251,571,o),
(216,534,o),
(192,534,qs)
);
}
);
userData = {
assembly = "PUSHB[ ]	/* 6 values pushed */
7 1 2 6 1 76
MPPEM[ ]	/* MeasurePixelPerEm */
PUSHB[ ]	/* 1 value pushed */
31
LT[ ]	/* LessThan */
IF[ ]	/* If */
NPUSHB[ ]	/* 38 values pushed */
0 0 2 1 1 0 114 8 1 6 0 2 0 6 2 105 0 5 5 3 97 0 3 3 59 77 0 1 1 4 98 7 1 4 4 60 4 78
ELSE[ ]	/* Else */
NPUSHB[ ]	/* 39 values pushed */
0 0 2 1 2 0 1 128 8 1 6 0 2 0 6 2 105 0 5 5 3 97 0 3 3 59 77 0 1 1 4 98 7 1 4 4 60 4 78
EIF[ ]	/* EndIf */
NPUSHB[ ]	/* 21 values pushed */
25 25 0 0 25 36 25 35 31 29 0 24 0 23 37 35 33 18 9 10 26
CALL[ ]	/* CallFunction */";
};
width = 294;
}
);
note = uni2079;
unicode = 8313;
},
{
glyphname = period;
kernLeft = period;
kernRight = period;
layers = (
{
layerId = m01;
shapes = (
{
closed = 1;
nodes = (
(115,-12,o),
(163,37,o),
(163,71,qs),
(163,106,o),
(115,154,o),
(80,154,qs),
(45,154,o),
(-3,106,o),
(-3,71,qs),
(-3,36,o),
(45,-12,o),
(80,-12,qs)
);
}
);
userData = {
assembly = "NPUSHB[ ]	/* 22 values pushed */
0 0 0 1 97 2 1 1 1 40 1 78 0 0 0 11 0 10 36 3 8 23
CALL[ ]	/* CallFunction */";
};
width = 222;
}
);
note = period;
unicode = 46;
},
{
glyphname = comma;
kernLeft = comma;
kernRight = comma;
layers = (
{
layerId = m01;
shapes = (
{
closed = 1;
nodes = (
(22,-116,l),
(163,133,l),
(39,133,l),
(-62,-116,l)
);
}
);
userData = {
assembly = "NPUSHB[ ]	/* 14 values pushed */
0 0 1 0 133 0 1 1 118 17 16 2 8 24
CALL[ ]	/* CallFunction */";
};
width = 212;
}
);
note = comma;
unicode = 44;
},
{
glyphname = colon;
kernLeft = colon;
kernRight = colon;
layers = (
{
layerId = m01;
shapes = (
{
closed = 1;
nodes = (
(179,346,o),
(227,395,o),
(227,429,qs),
(227,464,o),
(179,512,o),
(144,512,qs),
(109,512,o),
(61,464,o),
(61,429,qs),
(61,394,o),
(109,346,o),
(144,346,qs)
);
},
{
closed = 1;
nodes = (
(115,-12,o),
(163,37,o),
(163,71,qs),
(163,106,o),
(115,154,o),
(80,154,qs),
(45,154,o),
(-3,106,o),
(-3,71,qs),
(-3,36,o),
(45,-12,o),
(80,-12,qs)
);
}
);
userData = {
assembly = "NPUSHB[ ]	/* 41 values pushed */
4 1 1 1 0 97 0 0 0 42 77 0 2 2 3 97 5 1 3 3 40 3 78 12 12 0 0 12 23 12 22 18 16 0 11 0 10 36 6 8 23
CALL[ ]	/* CallFunction */";
};
width = 222;
}
);
note = colon;
unicode = 58;
},
{
glyphname = semicolon;
kernLeft = semicolon;
kernRight = semicolon;
layers = (
{
layerId = m01;
shapes = (
{
closed = 1;
nodes = (
(31,-116,l),
(172,133,l),
(48,133,l),
(-53,-116,l)
);
},
{
closed = 1;
nodes = (
(203,346,o),
(251,395,o),
(251,429,qs),
(251,464,o),
(203,512,o),
(168,512,qs),
(133,512,o),
(85,464,o),
(85,429,qs),
(85,394,o),
(133,346,o),
(168,346,qs)
);
}
);
userData = {
assembly = "NPUSHB[ ]	/* 36 values pushed */
0 0 3 1 3 0 1 128 0 1 1 132 4 1 3 3 2 97 0 2 2 42 3 78 4 4 4 15 4 14 37 17 16 5 8 25
CALL[ ]	/* CallFunction */";
};
width = 245;
}
);
note = semicolon;
unicode = 59;
},
{
glyphname = ellipsis;
kernLeft = period;
kernRight = period;
layers = (
{
layerId = m01;
shapes = (
{
closed = 1;
nodes = (
(560,-12,o),
(608,37,o),
(608,71,qs),
(608,106,o),
(560,154,o),
(525,154,qs),
(490,154,o),
(442,106,o),
(442,71,qs),
(442,36,o),
(490,-12,o),
(525,-12,qs)
);
},
{
closed = 1;
nodes = (
(118,-12,o),
(166,37,o),
(166,71,qs),
(166,106,o),
(118,154,o),
(83,154,qs),
(48,154,o),
(0,106,o),
(0,71,qs),
(0,36,o),
(48,-12,o),
(83,-12,qs)
);
},
{
closed = 1;
nodes = (
(339,-12,o),
(387,37,o),
(387,71,qs),
(387,106,o),
(339,154,o),
(304,154,qs),
(269,154,o),
(221,106,o),
(221,71,qs),
(221,36,o),
(269,-12,o),
(304,-12,qs)
);
}
);
userData = {
assembly = "NPUSHB[ ]	/* 44 values pushed */
4 2 2 0 0 1 97 8 5 7 3 6 5 1 1 40 1 78 24 24 12 12 0 0 24 35 24 34 30 28 12 23 12 22 18 16 0 11 0 10 36 9 8 23
CALL[ ]	/* CallFunction */";
};
width = 671;
}
);
note = ellipsis;
unicode = 8230;
},
{
glyphname = exclam;
layers = (
{
layerId = m01;
shapes = (
{
closed = 1;
nodes = (
(179,221,l),
(278,700,l),
(141,700,l),
(71,221,l)
);
},
{
closed = 1;
nodes = (
(143,-12,o),
(191,37,o),
(191,71,qs),
(191,106,o),
(143,154,o),
(108,154,qs),
(73,154,o),
(25,106,o),
(25,71,qs),
(25,36,o),
(73,-12,o),
(108,-12,qs)
);
}
);
userData = {
assembly = "NPUSHB[ ]	/* 34 values pushed */
0 1 1 0 95 0 0 0 33 77 0 2 2 3 97 4 1 3 3 40 3 78 4 4 4 15 4 14 37 17 16 5 8 25
CALL[ ]	/* CallFunction */";
};
width = 278;
}
);
note = exclam;
unicode = 33;
},
{
glyphname = exclamdown;
kernLeft = exclamdown;
kernRight = exclamdown;
layers = (
{
layerId = m01;
shapes = (
{
closed = 1;
nodes = (
(149,-139,l),
(219,340,l),
(111,340,l),
(12,-139,l)
);
},
{
closed = 1;
nodes = (
(217,407,o),
(265,455,o),
(265,490,qs),
(265,525,o),
(217,573,o),
(182,573,qs),
(148,573,o),
(99,525,o),
(99,490,qs),
(99,456,o),
(148,407,o),
(182,407,qs)
);
}
);
userData = {
assembly = "NPUSHB[ ]	/* 37 values pushed */
0 2 4 1 3 0 2 3 105 0 0 1 1 0 87 0 0 0 1 95 0 1 0 1 79 4 4 4 15 4 14 37 17 16 5 8 25
CALL[ ]	/* CallFunction */";
};
width = 279;
}
);
note = exclamdown;
unicode = 161;
},
{
glyphname = question;
kernLeft = question;
kernRight = question;
layers = (
{
layerId = m01;
shapes = (
{
closed = 1;
nodes = (
(231,218,l),
(249,298,l),
(332,300,o),
(391,327,qs),
(454,355,o),
(524,463,o),
(524,537,qs),
(524,618,o),
(418,712,o),
(328,712,qs),
(256,712,o),
(200,685,qs),
(143,658,o),
(72,564,o),
(62,504,q),
(183,504,l),
(191,551,o),
(258,606,o),
(308,606,qs),
(350,606,o),
(398,560,o),
(398,522,qs),
(398,467,o),
(370,438,qs),
(320,383,o),
(189,383,qs),
(144,383,l),
(119,218,l)
);
},
{
closed = 1;
nodes = (
(188,-12,o),
(236,37,o),
(236,71,qs),
(236,106,o),
(188,154,o),
(153,154,qs),
(118,154,o),
(70,106,o),
(70,71,qs),
(70,36,o),
(118,-12,o),
(153,-12,qs)
);
}
);
userData = {
assembly = "MPPEM[ ]	/* MeasurePixelPerEm */
PUSHB[ ]	/* 1 value pushed */
15
LT[ ]	/* LessThan */
IF[ ]	/* If */
NPUSHB[ ]	/* 45 values pushed */
0 2 1 0 1 2 0 128 0 5 4 6 4 5 114 0 0 0 4 5 0 4 105 0 1 1 3 97 0 3 3 39 77 0 6 6 7 97 8 1 7 7 40 7 78
ELSE[ ]	/* Else */
NPUSHB[ ]	/* 46 values pushed */
0 2 1 0 1 2 0 128 0 5 4 6 4 5 6 128 0 0 0 4 5 0 4 105 0 1 1 3 97 0 3 3 39 77 0 6 6 7 97 8 1 7 7 40 7 78
EIF[ ]	/* EndIf */
NPUSHB[ ]	/* 16 values pushed */
28 28 28 39 28 38 37 17 22 36 18 37 32 9 8 29
CALL[ ]	/* CallFunction */";
};
width = 507;
}
);
note = question;
unicode = 63;
},
{
glyphname = questiondown;
kernLeft = questiondown;
kernRight = questiondown;
layers = (
{
layerId = m01;
shapes = (
{
closed = 1;
nodes = (
(249,-156,o),
(362,-112,o),
(445,-18,o),
(456,52,q),
(335,52,l),
(327,5,o),
(260,-50,o),
(210,-50,qs),
(168,-50,o),
(120,-4,o),
(120,34,qs),
(120,106,o),
(224,173,o),
(329,173,qs),
(374,173,l),
(399,338,l),
(287,338,l),
(269,258,l),
(199,257,o),
(75,209,o),
(-6,103,o),
(-6,19,qs),
(-6,-62,o),
(100,-156,o),
(190,-156,qs)
);
},
{
closed = 1;
nodes = (
(400,402,o),
(448,450,o),
(448,485,qs),
(448,520,o),
(400,568,o),
(365,568,qs),
(331,568,o),
(282,520,o),
(282,485,qs),
(282,451,o),
(331,402,o),
(365,402,qs)
);
}
);
userData = {
assembly = "MPPEM[ ]	/* MeasurePixelPerEm */
PUSHB[ ]	/* 1 value pushed */
15
LT[ ]	/* LessThan */
IF[ ]	/* If */
NPUSHB[ ]	/* 49 values pushed */
0 1 7 0 0 1 114 0 4 2 3 2 4 3 128 0 6 9 1 7 1 6 7 105 0 0 0 2 4 0 2 106 0 3 5 5 3 89 0 3 3 5 97 8 1 5 3 5 81
ELSE[ ]	/* Else */
NPUSHB[ ]	/* 50 values pushed */
0 1 7 0 7 1 0 128 0 4 2 3 2 4 3 128 0 6 9 1 7 1 6 7 105 0 0 0 2 4 0 2 106 0 3 5 5 3 89 0 3 3 5 97 8 1 5 3 5 81
EIF[ ]	/* EndIf */
NPUSHB[ ]	/* 22 values pushed */
25 25 0 0 25 36 25 35 31 29 0 24 0 23 18 36 33 17 21 10 8 27
CALL[ ]	/* CallFunction */";
};
width = 507;
}
);
note = questiondown;
unicode = 191;
},
{
glyphname = periodcentered;
layers = (
{
layerId = m01;
shapes = (
{
closed = 1;
nodes = (
(162,255,o),
(210,304,o),
(210,338,qs),
(210,373,o),
(162,421,o),
(127,421,qs),
(92,421,o),
(44,373,o),
(44,338,qs),
(44,303,o),
(92,255,o),
(127,255,qs)
);
}
);
userData = {
assembly = "NPUSHB[ ]	/* 27 values pushed */
0 0 1 1 0 89 0 0 0 1 97 2 1 1 0 1 81 0 0 0 11 0 10 36 3 8 23
CALL[ ]	/* CallFunction */";
};
width = 222;
}
);
note = periodcentered;
unicode = 183;
},
{
glyphname = bullet;
layers = (
{
layerId = m01;
shapes = (
{
closed = 1;
nodes = (
(235,198,o),
(298,234,o),
(334,296,o),
(334,333,qs),
(334,370,o),
(298,433,o),
(235,469,o),
(198,469,qs),
(161,469,o),
(99,433,o),
(63,370,o),
(63,333,qs),
(63,296,o),
(99,234,o),
(161,198,o),
(198,198,qs)
);
}
);
userData = {
assembly = "NPUSHB[ ]	/* 27 values pushed */
0 0 1 1 0 89 0 0 0 1 97 2 1 1 0 1 81 0 0 0 15 0 14 38 3 8 23
CALL[ ]	/* CallFunction */";
};
width = 367;
}
);
note = bullet;
unicode = 8226;
},
{
glyphname = asterisk;
kernLeft = asterisk;
kernRight = asterisk;
layers = (
{
layerId = m01;
shapes = (
{
closed = 1;
nodes = (
(296,360,l),
(317,480,l),
(410,420,l),
(463,489,l),
(369,549,l),
(483,608,l),
(456,677,l),
(341,617,l),
(362,737,l),
(283,737,l),
(262,617,l),
(169,677,l),
(117,608,l),
(210,549,l),
(97,489,l),
(123,420,l),
(238,480,l),
(217,360,l)
);
}
);
userData = {
assembly = "NPUSHB[ ]	/* 39 values pushed */
15 14 13 12 11 10 9 6 5 4 3 2 1 13 1 0 1 76 0 0 1 1 0 87 0 0 0 1 95 0 1 0 1 79 24 23 2 8 24
CALL[ ]	/* CallFunction */";
};
width = 486;
}
);
note = asterisk;
unicode = 42;
},
{
glyphname = numbersign;
layers = (
{
layerId = m01;
shapes = (
{
closed = 1;
nodes = (
(202,0,l),
(271,175,l),
(461,175,l),
(392,0,l),
(513,0,l),
(581,175,l),
(739,175,l),
(759,290,l),
(626,290,l),
(683,436,l),
(839,436,l),
(859,551,l),
(728,551,l),
(795,723,l),
(675,723,l),
(607,551,l),
(418,551,l),
(485,723,l),
(364,723,l),
(297,551,l),
(125,551,l),
(106,436,l),
(252,436,l),
(195,290,l),
(26,290,l),
(6,175,l),
(150,175,l),
(82,0,l)
);
},
{
closed = 1;
nodes = (
(373,436,l),
(563,436,l),
(505,290,l),
(316,290,l)
);
}
);
userData = {
assembly = "MPPEM[ ]	/* MeasurePixelPerEm */
PUSHB[ ]	/* 1 value pushed */
21
LT[ ]	/* LessThan */
IF[ ]	/* If */
NPUSHB[ ]	/* 38 values pushed */
7 5 2 3 14 8 2 2 1 3 2 104 16 15 9 3 1 12 10 2 0 11 1 0 103 6 1 4 4 33 77 13 1 11 11 34 11 78
ELSE[ ]	/* Else */
NPUSHB[ ]	/* 38 values pushed */
6 1 4 3 4 133 7 5 2 3 14 8 2 2 1 3 2 104 16 15 9 3 1 12 10 2 0 11 1 0 103 13 1 11 11 34 11 78
EIF[ ]	/* EndIf */
NPUSHB[ ]	/* 30 values pushed */
28 28 28 31 28 31 30 29 27 26 25 24 23 22 21 20 19 18 17 17 17 17 17 17 17 17 16 17 8 31
CALL[ ]	/* CallFunction */";
};
width = 840;
}
);
note = numbersign;
unicode = 35;
},
{
glyphname = slash;
kernLeft = slash;
kernRight = slash;
layers = (
{
layerId = m01;
shapes = (
{
closed = 1;
nodes = (
(74,-111,l),
(481,777,l),
(356,777,l),
(-50,-111,l)
);
}
);
userData = {
assembly = "NPUSHB[ ]	/* 14 values pushed */
0 0 1 0 133 0 1 1 118 17 16 2 8 24
CALL[ ]	/* CallFunction */";
};
width = 401;
}
);
note = slash;
unicode = 47;
},
{
glyphname = backslash;
kernLeft = backslash;
kernRight = backslash;
layers = (
{
layerId = m01;
shapes = (
{
closed = 1;
nodes = (
(324,-111,l),
(231,777,l),
(107,777,l),
(200,-111,l)
);
}
);
userData = {
assembly = "NPUSHB[ ]	/* 21 values pushed */
0 0 1 1 0 87 0 0 0 1 95 0 1 0 1 79 17 16 2 8 24
CALL[ ]	/* CallFunction */";
};
width = 401;
}
);
note = backslash;
unicode = 92;
},
{
glyphname = periodcentered.loclCAT;
layers = (
{
layerId = m01;
shapes = (
{
closed = 1;
nodes = (
(130,255,o),
(178,304,o),
(178,338,qs),
(178,373,o),
(130,421,o),
(95,421,qs),
(60,421,o),
(12,373,o),
(12,338,qs),
(12,303,o),
(60,255,o),
(95,255,qs)
);
}
);
userData = {
assembly = "NPUSHB[ ]	/* 27 values pushed */
0 0 1 1 0 89 0 0 0 1 97 2 1 1 0 1 81 0 0 0 11 0 10 36 3 8 23
CALL[ ]	/* CallFunction */";
};
width = 158;
}
);
note = periodcentered.loclCAT;
},
{
glyphname = periodcentered.loclCAT.case;
layers = (
{
layerId = m01;
shapes = (
{
closed = 1;
nodes = (
(-99,267,o),
(-50,316,o),
(-50,350,qs),
(-50,385,o),
(-99,433,o),
(-133,433,qs),
(-168,433,o),
(-216,385,o),
(-216,350,qs),
(-216,315,o),
(-168,267,o),
(-133,267,qs)
);
}
);
userData = {
assembly = "NPUSHB[ ]	/* 27 values pushed */
0 0 1 1 0 89 0 0 0 1 97 2 1 1 0 1 81 0 0 0 11 0 10 36 3 8 23
CALL[ ]	/* CallFunction */";
};
width = 0;
}
);
note = periodcentered.loclCAT.case;
},
